G04 Layer_Color=13813960*
%FSLAX24Y24*%
%MOIN*%
G70*
G01*
G75*
G36*
X35034Y17097D02*
X35038Y17096D01*
X35042Y17094D01*
X35045Y17092D01*
X35048Y17090D01*
X35050Y17089D01*
X35051Y17088D01*
X35051Y17087D01*
X35054Y17083D01*
X35056Y17078D01*
X35058Y17073D01*
X35058Y17068D01*
X35059Y17064D01*
X35059Y17062D01*
X35060Y17060D01*
Y17059D01*
Y17058D01*
Y17057D01*
Y17057D01*
Y16925D01*
X35063Y16928D01*
X35066Y16930D01*
X35069Y16932D01*
X35071Y16934D01*
X35073Y16935D01*
X35075Y16936D01*
X35076Y16937D01*
X35076Y16937D01*
X35079Y16941D01*
X35083Y16944D01*
X35087Y16947D01*
X35091Y16952D01*
X35099Y16960D01*
X35106Y16969D01*
X35110Y16973D01*
X35113Y16977D01*
X35116Y16980D01*
X35119Y16983D01*
X35121Y16986D01*
X35123Y16988D01*
X35124Y16989D01*
X35124Y16990D01*
X35130Y16996D01*
X35135Y17003D01*
X35140Y17009D01*
X35144Y17014D01*
X35148Y17019D01*
X35152Y17024D01*
X35155Y17028D01*
X35158Y17031D01*
X35161Y17034D01*
X35163Y17037D01*
X35165Y17039D01*
X35167Y17041D01*
X35168Y17042D01*
X35169Y17043D01*
X35169Y17044D01*
X35170Y17044D01*
X35175Y17050D01*
X35182Y17055D01*
X35189Y17061D01*
X35195Y17066D01*
X35198Y17068D01*
X35201Y17070D01*
X35203Y17071D01*
X35206Y17073D01*
X35207Y17074D01*
X35209Y17075D01*
X35209Y17075D01*
X35210Y17075D01*
X35215Y17078D01*
X35220Y17081D01*
X35225Y17083D01*
X35229Y17085D01*
X35234Y17086D01*
X35239Y17087D01*
X35243Y17088D01*
X35248Y17089D01*
X35252Y17090D01*
X35255Y17090D01*
X35259Y17091D01*
X35261Y17091D01*
X35264Y17091D01*
X35267D01*
X35274Y17091D01*
X35281Y17090D01*
X35288Y17089D01*
X35294Y17088D01*
X35296Y17087D01*
X35298Y17086D01*
X35300Y17085D01*
X35302Y17085D01*
X35303Y17085D01*
X35304Y17084D01*
X35305Y17084D01*
X35305D01*
X35312Y17081D01*
X35318Y17077D01*
X35324Y17074D01*
X35329Y17070D01*
X35332Y17067D01*
X35335Y17065D01*
X35337Y17064D01*
X35337Y17063D01*
X35338Y17063D01*
X35338Y17063D01*
X35343Y17057D01*
X35348Y17052D01*
X35352Y17047D01*
X35355Y17042D01*
X35357Y17038D01*
X35358Y17036D01*
X35359Y17035D01*
X35360Y17033D01*
X35360Y17032D01*
X35360Y17032D01*
Y17032D01*
X35363Y17026D01*
X35365Y17021D01*
X35367Y17010D01*
X35370Y16999D01*
X35370Y16994D01*
X35371Y16988D01*
X35371Y16984D01*
X35372Y16979D01*
X35372Y16975D01*
Y16972D01*
X35373Y16970D01*
Y16967D01*
Y16966D01*
Y16966D01*
X35372Y16954D01*
X35372Y16949D01*
X35371Y16944D01*
X35370Y16939D01*
X35370Y16934D01*
X35369Y16930D01*
X35368Y16926D01*
X35367Y16922D01*
X35366Y16919D01*
X35365Y16916D01*
X35365Y16914D01*
X35364Y16912D01*
X35363Y16911D01*
X35363Y16910D01*
Y16910D01*
X35359Y16901D01*
X35355Y16894D01*
X35351Y16887D01*
X35349Y16884D01*
X35347Y16881D01*
X35345Y16879D01*
X35343Y16877D01*
X35342Y16875D01*
X35340Y16873D01*
X35339Y16872D01*
X35339Y16871D01*
X35338Y16871D01*
X35338Y16870D01*
X35332Y16865D01*
X35326Y16860D01*
X35320Y16856D01*
X35315Y16853D01*
X35311Y16850D01*
X35309Y16849D01*
X35307Y16848D01*
X35306Y16848D01*
X35304Y16847D01*
X35304Y16847D01*
X35304D01*
X35297Y16844D01*
X35290Y16842D01*
X35284Y16841D01*
X35278Y16840D01*
X35274Y16840D01*
X35272Y16839D01*
X35270Y16839D01*
X35267D01*
X35262Y16839D01*
X35258Y16841D01*
X35254Y16842D01*
X35251Y16843D01*
X35248Y16845D01*
X35246Y16846D01*
X35245Y16847D01*
X35245Y16847D01*
X35242Y16851D01*
X35240Y16854D01*
X35238Y16858D01*
X35237Y16861D01*
X35237Y16864D01*
X35237Y16867D01*
X35236Y16868D01*
Y16869D01*
X35237Y16874D01*
X35238Y16878D01*
X35239Y16882D01*
X35241Y16885D01*
X35243Y16887D01*
X35244Y16889D01*
X35245Y16890D01*
X35245Y16890D01*
X35249Y16893D01*
X35253Y16896D01*
X35258Y16898D01*
X35262Y16900D01*
X35266Y16901D01*
X35269Y16903D01*
X35270Y16903D01*
X35271Y16903D01*
X35271Y16904D01*
X35271D01*
X35275Y16905D01*
X35277Y16906D01*
X35280Y16907D01*
X35282Y16908D01*
X35286Y16909D01*
X35288Y16910D01*
X35290Y16911D01*
X35291Y16912D01*
X35292Y16912D01*
X35292D01*
X35297Y16916D01*
X35302Y16920D01*
X35306Y16924D01*
X35309Y16928D01*
X35312Y16933D01*
X35314Y16937D01*
X35316Y16941D01*
X35318Y16946D01*
X35319Y16949D01*
X35320Y16953D01*
X35320Y16956D01*
X35321Y16959D01*
X35321Y16961D01*
X35321Y16963D01*
Y16964D01*
Y16964D01*
X35321Y16970D01*
X35320Y16975D01*
X35319Y16980D01*
X35318Y16985D01*
X35316Y16988D01*
X35315Y16991D01*
X35315Y16992D01*
X35314Y16993D01*
X35314Y16993D01*
Y16993D01*
X35311Y16998D01*
X35308Y17002D01*
X35305Y17006D01*
X35301Y17009D01*
X35299Y17011D01*
X35296Y17013D01*
X35295Y17014D01*
X35294Y17014D01*
X35294D01*
X35289Y17017D01*
X35284Y17019D01*
X35279Y17020D01*
X35275Y17021D01*
X35271Y17022D01*
X35268Y17022D01*
X35265D01*
X35260Y17022D01*
X35254Y17021D01*
X35249Y17020D01*
X35245Y17018D01*
X35241Y17017D01*
X35238Y17016D01*
X35237Y17015D01*
X35236Y17015D01*
X35235Y17015D01*
X35235D01*
X35229Y17012D01*
X35224Y17008D01*
X35219Y17005D01*
X35214Y17001D01*
X35210Y16998D01*
X35207Y16996D01*
X35206Y16995D01*
X35205Y16994D01*
X35205Y16994D01*
X35204Y16994D01*
X35199Y16988D01*
X35194Y16982D01*
X35189Y16977D01*
X35184Y16971D01*
X35181Y16966D01*
X35179Y16964D01*
X35178Y16963D01*
X35176Y16961D01*
X35176Y16960D01*
X35175Y16959D01*
X35175Y16959D01*
X35173Y16957D01*
X35171Y16954D01*
X35169Y16951D01*
X35167Y16948D01*
X35161Y16942D01*
X35156Y16935D01*
X35151Y16929D01*
X35148Y16927D01*
X35147Y16925D01*
X35145Y16923D01*
X35143Y16921D01*
X35143Y16921D01*
X35142Y16920D01*
X35133Y16910D01*
X35122Y16900D01*
X35112Y16889D01*
X35108Y16885D01*
X35103Y16880D01*
X35099Y16876D01*
X35095Y16872D01*
X35091Y16869D01*
X35088Y16865D01*
X35086Y16863D01*
X35084Y16861D01*
X35083Y16860D01*
X35083Y16860D01*
X35079Y16857D01*
X35075Y16854D01*
X35071Y16852D01*
X35068Y16849D01*
X35064Y16847D01*
X35061Y16846D01*
X35060Y16846D01*
X35060Y16845D01*
X35059Y16845D01*
X35059D01*
X35054Y16843D01*
X35049Y16841D01*
X35045Y16840D01*
X35041Y16839D01*
X35038Y16839D01*
X35037Y16838D01*
X35035D01*
X35030Y16839D01*
X35025Y16840D01*
X35021Y16842D01*
X35017Y16844D01*
X35014Y16846D01*
X35012Y16847D01*
X35011Y16848D01*
X35010Y16849D01*
X35007Y16853D01*
X35004Y16858D01*
X35002Y16863D01*
X35001Y16868D01*
X35001Y16872D01*
X35000Y16874D01*
Y16875D01*
X35000Y16877D01*
Y16878D01*
Y16878D01*
Y16878D01*
Y17064D01*
X35000Y17070D01*
X35001Y17075D01*
X35003Y17080D01*
X35004Y17083D01*
X35006Y17086D01*
X35007Y17088D01*
X35008Y17089D01*
X35008Y17089D01*
X35012Y17092D01*
X35015Y17094D01*
X35019Y17095D01*
X35022Y17096D01*
X35025Y17097D01*
X35027Y17097D01*
X35029D01*
X35034Y17097D01*
D02*
G37*
G36*
X35195Y17400D02*
X35208Y17399D01*
X35220Y17398D01*
X35232Y17397D01*
X35242Y17395D01*
X35252Y17394D01*
X35261Y17392D01*
X35269Y17390D01*
X35276Y17388D01*
X35282Y17386D01*
X35287Y17385D01*
X35291Y17383D01*
X35295Y17382D01*
X35297Y17381D01*
X35299Y17381D01*
X35299Y17380D01*
X35308Y17376D01*
X35315Y17372D01*
X35322Y17367D01*
X35325Y17365D01*
X35328Y17363D01*
X35331Y17361D01*
X35333Y17359D01*
X35335Y17357D01*
X35337Y17356D01*
X35338Y17355D01*
X35338Y17354D01*
X35339Y17354D01*
X35339Y17353D01*
X35345Y17347D01*
X35350Y17341D01*
X35354Y17334D01*
X35358Y17329D01*
X35361Y17323D01*
X35362Y17321D01*
X35363Y17319D01*
X35363Y17318D01*
X35364Y17317D01*
X35364Y17316D01*
Y17316D01*
X35367Y17308D01*
X35369Y17300D01*
X35371Y17292D01*
X35372Y17285D01*
X35372Y17281D01*
X35372Y17278D01*
X35373Y17275D01*
X35373Y17273D01*
Y17271D01*
Y17270D01*
Y17269D01*
Y17269D01*
X35373Y17262D01*
X35372Y17255D01*
X35371Y17248D01*
X35370Y17242D01*
X35368Y17236D01*
X35367Y17230D01*
X35365Y17225D01*
X35363Y17220D01*
X35361Y17216D01*
X35360Y17212D01*
X35358Y17209D01*
X35357Y17206D01*
X35355Y17204D01*
X35355Y17202D01*
X35354Y17201D01*
X35354Y17201D01*
X35350Y17196D01*
X35346Y17191D01*
X35342Y17186D01*
X35337Y17182D01*
X35332Y17178D01*
X35328Y17175D01*
X35323Y17172D01*
X35319Y17169D01*
X35315Y17166D01*
X35311Y17164D01*
X35307Y17162D01*
X35304Y17161D01*
X35302Y17160D01*
X35300Y17159D01*
X35299Y17158D01*
X35298Y17158D01*
X35290Y17155D01*
X35281Y17152D01*
X35272Y17150D01*
X35264Y17148D01*
X35260Y17148D01*
X35257Y17147D01*
X35253Y17146D01*
X35251Y17146D01*
X35249Y17146D01*
X35247Y17146D01*
X35246Y17145D01*
X35246D01*
X35234Y17144D01*
X35222Y17143D01*
X35211Y17142D01*
X35205D01*
X35200Y17142D01*
X35195Y17142D01*
X35191D01*
X35187Y17141D01*
X35177D01*
X35166Y17142D01*
X35156Y17142D01*
X35151Y17142D01*
X35147Y17142D01*
X35142Y17143D01*
X35138Y17143D01*
X35135Y17144D01*
X35132Y17144D01*
X35129Y17144D01*
X35127Y17144D01*
X35125Y17145D01*
X35123D01*
X35122Y17145D01*
X35122D01*
X35113Y17147D01*
X35104Y17148D01*
X35096Y17150D01*
X35093Y17151D01*
X35089Y17152D01*
X35086Y17153D01*
X35084Y17154D01*
X35081Y17154D01*
X35079Y17155D01*
X35078Y17155D01*
X35077Y17156D01*
X35076Y17156D01*
X35076D01*
X35069Y17159D01*
X35062Y17163D01*
X35056Y17166D01*
X35050Y17170D01*
X35045Y17174D01*
X35040Y17178D01*
X35035Y17181D01*
X35031Y17185D01*
X35028Y17188D01*
X35025Y17192D01*
X35022Y17195D01*
X35020Y17197D01*
X35018Y17199D01*
X35017Y17201D01*
X35016Y17202D01*
X35016Y17202D01*
X35012Y17208D01*
X35009Y17214D01*
X35006Y17220D01*
X35003Y17226D01*
X35001Y17232D01*
X34999Y17237D01*
X34998Y17243D01*
X34997Y17248D01*
X34996Y17253D01*
X34995Y17257D01*
X34995Y17261D01*
X34994Y17265D01*
Y17267D01*
X34994Y17269D01*
Y17270D01*
Y17271D01*
X34994Y17277D01*
X34995Y17283D01*
X34996Y17289D01*
X34997Y17295D01*
X34998Y17300D01*
X34999Y17305D01*
X35001Y17309D01*
X35002Y17314D01*
X35004Y17318D01*
X35005Y17321D01*
X35007Y17324D01*
X35008Y17327D01*
X35009Y17329D01*
X35010Y17330D01*
X35010Y17331D01*
X35010Y17331D01*
X35013Y17336D01*
X35017Y17341D01*
X35020Y17346D01*
X35024Y17350D01*
X35028Y17354D01*
X35032Y17357D01*
X35036Y17361D01*
X35039Y17364D01*
X35043Y17367D01*
X35046Y17369D01*
X35049Y17371D01*
X35051Y17373D01*
X35053Y17374D01*
X35055Y17375D01*
X35056Y17376D01*
X35056Y17376D01*
X35065Y17381D01*
X35075Y17385D01*
X35084Y17388D01*
X35088Y17389D01*
X35092Y17390D01*
X35096Y17391D01*
X35099Y17392D01*
X35102Y17393D01*
X35105Y17393D01*
X35107Y17394D01*
X35109Y17394D01*
X35110Y17395D01*
X35110D01*
X35122Y17396D01*
X35134Y17398D01*
X35146Y17398D01*
X35152Y17399D01*
X35157Y17399D01*
X35162D01*
X35167Y17400D01*
X35171D01*
X35175Y17400D01*
X35181D01*
X35195Y17400D01*
D02*
G37*
G36*
X35034Y17711D02*
X35038Y17710D01*
X35042Y17708D01*
X35045Y17707D01*
X35048Y17705D01*
X35050Y17703D01*
X35051Y17702D01*
X35051Y17701D01*
X35054Y17697D01*
X35056Y17692D01*
X35058Y17687D01*
X35058Y17683D01*
X35059Y17678D01*
X35059Y17676D01*
X35060Y17675D01*
Y17673D01*
Y17672D01*
Y17672D01*
Y17671D01*
Y17540D01*
X35063Y17542D01*
X35066Y17544D01*
X35069Y17546D01*
X35071Y17548D01*
X35073Y17550D01*
X35075Y17551D01*
X35076Y17552D01*
X35076Y17552D01*
X35079Y17555D01*
X35083Y17558D01*
X35087Y17562D01*
X35091Y17566D01*
X35099Y17575D01*
X35106Y17583D01*
X35110Y17587D01*
X35113Y17591D01*
X35116Y17595D01*
X35119Y17598D01*
X35121Y17600D01*
X35123Y17602D01*
X35124Y17603D01*
X35124Y17604D01*
X35130Y17611D01*
X35135Y17617D01*
X35140Y17623D01*
X35144Y17629D01*
X35148Y17634D01*
X35152Y17638D01*
X35155Y17642D01*
X35158Y17645D01*
X35161Y17649D01*
X35163Y17651D01*
X35165Y17653D01*
X35167Y17655D01*
X35168Y17657D01*
X35169Y17657D01*
X35169Y17658D01*
X35170Y17658D01*
X35175Y17664D01*
X35182Y17670D01*
X35189Y17675D01*
X35195Y17680D01*
X35198Y17682D01*
X35201Y17684D01*
X35203Y17686D01*
X35206Y17687D01*
X35207Y17688D01*
X35209Y17689D01*
X35209Y17690D01*
X35210Y17690D01*
X35215Y17693D01*
X35220Y17695D01*
X35225Y17697D01*
X35229Y17699D01*
X35234Y17701D01*
X35239Y17702D01*
X35243Y17703D01*
X35248Y17704D01*
X35252Y17704D01*
X35255Y17705D01*
X35259Y17705D01*
X35261Y17705D01*
X35264Y17706D01*
X35267D01*
X35274Y17705D01*
X35281Y17704D01*
X35288Y17703D01*
X35294Y17702D01*
X35296Y17701D01*
X35298Y17701D01*
X35300Y17700D01*
X35302Y17699D01*
X35303Y17699D01*
X35304Y17698D01*
X35305Y17698D01*
X35305D01*
X35312Y17695D01*
X35318Y17692D01*
X35324Y17688D01*
X35329Y17685D01*
X35332Y17682D01*
X35335Y17679D01*
X35337Y17678D01*
X35337Y17678D01*
X35338Y17677D01*
X35338Y17677D01*
X35343Y17672D01*
X35348Y17667D01*
X35352Y17662D01*
X35355Y17657D01*
X35357Y17652D01*
X35358Y17650D01*
X35359Y17649D01*
X35360Y17648D01*
X35360Y17647D01*
X35360Y17646D01*
Y17646D01*
X35363Y17641D01*
X35365Y17636D01*
X35367Y17624D01*
X35370Y17613D01*
X35370Y17608D01*
X35371Y17603D01*
X35371Y17598D01*
X35372Y17594D01*
X35372Y17590D01*
Y17586D01*
X35373Y17584D01*
Y17582D01*
Y17581D01*
Y17580D01*
X35372Y17568D01*
X35372Y17563D01*
X35371Y17558D01*
X35370Y17553D01*
X35370Y17548D01*
X35369Y17544D01*
X35368Y17540D01*
X35367Y17537D01*
X35366Y17533D01*
X35365Y17531D01*
X35365Y17528D01*
X35364Y17527D01*
X35363Y17525D01*
X35363Y17524D01*
Y17524D01*
X35359Y17516D01*
X35355Y17508D01*
X35351Y17501D01*
X35349Y17498D01*
X35347Y17496D01*
X35345Y17493D01*
X35343Y17491D01*
X35342Y17489D01*
X35340Y17488D01*
X35339Y17486D01*
X35339Y17486D01*
X35338Y17485D01*
X35338Y17485D01*
X35332Y17479D01*
X35326Y17475D01*
X35320Y17471D01*
X35315Y17467D01*
X35311Y17465D01*
X35309Y17464D01*
X35307Y17463D01*
X35306Y17462D01*
X35304Y17462D01*
X35304Y17461D01*
X35304D01*
X35297Y17459D01*
X35290Y17457D01*
X35284Y17455D01*
X35278Y17455D01*
X35274Y17454D01*
X35272Y17454D01*
X35270Y17454D01*
X35267D01*
X35262Y17454D01*
X35258Y17455D01*
X35254Y17456D01*
X35251Y17458D01*
X35248Y17459D01*
X35246Y17460D01*
X35245Y17462D01*
X35245Y17462D01*
X35242Y17465D01*
X35240Y17469D01*
X35238Y17472D01*
X35237Y17476D01*
X35237Y17478D01*
X35237Y17481D01*
X35236Y17482D01*
Y17483D01*
X35237Y17488D01*
X35238Y17492D01*
X35239Y17496D01*
X35241Y17499D01*
X35243Y17502D01*
X35244Y17503D01*
X35245Y17505D01*
X35245Y17505D01*
X35249Y17508D01*
X35253Y17510D01*
X35258Y17512D01*
X35262Y17514D01*
X35266Y17516D01*
X35269Y17517D01*
X35270Y17518D01*
X35271Y17518D01*
X35271Y17518D01*
X35271D01*
X35275Y17519D01*
X35277Y17520D01*
X35280Y17521D01*
X35282Y17522D01*
X35286Y17524D01*
X35288Y17525D01*
X35290Y17526D01*
X35291Y17526D01*
X35292Y17527D01*
X35292D01*
X35297Y17530D01*
X35302Y17534D01*
X35306Y17539D01*
X35309Y17543D01*
X35312Y17547D01*
X35314Y17551D01*
X35316Y17556D01*
X35318Y17560D01*
X35319Y17564D01*
X35320Y17567D01*
X35320Y17570D01*
X35321Y17573D01*
X35321Y17576D01*
X35321Y17577D01*
Y17578D01*
Y17579D01*
X35321Y17585D01*
X35320Y17590D01*
X35319Y17595D01*
X35318Y17599D01*
X35316Y17603D01*
X35315Y17605D01*
X35315Y17606D01*
X35314Y17607D01*
X35314Y17607D01*
Y17608D01*
X35311Y17612D01*
X35308Y17616D01*
X35305Y17620D01*
X35301Y17623D01*
X35299Y17626D01*
X35296Y17627D01*
X35295Y17628D01*
X35294Y17629D01*
X35294D01*
X35289Y17631D01*
X35284Y17633D01*
X35279Y17634D01*
X35275Y17636D01*
X35271Y17636D01*
X35268Y17636D01*
X35265D01*
X35260Y17636D01*
X35254Y17635D01*
X35249Y17634D01*
X35245Y17633D01*
X35241Y17631D01*
X35238Y17630D01*
X35237Y17630D01*
X35236Y17629D01*
X35235Y17629D01*
X35235D01*
X35229Y17626D01*
X35224Y17623D01*
X35219Y17619D01*
X35214Y17616D01*
X35210Y17613D01*
X35207Y17610D01*
X35206Y17609D01*
X35205Y17609D01*
X35205Y17608D01*
X35204Y17608D01*
X35199Y17603D01*
X35194Y17597D01*
X35189Y17591D01*
X35184Y17586D01*
X35181Y17581D01*
X35179Y17579D01*
X35178Y17577D01*
X35176Y17575D01*
X35176Y17574D01*
X35175Y17574D01*
X35175Y17573D01*
X35173Y17571D01*
X35171Y17568D01*
X35169Y17566D01*
X35167Y17562D01*
X35161Y17556D01*
X35156Y17550D01*
X35151Y17544D01*
X35148Y17541D01*
X35147Y17539D01*
X35145Y17537D01*
X35143Y17536D01*
X35143Y17535D01*
X35142Y17535D01*
X35133Y17524D01*
X35122Y17514D01*
X35112Y17504D01*
X35108Y17499D01*
X35103Y17495D01*
X35099Y17490D01*
X35095Y17486D01*
X35091Y17483D01*
X35088Y17480D01*
X35086Y17478D01*
X35084Y17476D01*
X35083Y17475D01*
X35083Y17474D01*
X35079Y17471D01*
X35075Y17468D01*
X35071Y17466D01*
X35068Y17464D01*
X35064Y17462D01*
X35061Y17460D01*
X35060Y17460D01*
X35060Y17460D01*
X35059Y17459D01*
X35059D01*
X35054Y17457D01*
X35049Y17455D01*
X35045Y17454D01*
X35041Y17454D01*
X35038Y17453D01*
X35037Y17453D01*
X35035D01*
X35030Y17453D01*
X35025Y17454D01*
X35021Y17456D01*
X35017Y17458D01*
X35014Y17460D01*
X35012Y17462D01*
X35011Y17463D01*
X35010Y17463D01*
X35007Y17468D01*
X35004Y17472D01*
X35002Y17477D01*
X35001Y17482D01*
X35001Y17486D01*
X35000Y17488D01*
Y17490D01*
X35000Y17491D01*
Y17492D01*
Y17493D01*
Y17493D01*
Y17679D01*
X35000Y17685D01*
X35001Y17690D01*
X35003Y17694D01*
X35004Y17697D01*
X35006Y17700D01*
X35007Y17702D01*
X35008Y17703D01*
X35008Y17703D01*
X35012Y17706D01*
X35015Y17708D01*
X35019Y17710D01*
X35022Y17711D01*
X35025Y17711D01*
X35027Y17712D01*
X35029D01*
X35034Y17711D01*
D02*
G37*
G36*
X35344Y16676D02*
X35348Y16675D01*
X35352Y16673D01*
X35355Y16671D01*
X35358Y16670D01*
X35360Y16668D01*
X35361Y16667D01*
X35361Y16667D01*
X35364Y16663D01*
X35366Y16658D01*
X35368Y16653D01*
X35369Y16649D01*
X35370Y16644D01*
X35370Y16642D01*
X35370Y16641D01*
Y16640D01*
Y16639D01*
Y16638D01*
Y16638D01*
Y16399D01*
X35370Y16393D01*
X35369Y16387D01*
X35367Y16382D01*
X35366Y16378D01*
X35364Y16375D01*
X35363Y16373D01*
X35362Y16372D01*
X35361Y16371D01*
X35358Y16368D01*
X35355Y16365D01*
X35351Y16364D01*
X35347Y16362D01*
X35344Y16362D01*
X35341Y16362D01*
X35340Y16361D01*
X35339D01*
X35334Y16362D01*
X35329Y16363D01*
X35325Y16364D01*
X35322Y16366D01*
X35320Y16368D01*
X35318Y16369D01*
X35317Y16370D01*
X35316Y16371D01*
X35314Y16375D01*
X35312Y16379D01*
X35310Y16384D01*
X35309Y16388D01*
X35309Y16393D01*
X35308Y16395D01*
Y16396D01*
X35308Y16397D01*
Y16398D01*
Y16399D01*
Y16399D01*
Y16481D01*
X35039D01*
X35031Y16482D01*
X35024Y16483D01*
X35018Y16485D01*
X35013Y16487D01*
X35009Y16488D01*
X35007Y16490D01*
X35005Y16491D01*
X35005Y16492D01*
X35001Y16496D01*
X34998Y16500D01*
X34996Y16505D01*
X34995Y16509D01*
X34994Y16513D01*
X34994Y16516D01*
X34994Y16517D01*
Y16518D01*
Y16518D01*
Y16519D01*
X34994Y16524D01*
X34995Y16530D01*
X34997Y16534D01*
X34999Y16538D01*
X35001Y16541D01*
X35003Y16544D01*
X35004Y16545D01*
X35005Y16546D01*
X35009Y16549D01*
X35015Y16552D01*
X35020Y16554D01*
X35026Y16555D01*
X35031Y16556D01*
X35034Y16556D01*
X35035D01*
X35037Y16556D01*
X35308D01*
Y16638D01*
X35308Y16644D01*
X35309Y16650D01*
X35311Y16655D01*
X35312Y16659D01*
X35314Y16662D01*
X35315Y16665D01*
X35316Y16666D01*
X35316Y16666D01*
X35320Y16670D01*
X35324Y16672D01*
X35327Y16674D01*
X35331Y16675D01*
X35334Y16675D01*
X35337Y16676D01*
X35338Y16676D01*
X35339D01*
X35344Y16676D01*
D02*
G37*
G36*
X35121Y15644D02*
X35130Y15643D01*
X35134Y15642D01*
X35138Y15641D01*
X35142Y15640D01*
X35145Y15639D01*
X35148Y15638D01*
X35151Y15637D01*
X35153Y15636D01*
X35155Y15636D01*
X35156Y15635D01*
X35157Y15634D01*
X35158Y15634D01*
X35158D01*
X35165Y15630D01*
X35171Y15625D01*
X35177Y15621D01*
X35181Y15616D01*
X35185Y15612D01*
X35188Y15609D01*
X35189Y15608D01*
X35190Y15607D01*
X35190Y15606D01*
X35190Y15606D01*
X35195Y15599D01*
X35199Y15592D01*
X35203Y15585D01*
X35206Y15578D01*
X35207Y15575D01*
X35208Y15572D01*
X35209Y15569D01*
X35210Y15567D01*
X35211Y15566D01*
X35211Y15564D01*
X35212Y15563D01*
Y15563D01*
X35215Y15553D01*
X35218Y15544D01*
X35221Y15534D01*
X35222Y15529D01*
X35223Y15525D01*
X35224Y15521D01*
X35225Y15518D01*
X35226Y15515D01*
X35227Y15512D01*
X35227Y15510D01*
X35228Y15508D01*
X35228Y15507D01*
Y15507D01*
X35229Y15502D01*
X35230Y15498D01*
X35231Y15494D01*
X35232Y15490D01*
X35233Y15487D01*
X35234Y15484D01*
X35234Y15481D01*
X35235Y15479D01*
X35236Y15477D01*
X35236Y15475D01*
X35237Y15474D01*
X35237Y15473D01*
X35237Y15471D01*
Y15470D01*
X35240Y15462D01*
X35242Y15459D01*
X35243Y15456D01*
X35245Y15453D01*
X35246Y15451D01*
X35246Y15449D01*
X35247Y15449D01*
X35249Y15445D01*
X35251Y15442D01*
X35253Y15439D01*
X35256Y15437D01*
X35258Y15435D01*
X35259Y15433D01*
X35260Y15433D01*
X35260Y15432D01*
X35264Y15430D01*
X35267Y15429D01*
X35270Y15428D01*
X35273Y15427D01*
X35276Y15427D01*
X35278Y15426D01*
X35280D01*
X35283Y15427D01*
X35286Y15427D01*
X35289Y15428D01*
X35292Y15429D01*
X35297Y15432D01*
X35302Y15435D01*
X35305Y15439D01*
X35308Y15441D01*
X35309Y15443D01*
X35310Y15443D01*
X35310Y15444D01*
X35310Y15444D01*
X35312Y15447D01*
X35315Y15451D01*
X35318Y15459D01*
X35320Y15467D01*
X35322Y15474D01*
X35322Y15478D01*
X35323Y15481D01*
X35323Y15484D01*
Y15486D01*
X35323Y15488D01*
Y15490D01*
Y15491D01*
Y15491D01*
Y15497D01*
X35323Y15502D01*
X35322Y15507D01*
X35321Y15511D01*
X35320Y15515D01*
X35319Y15519D01*
X35319Y15523D01*
X35317Y15525D01*
X35316Y15528D01*
X35315Y15530D01*
X35314Y15532D01*
X35313Y15534D01*
X35312Y15535D01*
X35312Y15536D01*
X35312Y15536D01*
X35311Y15536D01*
X35307Y15541D01*
X35301Y15546D01*
X35296Y15550D01*
X35291Y15554D01*
X35286Y15557D01*
X35284Y15558D01*
X35282Y15559D01*
X35281Y15560D01*
X35279Y15560D01*
X35279Y15561D01*
X35279D01*
X35274Y15564D01*
X35269Y15566D01*
X35266Y15569D01*
X35263Y15571D01*
X35260Y15573D01*
X35259Y15574D01*
X35258Y15575D01*
X35258Y15575D01*
X35255Y15578D01*
X35254Y15581D01*
X35253Y15584D01*
X35252Y15588D01*
X35252Y15590D01*
X35251Y15593D01*
Y15594D01*
Y15595D01*
Y15595D01*
X35252Y15600D01*
X35253Y15605D01*
X35255Y15608D01*
X35257Y15612D01*
X35258Y15615D01*
X35260Y15617D01*
X35261Y15618D01*
X35262Y15618D01*
X35266Y15621D01*
X35270Y15624D01*
X35274Y15626D01*
X35278Y15627D01*
X35281Y15627D01*
X35284Y15628D01*
X35286D01*
X35291Y15628D01*
X35297Y15627D01*
X35302Y15625D01*
X35306Y15624D01*
X35310Y15623D01*
X35313Y15621D01*
X35314Y15621D01*
X35315Y15621D01*
X35315Y15620D01*
X35316D01*
X35322Y15617D01*
X35327Y15613D01*
X35332Y15610D01*
X35336Y15605D01*
X35340Y15602D01*
X35343Y15599D01*
X35344Y15598D01*
X35345Y15597D01*
X35345Y15597D01*
X35345Y15596D01*
X35350Y15590D01*
X35355Y15583D01*
X35358Y15576D01*
X35362Y15569D01*
X35363Y15567D01*
X35365Y15564D01*
X35365Y15561D01*
X35366Y15559D01*
X35367Y15557D01*
X35368Y15556D01*
X35368Y15555D01*
Y15555D01*
X35371Y15545D01*
X35373Y15535D01*
X35374Y15526D01*
X35375Y15521D01*
X35375Y15516D01*
X35376Y15512D01*
X35376Y15508D01*
X35376Y15505D01*
X35376Y15502D01*
Y15500D01*
Y15498D01*
Y15497D01*
Y15496D01*
Y15489D01*
X35376Y15481D01*
X35375Y15474D01*
X35375Y15467D01*
X35373Y15460D01*
X35372Y15454D01*
X35371Y15448D01*
X35370Y15443D01*
X35369Y15438D01*
X35368Y15434D01*
X35366Y15431D01*
X35365Y15428D01*
X35365Y15425D01*
X35364Y15423D01*
X35364Y15422D01*
X35363Y15422D01*
X35361Y15416D01*
X35358Y15411D01*
X35355Y15406D01*
X35352Y15401D01*
X35349Y15397D01*
X35346Y15393D01*
X35343Y15389D01*
X35340Y15386D01*
X35338Y15383D01*
X35335Y15381D01*
X35333Y15379D01*
X35331Y15377D01*
X35329Y15375D01*
X35328Y15375D01*
X35327Y15374D01*
X35327Y15374D01*
X35322Y15371D01*
X35318Y15368D01*
X35313Y15366D01*
X35309Y15364D01*
X35304Y15363D01*
X35299Y15361D01*
X35291Y15359D01*
X35287Y15359D01*
X35284Y15358D01*
X35281Y15358D01*
X35278Y15357D01*
X35276Y15357D01*
X35273D01*
X35267Y15357D01*
X35261Y15358D01*
X35256Y15359D01*
X35251Y15360D01*
X35246Y15361D01*
X35242Y15362D01*
X35238Y15364D01*
X35234Y15365D01*
X35230Y15366D01*
X35228Y15368D01*
X35225Y15369D01*
X35223Y15370D01*
X35221Y15371D01*
X35220Y15372D01*
X35219Y15372D01*
X35219Y15373D01*
X35211Y15379D01*
X35205Y15386D01*
X35199Y15393D01*
X35194Y15400D01*
X35192Y15403D01*
X35190Y15406D01*
X35189Y15409D01*
X35187Y15411D01*
X35186Y15413D01*
X35186Y15414D01*
X35185Y15415D01*
X35185Y15415D01*
X35183Y15421D01*
X35181Y15426D01*
X35176Y15437D01*
X35173Y15448D01*
X35171Y15454D01*
X35170Y15459D01*
X35168Y15464D01*
X35167Y15468D01*
X35166Y15472D01*
X35165Y15475D01*
X35164Y15478D01*
X35164Y15480D01*
X35163Y15482D01*
Y15482D01*
X35162Y15488D01*
X35161Y15493D01*
X35160Y15498D01*
X35158Y15502D01*
X35157Y15507D01*
X35156Y15510D01*
X35155Y15514D01*
X35154Y15517D01*
X35153Y15520D01*
X35153Y15523D01*
X35152Y15525D01*
X35152Y15526D01*
X35151Y15528D01*
X35151Y15529D01*
X35150Y15529D01*
Y15530D01*
X35148Y15536D01*
X35145Y15542D01*
X35142Y15547D01*
X35139Y15551D01*
X35137Y15554D01*
X35135Y15557D01*
X35133Y15558D01*
X35133Y15559D01*
X35128Y15563D01*
X35123Y15566D01*
X35118Y15567D01*
X35114Y15569D01*
X35109Y15570D01*
X35108Y15570D01*
X35106D01*
X35105Y15570D01*
X35103D01*
X35099Y15570D01*
X35095Y15569D01*
X35091Y15568D01*
X35087Y15567D01*
X35081Y15564D01*
X35075Y15560D01*
X35073Y15558D01*
X35070Y15556D01*
X35069Y15554D01*
X35067Y15552D01*
X35066Y15551D01*
X35065Y15550D01*
X35065Y15549D01*
X35064Y15549D01*
X35061Y15545D01*
X35059Y15541D01*
X35057Y15536D01*
X35055Y15532D01*
X35053Y15523D01*
X35051Y15514D01*
X35050Y15510D01*
X35050Y15507D01*
X35049Y15503D01*
X35049Y15501D01*
X35049Y15498D01*
Y15497D01*
Y15495D01*
Y15495D01*
X35049Y15487D01*
X35050Y15479D01*
X35051Y15472D01*
X35052Y15469D01*
X35053Y15466D01*
X35053Y15464D01*
X35054Y15462D01*
X35055Y15460D01*
X35055Y15459D01*
X35056Y15457D01*
X35056Y15457D01*
X35056Y15456D01*
Y15456D01*
X35059Y15451D01*
X35063Y15446D01*
X35066Y15442D01*
X35069Y15439D01*
X35072Y15436D01*
X35074Y15434D01*
X35075Y15433D01*
X35076Y15433D01*
X35081Y15430D01*
X35086Y15427D01*
X35091Y15424D01*
X35095Y15422D01*
X35099Y15420D01*
X35101Y15420D01*
X35102Y15419D01*
X35104Y15418D01*
X35105Y15418D01*
X35105Y15418D01*
X35106D01*
X35111Y15415D01*
X35115Y15413D01*
X35119Y15411D01*
X35122Y15408D01*
X35125Y15407D01*
X35126Y15405D01*
X35127Y15404D01*
X35128Y15403D01*
X35130Y15400D01*
X35132Y15397D01*
X35134Y15394D01*
X35135Y15390D01*
X35135Y15388D01*
X35135Y15385D01*
Y15384D01*
Y15384D01*
Y15384D01*
X35135Y15378D01*
X35134Y15374D01*
X35132Y15369D01*
X35131Y15366D01*
X35129Y15363D01*
X35127Y15361D01*
X35126Y15360D01*
X35126Y15359D01*
X35122Y15356D01*
X35118Y15354D01*
X35114Y15352D01*
X35111Y15351D01*
X35107Y15351D01*
X35105Y15350D01*
X35103Y15350D01*
X35102D01*
X35098Y15350D01*
X35094Y15351D01*
X35089Y15351D01*
X35085Y15352D01*
X35077Y15355D01*
X35070Y15358D01*
X35066Y15359D01*
X35063Y15361D01*
X35060Y15362D01*
X35058Y15363D01*
X35057Y15364D01*
X35055Y15365D01*
X35054Y15366D01*
X35054Y15366D01*
X35045Y15372D01*
X35037Y15379D01*
X35034Y15382D01*
X35030Y15386D01*
X35027Y15389D01*
X35025Y15392D01*
X35022Y15395D01*
X35020Y15398D01*
X35018Y15400D01*
X35017Y15403D01*
X35016Y15404D01*
X35015Y15406D01*
X35014Y15407D01*
X35014Y15407D01*
X35011Y15414D01*
X35007Y15421D01*
X35005Y15428D01*
X35002Y15436D01*
X35000Y15443D01*
X34999Y15451D01*
X34997Y15458D01*
X34996Y15465D01*
X34995Y15472D01*
X34995Y15478D01*
X34994Y15483D01*
X34994Y15488D01*
Y15492D01*
X34994Y15495D01*
Y15496D01*
Y15497D01*
Y15497D01*
Y15497D01*
X34994Y15505D01*
X34994Y15514D01*
X34995Y15521D01*
X34996Y15529D01*
X34997Y15536D01*
X34998Y15542D01*
X35000Y15548D01*
X35001Y15554D01*
X35002Y15559D01*
X35004Y15563D01*
X35005Y15567D01*
X35006Y15570D01*
X35007Y15573D01*
X35008Y15575D01*
X35008Y15576D01*
X35009Y15576D01*
X35012Y15582D01*
X35015Y15588D01*
X35018Y15593D01*
X35022Y15598D01*
X35025Y15603D01*
X35029Y15607D01*
X35032Y15611D01*
X35035Y15614D01*
X35038Y15617D01*
X35041Y15620D01*
X35044Y15622D01*
X35046Y15623D01*
X35048Y15625D01*
X35049Y15626D01*
X35050Y15626D01*
X35050Y15627D01*
X35055Y15630D01*
X35061Y15633D01*
X35066Y15635D01*
X35071Y15637D01*
X35076Y15639D01*
X35081Y15640D01*
X35086Y15641D01*
X35091Y15642D01*
X35095Y15643D01*
X35099Y15643D01*
X35102Y15644D01*
X35105Y15644D01*
X35108Y15644D01*
X35111D01*
X35121Y15644D01*
D02*
G37*
G36*
X35034Y15993D02*
X35038Y15992D01*
X35042Y15990D01*
X35045Y15988D01*
X35048Y15987D01*
X35050Y15985D01*
X35051Y15984D01*
X35051Y15984D01*
X35054Y15980D01*
X35056Y15976D01*
X35058Y15972D01*
X35058Y15967D01*
X35059Y15963D01*
X35060Y15960D01*
Y15959D01*
Y15958D01*
Y15957D01*
Y15957D01*
Y15783D01*
X35165D01*
Y15938D01*
X35165Y15944D01*
X35166Y15949D01*
X35167Y15954D01*
X35169Y15957D01*
X35170Y15960D01*
X35171Y15962D01*
X35172Y15964D01*
X35173Y15964D01*
X35176Y15967D01*
X35179Y15969D01*
X35183Y15970D01*
X35186Y15971D01*
X35189Y15972D01*
X35191Y15972D01*
X35193D01*
X35198Y15972D01*
X35202Y15971D01*
X35205Y15969D01*
X35208Y15968D01*
X35211Y15966D01*
X35212Y15965D01*
X35213Y15964D01*
X35214Y15964D01*
X35216Y15960D01*
X35218Y15956D01*
X35219Y15952D01*
X35220Y15948D01*
X35221Y15944D01*
X35221Y15941D01*
Y15940D01*
Y15939D01*
Y15938D01*
Y15938D01*
Y15783D01*
X35312D01*
Y15951D01*
X35312Y15958D01*
X35313Y15963D01*
X35315Y15968D01*
X35316Y15971D01*
X35317Y15974D01*
X35319Y15976D01*
X35320Y15978D01*
X35320Y15978D01*
X35323Y15981D01*
X35327Y15983D01*
X35330Y15985D01*
X35333Y15986D01*
X35337Y15986D01*
X35339Y15987D01*
X35341D01*
X35346Y15987D01*
X35350Y15985D01*
X35353Y15984D01*
X35356Y15982D01*
X35359Y15981D01*
X35361Y15979D01*
X35362Y15978D01*
X35362Y15978D01*
X35365Y15974D01*
X35367Y15970D01*
X35368Y15966D01*
X35369Y15961D01*
X35370Y15957D01*
X35370Y15954D01*
Y15953D01*
Y15952D01*
Y15952D01*
Y15951D01*
Y15754D01*
X35370Y15748D01*
X35369Y15743D01*
X35369Y15738D01*
X35368Y15735D01*
X35367Y15732D01*
X35366Y15729D01*
X35366Y15728D01*
X35365Y15728D01*
X35363Y15724D01*
X35361Y15721D01*
X35358Y15718D01*
X35356Y15716D01*
X35354Y15715D01*
X35352Y15713D01*
X35351Y15713D01*
X35350Y15713D01*
X35346Y15711D01*
X35342Y15710D01*
X35338Y15709D01*
X35333Y15708D01*
X35330Y15708D01*
X35327Y15708D01*
X35041D01*
X35037Y15708D01*
X35034Y15709D01*
X35030Y15710D01*
X35027Y15710D01*
X35024Y15711D01*
X35022Y15712D01*
X35019Y15713D01*
X35017Y15714D01*
X35016Y15715D01*
X35013Y15717D01*
X35011Y15718D01*
X35011Y15718D01*
X35009Y15721D01*
X35007Y15723D01*
X35004Y15728D01*
X35003Y15734D01*
X35001Y15740D01*
X35001Y15745D01*
X35000Y15747D01*
Y15750D01*
X35000Y15751D01*
Y15752D01*
Y15753D01*
Y15754D01*
Y15957D01*
X35000Y15964D01*
X35001Y15969D01*
X35002Y15974D01*
X35004Y15977D01*
X35006Y15980D01*
X35007Y15982D01*
X35008Y15983D01*
X35008Y15984D01*
X35011Y15987D01*
X35015Y15989D01*
X35019Y15991D01*
X35022Y15992D01*
X35025Y15992D01*
X35027Y15993D01*
X35029D01*
X35034Y15993D01*
D02*
G37*
G36*
X35269Y16335D02*
X35278Y16334D01*
X35286Y16332D01*
X35289Y16331D01*
X35293Y16331D01*
X35296Y16330D01*
X35298Y16329D01*
X35301Y16328D01*
X35303Y16328D01*
X35304Y16327D01*
X35306Y16327D01*
X35306Y16326D01*
X35306D01*
X35314Y16323D01*
X35321Y16319D01*
X35327Y16315D01*
X35332Y16311D01*
X35337Y16307D01*
X35338Y16305D01*
X35340Y16304D01*
X35341Y16303D01*
X35342Y16302D01*
X35342Y16301D01*
X35342Y16301D01*
X35348Y16295D01*
X35352Y16288D01*
X35355Y16282D01*
X35358Y16275D01*
X35360Y16272D01*
X35361Y16270D01*
X35361Y16268D01*
X35362Y16266D01*
X35363Y16264D01*
X35363Y16263D01*
X35363Y16262D01*
Y16262D01*
X35365Y16257D01*
X35366Y16252D01*
X35366Y16247D01*
X35367Y16242D01*
X35368Y16231D01*
X35369Y16220D01*
X35370Y16216D01*
X35370Y16211D01*
Y16207D01*
X35370Y16203D01*
Y16200D01*
Y16198D01*
Y16197D01*
Y16196D01*
Y16100D01*
Y16096D01*
X35370Y16092D01*
X35369Y16088D01*
X35368Y16084D01*
X35368Y16081D01*
X35367Y16078D01*
X35366Y16075D01*
X35365Y16073D01*
X35364Y16071D01*
X35363Y16069D01*
X35362Y16067D01*
X35361Y16066D01*
X35360Y16065D01*
X35360Y16065D01*
X35359Y16064D01*
X35357Y16062D01*
X35355Y16060D01*
X35349Y16057D01*
X35343Y16056D01*
X35338Y16054D01*
X35332Y16053D01*
X35330Y16053D01*
X35328D01*
X35326Y16053D01*
X35039D01*
X35031Y16053D01*
X35024Y16054D01*
X35018Y16056D01*
X35014Y16058D01*
X35010Y16060D01*
X35007Y16061D01*
X35006Y16062D01*
X35005Y16063D01*
X35001Y16067D01*
X34998Y16072D01*
X34996Y16076D01*
X34995Y16080D01*
X34994Y16084D01*
X34994Y16087D01*
X34994Y16088D01*
Y16089D01*
Y16090D01*
Y16090D01*
X34994Y16096D01*
X34995Y16101D01*
X34997Y16106D01*
X34999Y16110D01*
X35001Y16113D01*
X35003Y16115D01*
X35004Y16116D01*
X35005Y16117D01*
X35010Y16120D01*
X35015Y16123D01*
X35021Y16125D01*
X35027Y16126D01*
X35032Y16127D01*
X35034Y16127D01*
X35036D01*
X35037Y16128D01*
X35144D01*
Y16196D01*
X35145Y16209D01*
X35146Y16221D01*
X35147Y16231D01*
X35149Y16242D01*
X35151Y16251D01*
X35153Y16259D01*
X35156Y16267D01*
X35159Y16274D01*
X35161Y16280D01*
X35164Y16285D01*
X35167Y16290D01*
X35169Y16293D01*
X35171Y16296D01*
X35172Y16298D01*
X35173Y16300D01*
X35173Y16300D01*
X35179Y16306D01*
X35185Y16312D01*
X35192Y16316D01*
X35199Y16320D01*
X35206Y16324D01*
X35213Y16326D01*
X35220Y16329D01*
X35227Y16331D01*
X35234Y16332D01*
X35240Y16333D01*
X35245Y16334D01*
X35250Y16334D01*
X35254Y16335D01*
X35257Y16335D01*
X35259D01*
X35269Y16335D01*
D02*
G37*
G36*
X35195Y18014D02*
X35208Y18013D01*
X35220Y18013D01*
X35232Y18011D01*
X35242Y18010D01*
X35252Y18008D01*
X35261Y18006D01*
X35269Y18004D01*
X35276Y18003D01*
X35282Y18001D01*
X35287Y17999D01*
X35291Y17998D01*
X35295Y17996D01*
X35297Y17996D01*
X35299Y17995D01*
X35299Y17995D01*
X35308Y17990D01*
X35315Y17986D01*
X35322Y17981D01*
X35325Y17979D01*
X35328Y17977D01*
X35331Y17975D01*
X35333Y17973D01*
X35335Y17972D01*
X35337Y17970D01*
X35338Y17969D01*
X35338Y17968D01*
X35339Y17968D01*
X35339Y17968D01*
X35345Y17962D01*
X35350Y17955D01*
X35354Y17949D01*
X35358Y17943D01*
X35361Y17938D01*
X35362Y17936D01*
X35363Y17934D01*
X35363Y17932D01*
X35364Y17931D01*
X35364Y17931D01*
Y17930D01*
X35367Y17922D01*
X35369Y17914D01*
X35371Y17906D01*
X35372Y17899D01*
X35372Y17896D01*
X35372Y17893D01*
X35373Y17890D01*
X35373Y17888D01*
Y17886D01*
Y17884D01*
Y17883D01*
Y17883D01*
X35373Y17876D01*
X35372Y17869D01*
X35371Y17862D01*
X35370Y17856D01*
X35368Y17850D01*
X35367Y17844D01*
X35365Y17839D01*
X35363Y17834D01*
X35361Y17830D01*
X35360Y17826D01*
X35358Y17823D01*
X35357Y17820D01*
X35355Y17818D01*
X35355Y17817D01*
X35354Y17816D01*
X35354Y17815D01*
X35350Y17810D01*
X35346Y17805D01*
X35342Y17801D01*
X35337Y17797D01*
X35332Y17793D01*
X35328Y17789D01*
X35323Y17786D01*
X35319Y17783D01*
X35315Y17781D01*
X35311Y17778D01*
X35307Y17777D01*
X35304Y17775D01*
X35302Y17774D01*
X35300Y17773D01*
X35299Y17773D01*
X35298Y17772D01*
X35290Y17769D01*
X35281Y17767D01*
X35272Y17765D01*
X35264Y17763D01*
X35260Y17762D01*
X35257Y17761D01*
X35253Y17761D01*
X35251Y17760D01*
X35249Y17760D01*
X35247Y17760D01*
X35246Y17760D01*
X35246D01*
X35234Y17758D01*
X35222Y17757D01*
X35211Y17757D01*
X35205D01*
X35200Y17756D01*
X35195Y17756D01*
X35191D01*
X35187Y17756D01*
X35177D01*
X35166Y17756D01*
X35156Y17756D01*
X35151Y17757D01*
X35147Y17757D01*
X35142Y17757D01*
X35138Y17758D01*
X35135Y17758D01*
X35132Y17758D01*
X35129Y17759D01*
X35127Y17759D01*
X35125Y17759D01*
X35123D01*
X35122Y17759D01*
X35122D01*
X35113Y17761D01*
X35104Y17763D01*
X35096Y17765D01*
X35093Y17765D01*
X35089Y17766D01*
X35086Y17767D01*
X35084Y17768D01*
X35081Y17769D01*
X35079Y17769D01*
X35078Y17770D01*
X35077Y17770D01*
X35076Y17771D01*
X35076D01*
X35069Y17774D01*
X35062Y17777D01*
X35056Y17781D01*
X35050Y17784D01*
X35045Y17788D01*
X35040Y17792D01*
X35035Y17796D01*
X35031Y17800D01*
X35028Y17803D01*
X35025Y17806D01*
X35022Y17809D01*
X35020Y17811D01*
X35018Y17814D01*
X35017Y17815D01*
X35016Y17816D01*
X35016Y17816D01*
X35012Y17822D01*
X35009Y17828D01*
X35006Y17834D01*
X35003Y17840D01*
X35001Y17846D01*
X34999Y17852D01*
X34998Y17857D01*
X34997Y17862D01*
X34996Y17867D01*
X34995Y17872D01*
X34995Y17875D01*
X34994Y17879D01*
Y17881D01*
X34994Y17884D01*
Y17885D01*
Y17885D01*
X34994Y17891D01*
X34995Y17898D01*
X34996Y17903D01*
X34997Y17909D01*
X34998Y17914D01*
X34999Y17919D01*
X35001Y17924D01*
X35002Y17928D01*
X35004Y17932D01*
X35005Y17936D01*
X35007Y17939D01*
X35008Y17941D01*
X35009Y17943D01*
X35010Y17945D01*
X35010Y17945D01*
X35010Y17946D01*
X35013Y17951D01*
X35017Y17955D01*
X35020Y17960D01*
X35024Y17964D01*
X35028Y17968D01*
X35032Y17972D01*
X35036Y17975D01*
X35039Y17978D01*
X35043Y17981D01*
X35046Y17983D01*
X35049Y17986D01*
X35051Y17987D01*
X35053Y17989D01*
X35055Y17990D01*
X35056Y17990D01*
X35056Y17990D01*
X35065Y17995D01*
X35075Y17999D01*
X35084Y18002D01*
X35088Y18004D01*
X35092Y18005D01*
X35096Y18006D01*
X35099Y18007D01*
X35102Y18007D01*
X35105Y18008D01*
X35107Y18008D01*
X35109Y18009D01*
X35110Y18009D01*
X35110D01*
X35122Y18011D01*
X35134Y18012D01*
X35146Y18013D01*
X35152Y18013D01*
X35157Y18014D01*
X35162D01*
X35167Y18014D01*
X35171D01*
X35175Y18014D01*
X35181D01*
X35195Y18014D01*
D02*
G37*
G36*
X35584Y16007D02*
X35589Y16006D01*
X35592Y16005D01*
X35595Y16003D01*
X35598Y16001D01*
X35600Y16000D01*
X35601Y15998D01*
X35601Y15998D01*
X35604Y15995D01*
X35606Y15990D01*
X35608Y15986D01*
X35608Y15982D01*
X35609Y15978D01*
X35610Y15975D01*
Y15973D01*
Y15972D01*
Y15972D01*
Y15972D01*
Y15797D01*
X35715D01*
Y15952D01*
X35715Y15959D01*
X35716Y15964D01*
X35717Y15968D01*
X35719Y15972D01*
X35720Y15975D01*
X35721Y15977D01*
X35722Y15978D01*
X35723Y15978D01*
X35726Y15981D01*
X35729Y15983D01*
X35733Y15985D01*
X35736Y15985D01*
X35739Y15986D01*
X35741Y15987D01*
X35743D01*
X35747Y15986D01*
X35752Y15985D01*
X35755Y15984D01*
X35758Y15982D01*
X35761Y15981D01*
X35762Y15979D01*
X35763Y15978D01*
X35764Y15978D01*
X35766Y15974D01*
X35768Y15970D01*
X35769Y15966D01*
X35770Y15962D01*
X35771Y15958D01*
X35771Y15955D01*
Y15954D01*
Y15953D01*
Y15953D01*
Y15952D01*
Y15797D01*
X35862D01*
Y15966D01*
X35862Y15972D01*
X35863Y15977D01*
X35865Y15982D01*
X35866Y15986D01*
X35867Y15989D01*
X35869Y15991D01*
X35870Y15992D01*
X35870Y15992D01*
X35873Y15995D01*
X35877Y15998D01*
X35880Y15999D01*
X35884Y16000D01*
X35887Y16001D01*
X35889Y16001D01*
X35891D01*
X35896Y16001D01*
X35900Y16000D01*
X35903Y15998D01*
X35906Y15997D01*
X35909Y15995D01*
X35911Y15994D01*
X35912Y15993D01*
X35912Y15992D01*
X35915Y15989D01*
X35917Y15985D01*
X35918Y15980D01*
X35919Y15976D01*
X35920Y15972D01*
X35920Y15969D01*
Y15967D01*
Y15967D01*
Y15966D01*
Y15966D01*
Y15768D01*
X35920Y15762D01*
X35919Y15757D01*
X35919Y15753D01*
X35918Y15749D01*
X35917Y15746D01*
X35916Y15744D01*
X35916Y15742D01*
X35915Y15742D01*
X35913Y15738D01*
X35911Y15735D01*
X35908Y15733D01*
X35906Y15731D01*
X35904Y15729D01*
X35902Y15728D01*
X35901Y15727D01*
X35900Y15727D01*
X35896Y15725D01*
X35892Y15724D01*
X35888Y15723D01*
X35884Y15723D01*
X35880Y15723D01*
X35877Y15722D01*
X35591D01*
X35587Y15723D01*
X35584Y15723D01*
X35580Y15724D01*
X35577Y15725D01*
X35574Y15726D01*
X35572Y15726D01*
X35569Y15728D01*
X35567Y15729D01*
X35566Y15729D01*
X35563Y15731D01*
X35561Y15732D01*
X35561Y15733D01*
X35559Y15735D01*
X35557Y15738D01*
X35554Y15743D01*
X35553Y15749D01*
X35551Y15754D01*
X35551Y15760D01*
X35550Y15762D01*
Y15764D01*
X35550Y15766D01*
Y15767D01*
Y15768D01*
Y15768D01*
Y15972D01*
X35550Y15978D01*
X35551Y15983D01*
X35552Y15988D01*
X35554Y15992D01*
X35556Y15995D01*
X35557Y15997D01*
X35558Y15998D01*
X35558Y15998D01*
X35561Y16001D01*
X35565Y16003D01*
X35569Y16005D01*
X35572Y16006D01*
X35575Y16007D01*
X35577Y16007D01*
X35579D01*
X35584Y16007D01*
D02*
G37*
G36*
X35896Y16366D02*
X35898Y16366D01*
X35901Y16365D01*
X35904Y16364D01*
X35906Y16363D01*
X35907Y16363D01*
X35908Y16362D01*
X35909Y16362D01*
X35911Y16360D01*
X35914Y16358D01*
X35916Y16356D01*
X35918Y16354D01*
X35920Y16352D01*
X35921Y16350D01*
X35921Y16349D01*
X35921Y16349D01*
X35923Y16346D01*
X35924Y16343D01*
X35925Y16340D01*
X35926Y16337D01*
X35926Y16335D01*
X35926Y16333D01*
Y16332D01*
Y16331D01*
X35926Y16326D01*
X35925Y16322D01*
X35924Y16319D01*
X35923Y16316D01*
X35922Y16313D01*
X35921Y16312D01*
X35920Y16311D01*
X35920Y16310D01*
X35918Y16308D01*
X35915Y16306D01*
X35913Y16304D01*
X35911Y16302D01*
X35909Y16301D01*
X35908Y16300D01*
X35906Y16300D01*
X35906Y16300D01*
X35905Y16299D01*
X35903Y16298D01*
X35899Y16296D01*
X35894Y16295D01*
X35890Y16293D01*
X35885Y16292D01*
X35882Y16291D01*
X35881Y16290D01*
X35880Y16290D01*
X35879Y16290D01*
X35879D01*
X35629Y16206D01*
X35877Y16122D01*
X35882Y16120D01*
X35886Y16119D01*
X35890Y16117D01*
X35894Y16116D01*
X35897Y16114D01*
X35900Y16113D01*
X35903Y16112D01*
X35905Y16110D01*
X35908Y16109D01*
X35910Y16108D01*
X35911Y16108D01*
X35912Y16107D01*
X35913Y16106D01*
X35914Y16106D01*
X35915Y16105D01*
X35917Y16104D01*
X35918Y16102D01*
X35921Y16098D01*
X35924Y16093D01*
X35925Y16089D01*
X35926Y16085D01*
X35926Y16082D01*
X35926Y16080D01*
Y16079D01*
Y16079D01*
Y16079D01*
X35926Y16073D01*
X35925Y16068D01*
X35923Y16063D01*
X35921Y16060D01*
X35919Y16057D01*
X35917Y16054D01*
X35916Y16053D01*
X35916Y16052D01*
X35911Y16049D01*
X35908Y16047D01*
X35903Y16045D01*
X35900Y16044D01*
X35897Y16043D01*
X35894Y16042D01*
X35893Y16042D01*
X35892D01*
X35888Y16042D01*
X35884Y16043D01*
X35882D01*
X35881Y16043D01*
X35880Y16044D01*
X35880D01*
X35874Y16045D01*
X35872Y16046D01*
X35870Y16046D01*
X35869Y16047D01*
X35867Y16047D01*
X35866Y16048D01*
X35866D01*
X35862Y16049D01*
X35859Y16050D01*
X35857Y16051D01*
X35856Y16052D01*
X35854Y16052D01*
X35854Y16052D01*
X35853D01*
X35613Y16141D01*
X35608Y16142D01*
X35603Y16144D01*
X35599Y16146D01*
X35595Y16147D01*
X35592Y16148D01*
X35589Y16149D01*
X35588Y16150D01*
X35587Y16150D01*
X35587D01*
X35583Y16152D01*
X35579Y16154D01*
X35575Y16156D01*
X35572Y16157D01*
X35569Y16159D01*
X35567Y16160D01*
X35566Y16161D01*
X35565Y16161D01*
X35562Y16164D01*
X35559Y16167D01*
X35556Y16169D01*
X35554Y16172D01*
X35552Y16175D01*
X35551Y16177D01*
X35550Y16178D01*
X35549Y16178D01*
X35547Y16182D01*
X35546Y16187D01*
X35545Y16191D01*
X35544Y16195D01*
X35544Y16199D01*
X35544Y16201D01*
Y16203D01*
Y16203D01*
Y16204D01*
Y16204D01*
X35544Y16209D01*
X35544Y16214D01*
X35546Y16219D01*
X35547Y16222D01*
X35548Y16225D01*
X35549Y16228D01*
X35549Y16229D01*
X35550Y16229D01*
X35552Y16233D01*
X35554Y16237D01*
X35557Y16239D01*
X35559Y16242D01*
X35562Y16244D01*
X35563Y16245D01*
X35565Y16246D01*
X35565Y16246D01*
X35572Y16251D01*
X35576Y16253D01*
X35580Y16254D01*
X35583Y16256D01*
X35585Y16257D01*
X35587Y16257D01*
X35587Y16257D01*
X35597Y16261D01*
X35601Y16262D01*
X35605Y16264D01*
X35608Y16265D01*
X35611Y16266D01*
X35612Y16266D01*
X35613Y16267D01*
X35613Y16267D01*
X35613D01*
X35855Y16357D01*
X35860Y16358D01*
X35862Y16359D01*
X35864Y16360D01*
X35866Y16360D01*
X35867Y16361D01*
X35868Y16361D01*
X35868D01*
X35873Y16363D01*
X35875Y16363D01*
X35877Y16364D01*
X35879Y16364D01*
X35880Y16365D01*
X35880Y16365D01*
X35881D01*
X35885Y16366D01*
X35887Y16366D01*
X35889D01*
X35890Y16367D01*
X35893D01*
X35896Y16366D01*
D02*
G37*
G36*
X35583Y16869D02*
X35589Y16867D01*
X35596Y16865D01*
X35602Y16863D01*
X35608Y16861D01*
X35611Y16860D01*
X35613Y16859D01*
X35615Y16859D01*
X35616Y16858D01*
X35617Y16858D01*
X35618Y16857D01*
X35856Y16761D01*
X35863Y16758D01*
X35869Y16756D01*
X35873Y16754D01*
X35877Y16753D01*
X35881Y16751D01*
X35883Y16751D01*
X35884Y16750D01*
X35885Y16750D01*
X35889Y16748D01*
X35893Y16746D01*
X35896Y16744D01*
X35899Y16742D01*
X35902Y16741D01*
X35903Y16740D01*
X35905Y16739D01*
X35905Y16739D01*
X35908Y16736D01*
X35911Y16733D01*
X35914Y16731D01*
X35916Y16728D01*
X35918Y16725D01*
X35919Y16723D01*
X35920Y16722D01*
X35920Y16722D01*
X35922Y16718D01*
X35924Y16713D01*
X35925Y16709D01*
X35926Y16705D01*
X35926Y16701D01*
X35926Y16698D01*
Y16697D01*
Y16696D01*
Y16696D01*
Y16696D01*
X35926Y16690D01*
X35926Y16685D01*
X35924Y16681D01*
X35923Y16677D01*
X35922Y16674D01*
X35921Y16672D01*
X35921Y16670D01*
X35920Y16670D01*
X35918Y16666D01*
X35915Y16663D01*
X35913Y16660D01*
X35910Y16657D01*
X35908Y16655D01*
X35906Y16654D01*
X35905Y16653D01*
X35905Y16653D01*
X35901Y16651D01*
X35897Y16648D01*
X35893Y16646D01*
X35889Y16644D01*
X35886Y16643D01*
X35883Y16642D01*
X35882Y16641D01*
X35881Y16641D01*
X35881Y16641D01*
X35881D01*
X35875Y16639D01*
X35871Y16637D01*
X35867Y16635D01*
X35863Y16634D01*
X35860Y16633D01*
X35858Y16632D01*
X35856Y16631D01*
X35856Y16631D01*
X35615Y16536D01*
X35610Y16534D01*
X35606Y16533D01*
X35602Y16531D01*
X35599Y16530D01*
X35596Y16529D01*
X35594Y16529D01*
X35593Y16528D01*
X35593D01*
X35587Y16527D01*
X35585Y16526D01*
X35582Y16526D01*
X35580D01*
X35579Y16526D01*
X35577D01*
X35573Y16526D01*
X35568Y16527D01*
X35564Y16529D01*
X35561Y16531D01*
X35558Y16533D01*
X35556Y16535D01*
X35554Y16536D01*
X35554Y16536D01*
X35551Y16541D01*
X35548Y16545D01*
X35546Y16549D01*
X35545Y16553D01*
X35544Y16556D01*
X35544Y16559D01*
X35544Y16560D01*
Y16561D01*
Y16561D01*
Y16561D01*
X35544Y16567D01*
X35545Y16572D01*
X35547Y16576D01*
X35549Y16580D01*
X35550Y16582D01*
X35552Y16584D01*
X35553Y16585D01*
X35553Y16585D01*
X35555Y16587D01*
X35558Y16588D01*
X35560Y16590D01*
X35563Y16591D01*
X35569Y16594D01*
X35576Y16597D01*
X35582Y16599D01*
X35584Y16600D01*
X35586Y16601D01*
X35588Y16602D01*
X35590Y16602D01*
X35590Y16603D01*
X35591D01*
X35638Y16621D01*
Y16771D01*
X35592Y16789D01*
X35585Y16791D01*
X35582Y16793D01*
X35579Y16794D01*
X35576Y16796D01*
X35574Y16796D01*
X35572Y16797D01*
X35572Y16797D01*
X35568Y16799D01*
X35565Y16801D01*
X35562Y16802D01*
X35559Y16804D01*
X35557Y16805D01*
X35556Y16806D01*
X35556Y16806D01*
X35555Y16806D01*
X35552Y16810D01*
X35549Y16813D01*
X35548Y16815D01*
X35547Y16816D01*
X35547Y16817D01*
X35547Y16817D01*
X35546Y16819D01*
X35545Y16822D01*
X35544Y16825D01*
X35544Y16827D01*
X35544Y16829D01*
X35544Y16831D01*
Y16832D01*
Y16832D01*
X35544Y16838D01*
X35545Y16843D01*
X35547Y16847D01*
X35549Y16851D01*
X35551Y16854D01*
X35552Y16856D01*
X35554Y16858D01*
X35554Y16858D01*
X35558Y16862D01*
X35562Y16865D01*
X35566Y16867D01*
X35570Y16868D01*
X35573Y16869D01*
X35575Y16869D01*
X35577Y16869D01*
X35580D01*
X35583Y16869D01*
D02*
G37*
G36*
X35577Y15657D02*
X35581Y15657D01*
X35585Y15655D01*
X35589Y15654D01*
X35593Y15652D01*
X35597Y15651D01*
X35598Y15651D01*
X35599Y15650D01*
X35599Y15650D01*
X35600D01*
X35607Y15647D01*
X35614Y15643D01*
X35621Y15639D01*
X35628Y15636D01*
X35631Y15634D01*
X35633Y15633D01*
X35636Y15631D01*
X35638Y15630D01*
X35639Y15629D01*
X35641Y15628D01*
X35641Y15628D01*
X35642Y15628D01*
X35650Y15622D01*
X35658Y15616D01*
X35666Y15611D01*
X35672Y15606D01*
X35675Y15604D01*
X35678Y15602D01*
X35680Y15600D01*
X35682Y15598D01*
X35684Y15597D01*
X35685Y15596D01*
X35685Y15595D01*
X35686Y15595D01*
X35693Y15588D01*
X35699Y15582D01*
X35705Y15575D01*
X35709Y15569D01*
X35713Y15564D01*
X35714Y15562D01*
X35715Y15561D01*
X35716Y15559D01*
X35716Y15558D01*
X35717Y15557D01*
Y15557D01*
X35719Y15566D01*
X35721Y15574D01*
X35724Y15581D01*
X35727Y15588D01*
X35730Y15595D01*
X35733Y15600D01*
X35736Y15606D01*
X35739Y15610D01*
X35741Y15615D01*
X35744Y15618D01*
X35746Y15621D01*
X35748Y15623D01*
X35750Y15625D01*
X35751Y15627D01*
X35752Y15628D01*
X35752Y15628D01*
X35757Y15632D01*
X35762Y15636D01*
X35767Y15639D01*
X35773Y15641D01*
X35779Y15644D01*
X35784Y15646D01*
X35789Y15647D01*
X35795Y15648D01*
X35800Y15649D01*
X35804Y15650D01*
X35808Y15651D01*
X35811Y15651D01*
X35815D01*
X35816Y15651D01*
X35818D01*
X35826Y15651D01*
X35833Y15650D01*
X35839Y15649D01*
X35845Y15648D01*
X35847Y15647D01*
X35850Y15646D01*
X35852Y15646D01*
X35853Y15645D01*
X35855Y15645D01*
X35856Y15644D01*
X35856Y15644D01*
X35856D01*
X35863Y15641D01*
X35869Y15638D01*
X35874Y15635D01*
X35879Y15631D01*
X35883Y15629D01*
X35886Y15626D01*
X35887Y15625D01*
X35888Y15625D01*
X35888Y15624D01*
X35888Y15624D01*
X35893Y15619D01*
X35897Y15613D01*
X35901Y15608D01*
X35904Y15604D01*
X35906Y15599D01*
X35907Y15598D01*
X35908Y15596D01*
X35908Y15595D01*
X35909Y15594D01*
X35909Y15593D01*
Y15593D01*
X35911Y15588D01*
X35913Y15582D01*
X35915Y15577D01*
X35916Y15572D01*
X35917Y15567D01*
X35917Y15566D01*
X35917Y15564D01*
X35918Y15562D01*
X35918Y15562D01*
Y15561D01*
Y15561D01*
X35919Y15554D01*
X35919Y15547D01*
X35920Y15539D01*
X35920Y15533D01*
Y15529D01*
X35920Y15527D01*
Y15524D01*
Y15522D01*
Y15520D01*
Y15519D01*
Y15518D01*
Y15518D01*
Y15396D01*
Y15391D01*
X35920Y15387D01*
X35919Y15384D01*
X35918Y15380D01*
X35918Y15377D01*
X35916Y15374D01*
X35916Y15372D01*
X35915Y15369D01*
X35913Y15367D01*
X35913Y15366D01*
X35911Y15363D01*
X35910Y15361D01*
X35909Y15361D01*
X35907Y15359D01*
X35904Y15357D01*
X35899Y15354D01*
X35893Y15353D01*
X35887Y15351D01*
X35882Y15351D01*
X35880Y15350D01*
X35878D01*
X35876Y15350D01*
X35589D01*
X35581Y15351D01*
X35574Y15352D01*
X35569Y15353D01*
X35564Y15355D01*
X35560Y15357D01*
X35557Y15358D01*
X35556Y15359D01*
X35555Y15360D01*
X35551Y15364D01*
X35548Y15368D01*
X35546Y15373D01*
X35545Y15377D01*
X35544Y15381D01*
X35544Y15384D01*
X35544Y15386D01*
Y15387D01*
Y15387D01*
Y15387D01*
X35544Y15393D01*
X35545Y15399D01*
X35547Y15403D01*
X35549Y15407D01*
X35551Y15410D01*
X35553Y15412D01*
X35554Y15414D01*
X35555Y15414D01*
X35557Y15416D01*
X35559Y15418D01*
X35565Y15420D01*
X35570Y15422D01*
X35576Y15423D01*
X35581Y15424D01*
X35584Y15425D01*
X35585D01*
X35587Y15425D01*
X35708D01*
Y15451D01*
X35708Y15458D01*
X35708Y15465D01*
X35707Y15470D01*
X35706Y15475D01*
X35705Y15479D01*
X35704Y15482D01*
X35703Y15483D01*
X35703Y15484D01*
X35703Y15484D01*
Y15484D01*
X35701Y15489D01*
X35698Y15493D01*
X35694Y15498D01*
X35691Y15502D01*
X35688Y15505D01*
X35685Y15508D01*
X35684Y15509D01*
X35684Y15510D01*
X35683D01*
X35680Y15512D01*
X35677Y15515D01*
X35671Y15520D01*
X35664Y15525D01*
X35657Y15529D01*
X35654Y15531D01*
X35651Y15533D01*
X35648Y15535D01*
X35646Y15536D01*
X35644Y15537D01*
X35643Y15538D01*
X35642Y15539D01*
X35641Y15539D01*
X35591Y15569D01*
X35585Y15573D01*
X35580Y15576D01*
X35575Y15579D01*
X35571Y15581D01*
X35568Y15583D01*
X35566Y15585D01*
X35565Y15585D01*
X35564Y15586D01*
X35561Y15588D01*
X35558Y15591D01*
X35556Y15593D01*
X35554Y15595D01*
X35552Y15597D01*
X35551Y15599D01*
X35550Y15600D01*
X35549Y15600D01*
X35547Y15604D01*
X35546Y15607D01*
X35545Y15611D01*
X35544Y15614D01*
X35544Y15617D01*
X35544Y15620D01*
Y15621D01*
Y15622D01*
X35544Y15626D01*
X35544Y15629D01*
X35545Y15632D01*
X35546Y15635D01*
X35546Y15637D01*
X35547Y15639D01*
X35547Y15640D01*
X35548Y15640D01*
X35549Y15643D01*
X35551Y15646D01*
X35553Y15648D01*
X35555Y15650D01*
X35557Y15651D01*
X35558Y15652D01*
X35559Y15653D01*
X35559Y15653D01*
X35562Y15655D01*
X35564Y15656D01*
X35567Y15657D01*
X35569Y15657D01*
X35571Y15657D01*
X35572Y15658D01*
X35574D01*
X35577Y15657D01*
D02*
G37*
%LPC*%
G36*
X35194Y17945D02*
X35178D01*
X35169Y17945D01*
X35161Y17944D01*
X35153Y17944D01*
X35147Y17944D01*
X35140Y17943D01*
X35134Y17943D01*
X35129Y17942D01*
X35124Y17942D01*
X35120Y17941D01*
X35116Y17941D01*
X35113Y17940D01*
X35111Y17940D01*
X35109Y17940D01*
X35108Y17939D01*
X35107D01*
X35102Y17938D01*
X35097Y17937D01*
X35092Y17936D01*
X35088Y17934D01*
X35084Y17933D01*
X35080Y17931D01*
X35076Y17930D01*
X35073Y17928D01*
X35071Y17927D01*
X35068Y17925D01*
X35066Y17924D01*
X35065Y17923D01*
X35063Y17922D01*
X35062Y17921D01*
X35062Y17921D01*
X35061Y17921D01*
X35059Y17918D01*
X35056Y17916D01*
X35054Y17913D01*
X35052Y17910D01*
X35051Y17907D01*
X35049Y17904D01*
X35047Y17898D01*
X35046Y17893D01*
X35046Y17891D01*
X35046Y17889D01*
X35045Y17887D01*
Y17886D01*
Y17885D01*
Y17885D01*
X35046Y17881D01*
X35046Y17877D01*
X35048Y17870D01*
X35050Y17863D01*
X35053Y17859D01*
X35056Y17854D01*
X35057Y17853D01*
X35058Y17852D01*
X35060Y17850D01*
X35060Y17850D01*
X35061Y17849D01*
X35061Y17849D01*
X35064Y17847D01*
X35067Y17845D01*
X35075Y17841D01*
X35082Y17837D01*
X35090Y17835D01*
X35093Y17834D01*
X35096Y17833D01*
X35099Y17832D01*
X35102Y17832D01*
X35104Y17831D01*
X35105Y17831D01*
X35106Y17831D01*
X35107D01*
X35112Y17830D01*
X35119Y17829D01*
X35132Y17827D01*
X35145Y17826D01*
X35151Y17826D01*
X35157Y17826D01*
X35163Y17826D01*
X35168Y17825D01*
X35173D01*
X35176Y17825D01*
X35184D01*
X35197Y17825D01*
X35209Y17826D01*
X35220Y17826D01*
X35230Y17827D01*
X35239Y17828D01*
X35248Y17829D01*
X35255Y17830D01*
X35262Y17831D01*
X35268Y17832D01*
X35273Y17834D01*
X35278Y17835D01*
X35281Y17836D01*
X35284Y17837D01*
X35286Y17837D01*
X35288Y17838D01*
X35288D01*
X35294Y17840D01*
X35299Y17844D01*
X35304Y17847D01*
X35307Y17850D01*
X35311Y17854D01*
X35313Y17858D01*
X35315Y17862D01*
X35317Y17866D01*
X35319Y17870D01*
X35320Y17873D01*
X35320Y17876D01*
X35321Y17879D01*
X35321Y17881D01*
X35322Y17883D01*
Y17884D01*
Y17884D01*
X35321Y17888D01*
X35321Y17893D01*
X35319Y17900D01*
X35317Y17906D01*
X35314Y17911D01*
X35312Y17913D01*
X35311Y17915D01*
X35310Y17917D01*
X35309Y17918D01*
X35308Y17919D01*
X35307Y17920D01*
X35307Y17920D01*
X35306Y17921D01*
X35303Y17923D01*
X35300Y17925D01*
X35293Y17929D01*
X35286Y17932D01*
X35279Y17935D01*
X35275Y17936D01*
X35272Y17937D01*
X35269Y17937D01*
X35267Y17938D01*
X35265Y17939D01*
X35263Y17939D01*
X35262Y17939D01*
X35262D01*
X35256Y17940D01*
X35250Y17941D01*
X35238Y17942D01*
X35225Y17944D01*
X35219Y17944D01*
X35213Y17944D01*
X35208Y17944D01*
X35202Y17945D01*
X35198D01*
X35194Y17945D01*
D02*
G37*
G36*
X35695Y16751D02*
Y16640D01*
X35847Y16695D01*
X35695Y16751D01*
D02*
G37*
G36*
X35194Y17331D02*
X35178D01*
X35169Y17330D01*
X35161Y17330D01*
X35153Y17330D01*
X35147Y17329D01*
X35140Y17329D01*
X35134Y17328D01*
X35129Y17328D01*
X35124Y17327D01*
X35120Y17327D01*
X35116Y17326D01*
X35113Y17326D01*
X35111Y17326D01*
X35109Y17325D01*
X35108Y17325D01*
X35107D01*
X35102Y17324D01*
X35097Y17323D01*
X35092Y17321D01*
X35088Y17320D01*
X35084Y17318D01*
X35080Y17317D01*
X35076Y17315D01*
X35073Y17314D01*
X35071Y17312D01*
X35068Y17311D01*
X35066Y17310D01*
X35065Y17309D01*
X35063Y17308D01*
X35062Y17307D01*
X35062Y17307D01*
X35061Y17306D01*
X35059Y17304D01*
X35056Y17301D01*
X35054Y17298D01*
X35052Y17295D01*
X35051Y17292D01*
X35049Y17289D01*
X35047Y17283D01*
X35046Y17278D01*
X35046Y17276D01*
X35046Y17274D01*
X35045Y17273D01*
Y17272D01*
Y17271D01*
Y17270D01*
X35046Y17266D01*
X35046Y17262D01*
X35048Y17255D01*
X35050Y17249D01*
X35053Y17244D01*
X35056Y17240D01*
X35057Y17238D01*
X35058Y17237D01*
X35060Y17236D01*
X35060Y17235D01*
X35061Y17235D01*
X35061Y17235D01*
X35064Y17232D01*
X35067Y17230D01*
X35075Y17226D01*
X35082Y17223D01*
X35090Y17221D01*
X35093Y17219D01*
X35096Y17219D01*
X35099Y17218D01*
X35102Y17217D01*
X35104Y17217D01*
X35105Y17216D01*
X35106Y17216D01*
X35107D01*
X35112Y17215D01*
X35119Y17214D01*
X35132Y17213D01*
X35145Y17212D01*
X35151Y17212D01*
X35157Y17211D01*
X35163Y17211D01*
X35168Y17211D01*
X35173D01*
X35176Y17211D01*
X35184D01*
X35197Y17211D01*
X35209Y17211D01*
X35220Y17212D01*
X35230Y17213D01*
X35239Y17214D01*
X35248Y17215D01*
X35255Y17216D01*
X35262Y17217D01*
X35268Y17218D01*
X35273Y17219D01*
X35278Y17220D01*
X35281Y17221D01*
X35284Y17222D01*
X35286Y17223D01*
X35288Y17223D01*
X35288D01*
X35294Y17226D01*
X35299Y17229D01*
X35304Y17232D01*
X35307Y17236D01*
X35311Y17240D01*
X35313Y17244D01*
X35315Y17248D01*
X35317Y17252D01*
X35319Y17255D01*
X35320Y17259D01*
X35320Y17262D01*
X35321Y17264D01*
X35321Y17267D01*
X35322Y17269D01*
Y17270D01*
Y17270D01*
X35321Y17274D01*
X35321Y17278D01*
X35319Y17285D01*
X35317Y17291D01*
X35314Y17297D01*
X35312Y17299D01*
X35311Y17301D01*
X35310Y17303D01*
X35309Y17304D01*
X35308Y17305D01*
X35307Y17306D01*
X35307Y17306D01*
X35306Y17306D01*
X35303Y17309D01*
X35300Y17311D01*
X35293Y17314D01*
X35286Y17318D01*
X35279Y17320D01*
X35275Y17321D01*
X35272Y17322D01*
X35269Y17323D01*
X35267Y17324D01*
X35265Y17324D01*
X35263Y17324D01*
X35262Y17325D01*
X35262D01*
X35256Y17326D01*
X35250Y17327D01*
X35238Y17328D01*
X35225Y17329D01*
X35219Y17329D01*
X35213Y17330D01*
X35208Y17330D01*
X35202Y17330D01*
X35198D01*
X35194Y17331D01*
D02*
G37*
G36*
X35816Y15575D02*
X35813D01*
X35807Y15575D01*
X35800Y15574D01*
X35795Y15572D01*
X35790Y15570D01*
X35787Y15569D01*
X35785Y15567D01*
X35783Y15566D01*
X35782Y15566D01*
X35779Y15562D01*
X35775Y15557D01*
X35772Y15552D01*
X35770Y15548D01*
X35769Y15544D01*
X35767Y15540D01*
X35767Y15539D01*
X35767Y15538D01*
X35767Y15538D01*
Y15537D01*
X35765Y15530D01*
X35764Y15523D01*
X35763Y15515D01*
X35763Y15508D01*
X35762Y15504D01*
Y15502D01*
Y15499D01*
X35762Y15496D01*
Y15495D01*
Y15493D01*
Y15492D01*
Y15492D01*
Y15425D01*
X35864D01*
Y15494D01*
Y15501D01*
X35864Y15507D01*
X35863Y15513D01*
X35863Y15518D01*
X35862Y15523D01*
X35862Y15527D01*
X35861Y15531D01*
X35861Y15534D01*
X35861Y15537D01*
X35860Y15540D01*
X35859Y15542D01*
X35859Y15543D01*
X35859Y15544D01*
X35858Y15545D01*
X35858Y15546D01*
Y15546D01*
X35856Y15551D01*
X35853Y15555D01*
X35850Y15559D01*
X35847Y15562D01*
X35845Y15564D01*
X35843Y15566D01*
X35841Y15567D01*
X35841Y15567D01*
X35841D01*
X35836Y15570D01*
X35831Y15572D01*
X35827Y15574D01*
X35823Y15574D01*
X35819Y15575D01*
X35816Y15575D01*
D02*
G37*
G36*
X35260Y16259D02*
X35257D01*
X35250Y16259D01*
X35244Y16258D01*
X35238Y16256D01*
X35233Y16254D01*
X35229Y16253D01*
X35227Y16251D01*
X35226Y16251D01*
X35225Y16250D01*
X35225Y16250D01*
X35224D01*
X35220Y16246D01*
X35216Y16241D01*
X35213Y16237D01*
X35211Y16233D01*
X35209Y16228D01*
X35207Y16225D01*
X35207Y16224D01*
X35207Y16223D01*
X35206Y16223D01*
Y16222D01*
X35204Y16215D01*
X35203Y16208D01*
X35202Y16200D01*
X35202Y16193D01*
X35201Y16190D01*
X35201Y16187D01*
Y16185D01*
X35201Y16182D01*
Y16180D01*
Y16179D01*
Y16178D01*
Y16178D01*
Y16128D01*
X35314D01*
Y16178D01*
X35314Y16187D01*
X35313Y16195D01*
X35312Y16203D01*
X35311Y16210D01*
X35310Y16216D01*
X35309Y16221D01*
X35307Y16226D01*
X35306Y16230D01*
X35304Y16234D01*
X35302Y16237D01*
X35301Y16239D01*
X35300Y16241D01*
X35299Y16242D01*
X35298Y16244D01*
X35297Y16244D01*
X35297Y16244D01*
X35294Y16247D01*
X35291Y16249D01*
X35288Y16251D01*
X35284Y16253D01*
X35278Y16256D01*
X35271Y16257D01*
X35269Y16258D01*
X35266Y16258D01*
X35263Y16259D01*
X35261Y16259D01*
X35260Y16259D01*
D02*
G37*
%LPD*%
M02*
