G04 Layer_Color=8150272*
%FSLAX24Y24*%
%MOIN*%
G70*
G01*
G75*
%ADD27R,0.0671X0.0671*%
%ADD28C,0.0671*%
%ADD29R,0.0630X0.0630*%
%ADD30C,0.0630*%
%ADD31C,0.0828*%
%ADD32C,0.2049*%
%ADD33C,0.0670*%
%ADD34C,0.0671*%
%ADD35R,0.0671X0.0671*%
%ADD36C,0.0680*%
%ADD37R,0.0680X0.0680*%
D27*
X29000Y22700D02*
D03*
D28*
X28000D02*
D03*
X27000D02*
D03*
X26000D02*
D03*
X25000D02*
D03*
X24000D02*
D03*
X23000D02*
D03*
X22000D02*
D03*
X21000D02*
D03*
X20000D02*
D03*
X29000Y19700D02*
D03*
X28000D02*
D03*
X27000D02*
D03*
X26000D02*
D03*
X25000D02*
D03*
X24000D02*
D03*
X23000D02*
D03*
X22000D02*
D03*
X21000D02*
D03*
X20000D02*
D03*
D29*
X30000Y17100D02*
D03*
D30*
X29000D02*
D03*
X28000D02*
D03*
X27000D02*
D03*
X26000D02*
D03*
X25000D02*
D03*
X24000D02*
D03*
X23000D02*
D03*
X22000D02*
D03*
D31*
X33118Y22819D02*
D03*
Y21728D02*
D03*
Y20638D02*
D03*
X32000Y23362D02*
D03*
Y22272D02*
D03*
Y21181D02*
D03*
Y20091D02*
D03*
X33118Y19547D02*
D03*
X32000Y19000D02*
D03*
X15882Y19543D02*
D03*
Y20634D02*
D03*
Y21724D02*
D03*
X17000Y19000D02*
D03*
Y20091D02*
D03*
Y21181D02*
D03*
Y22272D02*
D03*
X15882Y22815D02*
D03*
X17000Y23362D02*
D03*
D32*
X32500Y26101D02*
D03*
X32551Y16261D02*
D03*
X16500Y16261D02*
D03*
X16449Y26101D02*
D03*
D33*
X24032Y18500D02*
D03*
X26000D02*
D03*
X25031Y23900D02*
D03*
X27000D02*
D03*
D34*
X20000Y23900D02*
D03*
Y24900D02*
D03*
X21000Y23900D02*
D03*
Y24900D02*
D03*
X22000Y23900D02*
D03*
D35*
Y24900D02*
D03*
D36*
X29600Y25684D02*
D03*
D37*
Y24700D02*
D03*
M02*
