G04 Layer_Physical_Order=2*
G04 Layer_Color=11436288*
%FSLAX24Y24*%
%MOIN*%
G70*
G01*
G75*
%ADD10C,0.0200*%
%ADD11C,0.0100*%
%ADD12R,0.0591X0.0591*%
%ADD13C,0.0591*%
%ADD14R,0.0550X0.0550*%
%ADD15C,0.0550*%
%ADD16C,0.0748*%
%ADD17C,0.1969*%
%ADD18C,0.0590*%
%ADD19C,0.0591*%
%ADD20R,0.0591X0.0591*%
%ADD21C,0.0600*%
%ADD22R,0.0600X0.0600*%
G36*
X36000Y15300D02*
X33150D01*
X33136Y15348D01*
X33190Y15381D01*
X33320Y15492D01*
X33431Y15622D01*
X33520Y15767D01*
X33586Y15925D01*
X33625Y16091D01*
X33635Y16211D01*
X31468D01*
X31477Y16091D01*
X31517Y15925D01*
X31582Y15767D01*
X31671Y15622D01*
X31782Y15492D01*
X31912Y15381D01*
X31966Y15348D01*
X31952Y15300D01*
X17099D01*
X17085Y15348D01*
X17139Y15381D01*
X17269Y15492D01*
X17380Y15622D01*
X17469Y15767D01*
X17534Y15925D01*
X17574Y16091D01*
X17584Y16211D01*
X15416D01*
X15426Y16091D01*
X15466Y15925D01*
X15531Y15767D01*
X15620Y15622D01*
X15731Y15492D01*
X15861Y15381D01*
X15915Y15348D01*
X15901Y15300D01*
X13000D01*
Y27100D01*
X15908D01*
X15922Y27050D01*
X15810Y26981D01*
X15680Y26870D01*
X15569Y26740D01*
X15480Y26595D01*
X15414Y26437D01*
X15375Y26271D01*
X15365Y26151D01*
X17532D01*
X17523Y26271D01*
X17483Y26437D01*
X17418Y26595D01*
X17329Y26740D01*
X17218Y26870D01*
X17088Y26981D01*
X16975Y27050D01*
X16990Y27100D01*
X31959D01*
X31973Y27050D01*
X31861Y26981D01*
X31731Y26870D01*
X31620Y26740D01*
X31531Y26595D01*
X31466Y26437D01*
X31426Y26271D01*
X31416Y26151D01*
X33584D01*
X33574Y26271D01*
X33534Y26437D01*
X33469Y26595D01*
X33380Y26740D01*
X33269Y26870D01*
X33139Y26981D01*
X33027Y27050D01*
X33041Y27100D01*
X36000D01*
Y15300D01*
D02*
G37*
%LPC*%
G36*
X28000Y20099D02*
X27897Y20085D01*
X27801Y20045D01*
X27718Y19982D01*
X27655Y19899D01*
X27615Y19803D01*
X27601Y19700D01*
X27615Y19597D01*
X27655Y19501D01*
X27718Y19418D01*
X27801Y19355D01*
X27897Y19315D01*
X28000Y19301D01*
X28103Y19315D01*
X28199Y19355D01*
X28282Y19418D01*
X28345Y19501D01*
X28385Y19597D01*
X28399Y19700D01*
X28385Y19803D01*
X28345Y19899D01*
X28282Y19982D01*
X28199Y20045D01*
X28103Y20085D01*
X28000Y20099D01*
D02*
G37*
G36*
X27000D02*
X26897Y20085D01*
X26801Y20045D01*
X26718Y19982D01*
X26655Y19899D01*
X26615Y19803D01*
X26601Y19700D01*
X26615Y19597D01*
X26655Y19501D01*
X26718Y19418D01*
X26801Y19355D01*
X26897Y19315D01*
X27000Y19301D01*
X27103Y19315D01*
X27199Y19355D01*
X27282Y19418D01*
X27345Y19501D01*
X27385Y19597D01*
X27399Y19700D01*
X27385Y19803D01*
X27345Y19899D01*
X27282Y19982D01*
X27199Y20045D01*
X27103Y20085D01*
X27000Y20099D01*
D02*
G37*
G36*
X24950Y19650D02*
X24608D01*
X24615Y19597D01*
X24655Y19501D01*
X24718Y19418D01*
X24801Y19355D01*
X24897Y19315D01*
X24950Y19308D01*
Y19650D01*
D02*
G37*
G36*
X29000Y20099D02*
X28897Y20085D01*
X28801Y20045D01*
X28718Y19982D01*
X28655Y19899D01*
X28615Y19803D01*
X28601Y19700D01*
X28615Y19597D01*
X28655Y19501D01*
X28718Y19418D01*
X28801Y19355D01*
X28897Y19315D01*
X29000Y19301D01*
X29103Y19315D01*
X29199Y19355D01*
X29282Y19418D01*
X29345Y19501D01*
X29385Y19597D01*
X29399Y19700D01*
X29385Y19803D01*
X29345Y19899D01*
X29282Y19982D01*
X29199Y20045D01*
X29103Y20085D01*
X29000Y20099D01*
D02*
G37*
G36*
X22000D02*
X21897Y20085D01*
X21801Y20045D01*
X21718Y19982D01*
X21655Y19899D01*
X21615Y19803D01*
X21601Y19700D01*
X21615Y19597D01*
X21655Y19501D01*
X21718Y19418D01*
X21801Y19355D01*
X21897Y19315D01*
X22000Y19301D01*
X22103Y19315D01*
X22199Y19355D01*
X22282Y19418D01*
X22345Y19501D01*
X22385Y19597D01*
X22399Y19700D01*
X22385Y19803D01*
X22345Y19899D01*
X22282Y19982D01*
X22199Y20045D01*
X22103Y20085D01*
X22000Y20099D01*
D02*
G37*
G36*
X21000D02*
X20897Y20085D01*
X20801Y20045D01*
X20718Y19982D01*
X20655Y19899D01*
X20615Y19803D01*
X20601Y19700D01*
X20615Y19597D01*
X20655Y19501D01*
X20718Y19418D01*
X20801Y19355D01*
X20897Y19315D01*
X21000Y19301D01*
X21103Y19315D01*
X21199Y19355D01*
X21282Y19418D01*
X21345Y19501D01*
X21385Y19597D01*
X21399Y19700D01*
X21385Y19803D01*
X21345Y19899D01*
X21282Y19982D01*
X21199Y20045D01*
X21103Y20085D01*
X21000Y20099D01*
D02*
G37*
G36*
X26000D02*
X25897Y20085D01*
X25801Y20045D01*
X25718Y19982D01*
X25655Y19899D01*
X25615Y19803D01*
X25601Y19700D01*
X25615Y19597D01*
X25655Y19501D01*
X25718Y19418D01*
X25801Y19355D01*
X25897Y19315D01*
X26000Y19301D01*
X26103Y19315D01*
X26199Y19355D01*
X26282Y19418D01*
X26345Y19501D01*
X26385Y19597D01*
X26399Y19700D01*
X26385Y19803D01*
X26345Y19899D01*
X26282Y19982D01*
X26199Y20045D01*
X26103Y20085D01*
X26000Y20099D01*
D02*
G37*
G36*
X23000D02*
X22897Y20085D01*
X22801Y20045D01*
X22718Y19982D01*
X22655Y19899D01*
X22615Y19803D01*
X22601Y19700D01*
X22615Y19597D01*
X22655Y19501D01*
X22718Y19418D01*
X22801Y19355D01*
X22897Y19315D01*
X23000Y19301D01*
X23103Y19315D01*
X23199Y19355D01*
X23282Y19418D01*
X23345Y19501D01*
X23385Y19597D01*
X23399Y19700D01*
X23385Y19803D01*
X23345Y19899D01*
X23282Y19982D01*
X23199Y20045D01*
X23103Y20085D01*
X23000Y20099D01*
D02*
G37*
G36*
X15832Y20584D02*
X15410D01*
X15420Y20510D01*
X15468Y20395D01*
X15544Y20296D01*
X15643Y20220D01*
X15758Y20172D01*
X15832Y20162D01*
Y20584D01*
D02*
G37*
G36*
X25050Y20092D02*
Y19750D01*
X25392D01*
X25385Y19803D01*
X25345Y19899D01*
X25282Y19982D01*
X25199Y20045D01*
X25103Y20085D01*
X25050Y20092D01*
D02*
G37*
G36*
X33068Y20588D02*
X32647D01*
X32656Y20514D01*
X32704Y20399D01*
X32780Y20300D01*
X32879Y20224D01*
X32994Y20176D01*
X33068Y20166D01*
Y20588D01*
D02*
G37*
G36*
X16353Y20584D02*
X15932D01*
Y20162D01*
X16006Y20172D01*
X16121Y20220D01*
X16220Y20296D01*
X16296Y20395D01*
X16344Y20510D01*
X16353Y20584D01*
D02*
G37*
G36*
X17000Y20569D02*
X16876Y20552D01*
X16761Y20505D01*
X16662Y20429D01*
X16586Y20330D01*
X16538Y20214D01*
X16522Y20091D01*
X16538Y19967D01*
X16586Y19851D01*
X16662Y19752D01*
X16761Y19676D01*
X16876Y19629D01*
X17000Y19612D01*
X17124Y19629D01*
X17239Y19676D01*
X17338Y19752D01*
X17414Y19851D01*
X17462Y19967D01*
X17478Y20091D01*
X17462Y20214D01*
X17414Y20330D01*
X17338Y20429D01*
X17239Y20505D01*
X17124Y20552D01*
X17000Y20569D01*
D02*
G37*
G36*
X25392Y19650D02*
X25050D01*
Y19308D01*
X25103Y19315D01*
X25199Y19355D01*
X25282Y19418D01*
X25345Y19501D01*
X25385Y19597D01*
X25392Y19650D01*
D02*
G37*
G36*
X24950Y20092D02*
X24897Y20085D01*
X24801Y20045D01*
X24718Y19982D01*
X24655Y19899D01*
X24615Y19803D01*
X24608Y19750D01*
X24950D01*
Y20092D01*
D02*
G37*
G36*
X32000Y20569D02*
X31876Y20552D01*
X31761Y20505D01*
X31662Y20429D01*
X31586Y20330D01*
X31538Y20214D01*
X31522Y20091D01*
X31538Y19967D01*
X31586Y19851D01*
X31662Y19752D01*
X31761Y19677D01*
X31876Y19629D01*
X32000Y19612D01*
X32124Y19629D01*
X32239Y19677D01*
X32338Y19752D01*
X32414Y19851D01*
X32462Y19967D01*
X32478Y20091D01*
X32462Y20214D01*
X32414Y20330D01*
X32338Y20429D01*
X32239Y20505D01*
X32124Y20552D01*
X32000Y20569D01*
D02*
G37*
G36*
X33118Y20025D02*
X32994Y20009D01*
X32879Y19961D01*
X32780Y19885D01*
X32704Y19786D01*
X32656Y19671D01*
X32640Y19547D01*
X32656Y19424D01*
X32704Y19308D01*
X32780Y19209D01*
X32879Y19133D01*
X32994Y19085D01*
X33118Y19069D01*
X33242Y19085D01*
X33357Y19133D01*
X33456Y19209D01*
X33532Y19308D01*
X33580Y19424D01*
X33596Y19547D01*
X33580Y19671D01*
X33532Y19786D01*
X33456Y19885D01*
X33357Y19961D01*
X33242Y20009D01*
X33118Y20025D01*
D02*
G37*
G36*
X23000Y17478D02*
X22902Y17465D01*
X22811Y17428D01*
X22733Y17367D01*
X22672Y17289D01*
X22635Y17198D01*
X22622Y17100D01*
X22635Y17002D01*
X22672Y16911D01*
X22733Y16833D01*
X22811Y16772D01*
X22902Y16735D01*
X23000Y16722D01*
X23098Y16735D01*
X23189Y16772D01*
X23267Y16833D01*
X23328Y16911D01*
X23365Y17002D01*
X23378Y17100D01*
X23365Y17198D01*
X23328Y17289D01*
X23267Y17367D01*
X23189Y17428D01*
X23098Y17465D01*
X23000Y17478D01*
D02*
G37*
G36*
X22000D02*
X21902Y17465D01*
X21811Y17428D01*
X21733Y17367D01*
X21672Y17289D01*
X21635Y17198D01*
X21622Y17100D01*
X21635Y17002D01*
X21672Y16911D01*
X21733Y16833D01*
X21811Y16772D01*
X21902Y16735D01*
X22000Y16722D01*
X22098Y16735D01*
X22189Y16772D01*
X22267Y16833D01*
X22328Y16911D01*
X22365Y17002D01*
X22378Y17100D01*
X22365Y17198D01*
X22328Y17289D01*
X22267Y17367D01*
X22189Y17428D01*
X22098Y17465D01*
X22000Y17478D01*
D02*
G37*
G36*
X25000D02*
X24902Y17465D01*
X24811Y17428D01*
X24733Y17367D01*
X24672Y17289D01*
X24635Y17198D01*
X24622Y17100D01*
X24635Y17002D01*
X24672Y16911D01*
X24733Y16833D01*
X24811Y16772D01*
X24902Y16735D01*
X25000Y16722D01*
X25098Y16735D01*
X25189Y16772D01*
X25267Y16833D01*
X25328Y16911D01*
X25365Y17002D01*
X25378Y17100D01*
X25365Y17198D01*
X25328Y17289D01*
X25267Y17367D01*
X25189Y17428D01*
X25098Y17465D01*
X25000Y17478D01*
D02*
G37*
G36*
X24000D02*
X23902Y17465D01*
X23811Y17428D01*
X23733Y17367D01*
X23672Y17289D01*
X23635Y17198D01*
X23622Y17100D01*
X23635Y17002D01*
X23672Y16911D01*
X23733Y16833D01*
X23811Y16772D01*
X23902Y16735D01*
X24000Y16722D01*
X24098Y16735D01*
X24189Y16772D01*
X24267Y16833D01*
X24328Y16911D01*
X24365Y17002D01*
X24378Y17100D01*
X24365Y17198D01*
X24328Y17289D01*
X24267Y17367D01*
X24189Y17428D01*
X24098Y17465D01*
X24000Y17478D01*
D02*
G37*
G36*
X16550Y17345D02*
Y16311D01*
X17584D01*
X17574Y16431D01*
X17534Y16597D01*
X17469Y16755D01*
X17380Y16900D01*
X17269Y17030D01*
X17139Y17141D01*
X16994Y17230D01*
X16836Y17295D01*
X16670Y17335D01*
X16550Y17345D01*
D02*
G37*
G36*
X16450D02*
X16330Y17335D01*
X16164Y17295D01*
X16006Y17230D01*
X15861Y17141D01*
X15731Y17030D01*
X15620Y16900D01*
X15531Y16755D01*
X15466Y16597D01*
X15426Y16431D01*
X15416Y16311D01*
X16450D01*
Y17345D01*
D02*
G37*
G36*
X32601Y17345D02*
Y16311D01*
X33635D01*
X33625Y16431D01*
X33586Y16597D01*
X33520Y16755D01*
X33431Y16900D01*
X33320Y17030D01*
X33190Y17141D01*
X33045Y17230D01*
X32887Y17295D01*
X32721Y17335D01*
X32601Y17345D01*
D02*
G37*
G36*
X32501D02*
X32381Y17335D01*
X32215Y17295D01*
X32057Y17230D01*
X31912Y17141D01*
X31782Y17030D01*
X31671Y16900D01*
X31582Y16755D01*
X31517Y16597D01*
X31477Y16431D01*
X31468Y16311D01*
X32501D01*
Y17345D01*
D02*
G37*
G36*
X25950Y18892D02*
X25897Y18885D01*
X25801Y18845D01*
X25718Y18782D01*
X25655Y18699D01*
X25615Y18603D01*
X25608Y18550D01*
X25950D01*
Y18892D01*
D02*
G37*
G36*
X32000Y19478D02*
X31876Y19462D01*
X31761Y19414D01*
X31662Y19338D01*
X31586Y19239D01*
X31538Y19124D01*
X31522Y19000D01*
X31538Y18876D01*
X31586Y18761D01*
X31662Y18662D01*
X31761Y18586D01*
X31876Y18538D01*
X32000Y18522D01*
X32124Y18538D01*
X32239Y18586D01*
X32338Y18662D01*
X32414Y18761D01*
X32462Y18876D01*
X32478Y19000D01*
X32462Y19124D01*
X32414Y19239D01*
X32338Y19338D01*
X32239Y19414D01*
X32124Y19462D01*
X32000Y19478D01*
D02*
G37*
G36*
X15882Y20021D02*
X15758Y20005D01*
X15643Y19957D01*
X15544Y19881D01*
X15468Y19782D01*
X15420Y19667D01*
X15404Y19543D01*
X15420Y19420D01*
X15468Y19304D01*
X15544Y19205D01*
X15643Y19129D01*
X15758Y19081D01*
X15882Y19065D01*
X16006Y19081D01*
X16121Y19129D01*
X16220Y19205D01*
X16296Y19304D01*
X16344Y19420D01*
X16360Y19543D01*
X16344Y19667D01*
X16296Y19782D01*
X16220Y19881D01*
X16121Y19957D01*
X16006Y20005D01*
X15882Y20021D01*
D02*
G37*
G36*
X26050Y18892D02*
Y18550D01*
X26392D01*
X26385Y18603D01*
X26345Y18699D01*
X26282Y18782D01*
X26199Y18845D01*
X26103Y18885D01*
X26050Y18892D01*
D02*
G37*
G36*
X27000Y17478D02*
X26902Y17465D01*
X26811Y17428D01*
X26733Y17367D01*
X26672Y17289D01*
X26635Y17198D01*
X26622Y17100D01*
X26635Y17002D01*
X26672Y16911D01*
X26733Y16833D01*
X26811Y16772D01*
X26902Y16735D01*
X27000Y16722D01*
X27098Y16735D01*
X27189Y16772D01*
X27267Y16833D01*
X27328Y16911D01*
X27365Y17002D01*
X27378Y17100D01*
X27365Y17198D01*
X27328Y17289D01*
X27267Y17367D01*
X27189Y17428D01*
X27098Y17465D01*
X27000Y17478D01*
D02*
G37*
G36*
X26000D02*
X25902Y17465D01*
X25811Y17428D01*
X25733Y17367D01*
X25672Y17289D01*
X25635Y17198D01*
X25622Y17100D01*
X25635Y17002D01*
X25672Y16911D01*
X25733Y16833D01*
X25811Y16772D01*
X25902Y16735D01*
X26000Y16722D01*
X26098Y16735D01*
X26189Y16772D01*
X26267Y16833D01*
X26328Y16911D01*
X26365Y17002D01*
X26378Y17100D01*
X26365Y17198D01*
X26328Y17289D01*
X26267Y17367D01*
X26189Y17428D01*
X26098Y17465D01*
X26000Y17478D01*
D02*
G37*
G36*
X29000D02*
X28902Y17465D01*
X28811Y17428D01*
X28733Y17367D01*
X28672Y17289D01*
X28635Y17198D01*
X28622Y17100D01*
X28635Y17002D01*
X28672Y16911D01*
X28733Y16833D01*
X28811Y16772D01*
X28902Y16735D01*
X29000Y16722D01*
X29098Y16735D01*
X29189Y16772D01*
X29267Y16833D01*
X29328Y16911D01*
X29365Y17002D01*
X29378Y17100D01*
X29365Y17198D01*
X29328Y17289D01*
X29267Y17367D01*
X29189Y17428D01*
X29098Y17465D01*
X29000Y17478D01*
D02*
G37*
G36*
X28000D02*
X27902Y17465D01*
X27811Y17428D01*
X27733Y17367D01*
X27672Y17289D01*
X27635Y17198D01*
X27622Y17100D01*
X27635Y17002D01*
X27672Y16911D01*
X27733Y16833D01*
X27811Y16772D01*
X27902Y16735D01*
X28000Y16722D01*
X28098Y16735D01*
X28189Y16772D01*
X28267Y16833D01*
X28328Y16911D01*
X28365Y17002D01*
X28378Y17100D01*
X28365Y17198D01*
X28328Y17289D01*
X28267Y17367D01*
X28189Y17428D01*
X28098Y17465D01*
X28000Y17478D01*
D02*
G37*
G36*
X26950Y24292D02*
X26897Y24285D01*
X26801Y24245D01*
X26718Y24182D01*
X26655Y24099D01*
X26615Y24003D01*
X26608Y23950D01*
X26950D01*
Y24292D01*
D02*
G37*
G36*
X19950Y24292D02*
X19897Y24285D01*
X19801Y24245D01*
X19718Y24182D01*
X19655Y24099D01*
X19615Y24003D01*
X19608Y23950D01*
X19950D01*
Y24292D01*
D02*
G37*
G36*
X20000Y25299D02*
X19897Y25285D01*
X19801Y25245D01*
X19718Y25182D01*
X19655Y25099D01*
X19615Y25003D01*
X19601Y24900D01*
X19615Y24797D01*
X19655Y24701D01*
X19718Y24618D01*
X19801Y24555D01*
X19897Y24515D01*
X20000Y24501D01*
X20103Y24515D01*
X20199Y24555D01*
X20282Y24618D01*
X20345Y24701D01*
X20385Y24797D01*
X20399Y24900D01*
X20385Y25003D01*
X20345Y25099D01*
X20282Y25182D01*
X20199Y25245D01*
X20103Y25285D01*
X20000Y25299D01*
D02*
G37*
G36*
X27050Y24292D02*
Y23950D01*
X27392D01*
X27385Y24003D01*
X27345Y24099D01*
X27282Y24182D01*
X27199Y24245D01*
X27103Y24285D01*
X27050Y24292D01*
D02*
G37*
G36*
X19950Y23850D02*
X19608D01*
X19615Y23797D01*
X19655Y23701D01*
X19718Y23618D01*
X19801Y23555D01*
X19897Y23515D01*
X19950Y23508D01*
Y23850D01*
D02*
G37*
G36*
X22000Y24299D02*
X21897Y24285D01*
X21801Y24245D01*
X21718Y24182D01*
X21655Y24099D01*
X21615Y24003D01*
X21601Y23900D01*
X21615Y23797D01*
X21655Y23701D01*
X21718Y23618D01*
X21801Y23555D01*
X21897Y23515D01*
X22000Y23501D01*
X22103Y23515D01*
X22199Y23555D01*
X22282Y23618D01*
X22345Y23701D01*
X22385Y23797D01*
X22399Y23900D01*
X22385Y24003D01*
X22345Y24099D01*
X22282Y24182D01*
X22199Y24245D01*
X22103Y24285D01*
X22000Y24299D01*
D02*
G37*
G36*
X27392Y23850D02*
X27050D01*
Y23508D01*
X27103Y23515D01*
X27199Y23555D01*
X27282Y23618D01*
X27345Y23701D01*
X27385Y23797D01*
X27392Y23850D01*
D02*
G37*
G36*
X26950D02*
X26608D01*
X26615Y23797D01*
X26655Y23701D01*
X26718Y23618D01*
X26801Y23555D01*
X26897Y23515D01*
X26950Y23508D01*
Y23850D01*
D02*
G37*
G36*
X29997Y25634D02*
X29650D01*
Y25287D01*
X29704Y25295D01*
X29802Y25335D01*
X29885Y25399D01*
X29949Y25483D01*
X29990Y25580D01*
X29997Y25634D01*
D02*
G37*
G36*
X29550D02*
X29203D01*
X29210Y25580D01*
X29251Y25483D01*
X29315Y25399D01*
X29398Y25335D01*
X29496Y25295D01*
X29550Y25287D01*
Y25634D01*
D02*
G37*
G36*
X29650Y26081D02*
Y25734D01*
X29997D01*
X29990Y25789D01*
X29949Y25886D01*
X29885Y25970D01*
X29802Y26034D01*
X29704Y26074D01*
X29650Y26081D01*
D02*
G37*
G36*
X29550D02*
X29496Y26074D01*
X29398Y26034D01*
X29315Y25970D01*
X29251Y25886D01*
X29210Y25789D01*
X29203Y25734D01*
X29550D01*
Y26081D01*
D02*
G37*
G36*
X17532Y26051D02*
X16499D01*
Y25017D01*
X16619Y25027D01*
X16785Y25067D01*
X16943Y25132D01*
X17088Y25221D01*
X17218Y25332D01*
X17329Y25462D01*
X17418Y25607D01*
X17483Y25765D01*
X17523Y25931D01*
X17532Y26051D01*
D02*
G37*
G36*
X16399D02*
X15365D01*
X15375Y25931D01*
X15414Y25765D01*
X15480Y25607D01*
X15569Y25462D01*
X15680Y25332D01*
X15810Y25221D01*
X15955Y25132D01*
X16113Y25067D01*
X16279Y25027D01*
X16399Y25017D01*
Y26051D01*
D02*
G37*
G36*
X33584Y26051D02*
X32550D01*
Y25017D01*
X32670Y25027D01*
X32836Y25067D01*
X32994Y25132D01*
X33139Y25221D01*
X33269Y25332D01*
X33380Y25462D01*
X33469Y25607D01*
X33534Y25765D01*
X33574Y25931D01*
X33584Y26051D01*
D02*
G37*
G36*
X32450D02*
X31416D01*
X31426Y25931D01*
X31466Y25765D01*
X31531Y25607D01*
X31620Y25462D01*
X31731Y25332D01*
X31861Y25221D01*
X32006Y25132D01*
X32164Y25067D01*
X32330Y25027D01*
X32450Y25017D01*
Y26051D01*
D02*
G37*
G36*
X17000Y23840D02*
X16876Y23824D01*
X16761Y23776D01*
X16662Y23700D01*
X16586Y23601D01*
X16538Y23486D01*
X16522Y23362D01*
X16538Y23238D01*
X16586Y23123D01*
X16662Y23024D01*
X16761Y22948D01*
X16876Y22900D01*
X17000Y22884D01*
X17124Y22900D01*
X17239Y22948D01*
X17338Y23024D01*
X17414Y23123D01*
X17462Y23238D01*
X17478Y23362D01*
X17462Y23486D01*
X17414Y23601D01*
X17338Y23700D01*
X17239Y23776D01*
X17124Y23824D01*
X17000Y23840D01*
D02*
G37*
G36*
Y21659D02*
X16876Y21643D01*
X16761Y21595D01*
X16662Y21519D01*
X16586Y21420D01*
X16538Y21305D01*
X16522Y21181D01*
X16538Y21057D01*
X16586Y20942D01*
X16662Y20843D01*
X16761Y20767D01*
X16876Y20719D01*
X17000Y20703D01*
X17124Y20719D01*
X17239Y20767D01*
X17338Y20843D01*
X17414Y20942D01*
X17462Y21057D01*
X17478Y21181D01*
X17462Y21305D01*
X17414Y21420D01*
X17338Y21519D01*
X17239Y21595D01*
X17124Y21643D01*
X17000Y21659D01*
D02*
G37*
G36*
X33168Y21109D02*
Y20688D01*
X33590D01*
X33580Y20762D01*
X33532Y20877D01*
X33456Y20976D01*
X33357Y21052D01*
X33242Y21100D01*
X33168Y21109D01*
D02*
G37*
G36*
X15882Y22203D02*
X15758Y22186D01*
X15643Y22138D01*
X15544Y22062D01*
X15468Y21963D01*
X15420Y21848D01*
X15404Y21724D01*
X15420Y21601D01*
X15468Y21485D01*
X15544Y21386D01*
X15643Y21310D01*
X15758Y21263D01*
X15882Y21246D01*
X16006Y21263D01*
X16121Y21310D01*
X16220Y21386D01*
X16296Y21485D01*
X16344Y21601D01*
X16360Y21724D01*
X16344Y21848D01*
X16296Y21963D01*
X16220Y22062D01*
X16121Y22138D01*
X16006Y22186D01*
X15882Y22203D01*
D02*
G37*
G36*
X32000Y21659D02*
X31876Y21643D01*
X31761Y21595D01*
X31662Y21519D01*
X31586Y21420D01*
X31538Y21305D01*
X31522Y21181D01*
X31538Y21057D01*
X31586Y20942D01*
X31662Y20843D01*
X31761Y20767D01*
X31876Y20719D01*
X32000Y20703D01*
X32124Y20719D01*
X32239Y20767D01*
X32338Y20843D01*
X32414Y20942D01*
X32462Y21057D01*
X32478Y21181D01*
X32462Y21305D01*
X32414Y21420D01*
X32338Y21519D01*
X32239Y21595D01*
X32124Y21643D01*
X32000Y21659D01*
D02*
G37*
G36*
X15832Y21105D02*
X15758Y21096D01*
X15643Y21048D01*
X15544Y20972D01*
X15468Y20873D01*
X15420Y20758D01*
X15410Y20684D01*
X15832D01*
Y21105D01*
D02*
G37*
G36*
X33590Y20588D02*
X33168D01*
Y20166D01*
X33242Y20176D01*
X33357Y20224D01*
X33456Y20300D01*
X33532Y20399D01*
X33580Y20514D01*
X33590Y20588D01*
D02*
G37*
G36*
X33068Y21109D02*
X32994Y21100D01*
X32879Y21052D01*
X32780Y20976D01*
X32704Y20877D01*
X32656Y20762D01*
X32647Y20688D01*
X33068D01*
Y21109D01*
D02*
G37*
G36*
X15932Y21105D02*
Y20684D01*
X16353D01*
X16344Y20758D01*
X16296Y20873D01*
X16220Y20972D01*
X16121Y21048D01*
X16006Y21096D01*
X15932Y21105D01*
D02*
G37*
G36*
X29395Y23095D02*
X28605D01*
Y22305D01*
X29395D01*
Y23095D01*
D02*
G37*
G36*
X20000Y23099D02*
X19897Y23085D01*
X19801Y23045D01*
X19718Y22982D01*
X19655Y22899D01*
X19615Y22803D01*
X19601Y22700D01*
X19615Y22597D01*
X19655Y22501D01*
X19718Y22418D01*
X19801Y22355D01*
X19897Y22315D01*
X20000Y22301D01*
X20103Y22315D01*
X20199Y22355D01*
X20282Y22418D01*
X20345Y22501D01*
X20385Y22597D01*
X20399Y22700D01*
X20385Y22803D01*
X20345Y22899D01*
X20282Y22982D01*
X20199Y23045D01*
X20103Y23085D01*
X20000Y23099D01*
D02*
G37*
G36*
X24050Y23092D02*
Y22750D01*
X24392D01*
X24385Y22803D01*
X24345Y22899D01*
X24282Y22982D01*
X24199Y23045D01*
X24103Y23085D01*
X24050Y23092D01*
D02*
G37*
G36*
X15882Y23293D02*
X15758Y23277D01*
X15643Y23229D01*
X15544Y23153D01*
X15468Y23054D01*
X15420Y22939D01*
X15404Y22815D01*
X15420Y22691D01*
X15468Y22576D01*
X15544Y22477D01*
X15643Y22401D01*
X15758Y22353D01*
X15882Y22337D01*
X16006Y22353D01*
X16121Y22401D01*
X16220Y22477D01*
X16296Y22576D01*
X16344Y22691D01*
X16360Y22815D01*
X16344Y22939D01*
X16296Y23054D01*
X16220Y23153D01*
X16121Y23229D01*
X16006Y23277D01*
X15882Y23293D01*
D02*
G37*
G36*
X32000Y22750D02*
X31876Y22733D01*
X31761Y22686D01*
X31662Y22610D01*
X31586Y22511D01*
X31538Y22395D01*
X31522Y22272D01*
X31538Y22148D01*
X31586Y22033D01*
X31662Y21934D01*
X31761Y21858D01*
X31876Y21810D01*
X32000Y21794D01*
X32124Y21810D01*
X32239Y21858D01*
X32338Y21934D01*
X32414Y22033D01*
X32462Y22148D01*
X32478Y22272D01*
X32462Y22395D01*
X32414Y22511D01*
X32338Y22610D01*
X32239Y22686D01*
X32124Y22733D01*
X32000Y22750D01*
D02*
G37*
G36*
X17000Y22750D02*
X16876Y22733D01*
X16761Y22686D01*
X16662Y22610D01*
X16586Y22511D01*
X16538Y22395D01*
X16522Y22272D01*
X16538Y22148D01*
X16586Y22033D01*
X16662Y21934D01*
X16761Y21858D01*
X16876Y21810D01*
X17000Y21794D01*
X17124Y21810D01*
X17239Y21858D01*
X17338Y21934D01*
X17414Y22033D01*
X17462Y22148D01*
X17478Y22272D01*
X17462Y22395D01*
X17414Y22511D01*
X17338Y22610D01*
X17239Y22686D01*
X17124Y22733D01*
X17000Y22750D01*
D02*
G37*
G36*
X21000Y25299D02*
X20897Y25285D01*
X20801Y25245D01*
X20718Y25182D01*
X20655Y25099D01*
X20615Y25003D01*
X20601Y24900D01*
X20615Y24797D01*
X20655Y24701D01*
X20718Y24618D01*
X20750Y24594D01*
X20742Y24542D01*
X20739Y24539D01*
X20692Y24508D01*
X20392Y24208D01*
X20361Y24161D01*
X20358Y24158D01*
X20306Y24150D01*
X20282Y24182D01*
X20199Y24245D01*
X20103Y24285D01*
X20050Y24292D01*
Y23900D01*
Y23508D01*
X20103Y23515D01*
X20199Y23555D01*
X20282Y23618D01*
X20297Y23638D01*
X20347Y23621D01*
Y23500D01*
X20359Y23441D01*
X20392Y23392D01*
X20692Y23092D01*
X20739Y23061D01*
X20742Y23058D01*
X20750Y23006D01*
X20718Y22982D01*
X20655Y22899D01*
X20615Y22803D01*
X20601Y22700D01*
X20615Y22597D01*
X20655Y22501D01*
X20718Y22418D01*
X20801Y22355D01*
X20897Y22315D01*
X21000Y22301D01*
X21103Y22315D01*
X21199Y22355D01*
X21282Y22418D01*
X21345Y22501D01*
X21385Y22597D01*
X21399Y22700D01*
X21385Y22803D01*
X21345Y22899D01*
X21282Y22982D01*
X21262Y22997D01*
X21279Y23047D01*
X21721D01*
X21738Y22997D01*
X21718Y22982D01*
X21655Y22899D01*
X21615Y22803D01*
X21601Y22700D01*
X21615Y22597D01*
X21655Y22501D01*
X21718Y22418D01*
X21801Y22355D01*
X21847Y22336D01*
Y22300D01*
X21859Y22241D01*
X21892Y22192D01*
X22192Y21892D01*
X22241Y21859D01*
X22300Y21847D01*
X30100D01*
X30159Y21859D01*
X30208Y21892D01*
X30497Y22181D01*
X30541Y22167D01*
X30547Y22162D01*
Y20863D01*
X30237Y20553D01*
X20700D01*
X20651Y20543D01*
X20641Y20541D01*
X20592Y20508D01*
X20150Y20066D01*
X20103Y20085D01*
X20000Y20099D01*
X19897Y20085D01*
X19801Y20045D01*
X19718Y19982D01*
X19655Y19899D01*
X19615Y19803D01*
X19601Y19700D01*
X19615Y19597D01*
X19655Y19501D01*
X19718Y19418D01*
X19801Y19355D01*
X19897Y19315D01*
X20000Y19301D01*
X20103Y19315D01*
X20199Y19355D01*
X20282Y19418D01*
X20345Y19501D01*
X20385Y19597D01*
X20399Y19700D01*
X20385Y19803D01*
X20366Y19850D01*
X20763Y20247D01*
X30300D01*
X30359Y20259D01*
X30408Y20292D01*
X30808Y20692D01*
X30841Y20741D01*
X30843Y20751D01*
X30853Y20800D01*
Y22937D01*
X31126Y23209D01*
X31550D01*
X31586Y23123D01*
X31662Y23024D01*
X31761Y22948D01*
X31876Y22900D01*
X32000Y22884D01*
X32124Y22900D01*
X32239Y22948D01*
X32338Y23024D01*
X32414Y23123D01*
X32462Y23238D01*
X32478Y23362D01*
X32462Y23486D01*
X32414Y23601D01*
X32351Y23683D01*
X32373Y23733D01*
X32450D01*
X32898Y23286D01*
X32888Y23237D01*
X32879Y23233D01*
X32780Y23157D01*
X32704Y23058D01*
X32656Y22943D01*
X32640Y22819D01*
X32656Y22695D01*
X32704Y22580D01*
X32780Y22481D01*
X32879Y22405D01*
X32994Y22357D01*
X33118Y22341D01*
X33242Y22357D01*
X33357Y22405D01*
X33456Y22481D01*
X33532Y22580D01*
X33580Y22695D01*
X33596Y22819D01*
X33580Y22943D01*
X33532Y23058D01*
X33456Y23157D01*
X33357Y23233D01*
X33271Y23269D01*
Y23282D01*
X33259Y23340D01*
X33226Y23390D01*
X32622Y23994D01*
X32572Y24028D01*
X32514Y24039D01*
X31186D01*
X31137Y24029D01*
X31128Y24028D01*
X31078Y23994D01*
X30292Y23208D01*
X30259Y23159D01*
X30247Y23100D01*
Y22363D01*
X30037Y22153D01*
X28133D01*
X28116Y22203D01*
X28141Y22241D01*
X28143Y22251D01*
X28153Y22300D01*
Y22336D01*
X28199Y22355D01*
X28282Y22418D01*
X28345Y22501D01*
X28385Y22597D01*
X28399Y22700D01*
X28385Y22803D01*
X28345Y22899D01*
X28282Y22982D01*
X28199Y23045D01*
X28103Y23085D01*
X28000Y23099D01*
X27897Y23085D01*
X27801Y23045D01*
X27718Y22982D01*
X27655Y22899D01*
X27615Y22803D01*
X27601Y22700D01*
X27615Y22597D01*
X27655Y22501D01*
X27718Y22418D01*
X27738Y22403D01*
X27721Y22353D01*
X27279D01*
X27262Y22403D01*
X27282Y22418D01*
X27345Y22501D01*
X27385Y22597D01*
X27399Y22700D01*
X27385Y22803D01*
X27345Y22899D01*
X27282Y22982D01*
X27199Y23045D01*
X27103Y23085D01*
X27000Y23099D01*
X26897Y23085D01*
X26801Y23045D01*
X26718Y22982D01*
X26655Y22899D01*
X26615Y22803D01*
X26601Y22700D01*
X26615Y22597D01*
X26655Y22501D01*
X26718Y22418D01*
X26738Y22403D01*
X26721Y22353D01*
X26279D01*
X26262Y22403D01*
X26282Y22418D01*
X26345Y22501D01*
X26385Y22597D01*
X26399Y22700D01*
X26385Y22803D01*
X26345Y22899D01*
X26282Y22982D01*
X26199Y23045D01*
X26103Y23085D01*
X26000Y23099D01*
X25897Y23085D01*
X25801Y23045D01*
X25718Y22982D01*
X25655Y22899D01*
X25615Y22803D01*
X25601Y22700D01*
X25615Y22597D01*
X25655Y22501D01*
X25718Y22418D01*
X25738Y22403D01*
X25721Y22353D01*
X25279D01*
X25262Y22403D01*
X25282Y22418D01*
X25345Y22501D01*
X25385Y22597D01*
X25399Y22700D01*
X25385Y22803D01*
X25345Y22899D01*
X25282Y22982D01*
X25235Y23018D01*
Y23559D01*
X25313Y23618D01*
X25377Y23701D01*
X25416Y23797D01*
X25430Y23900D01*
X25417Y23997D01*
X25916Y24496D01*
X29200D01*
Y24300D01*
X30000D01*
Y24496D01*
X32916D01*
X33796Y23616D01*
Y22695D01*
X33277Y22176D01*
X33242Y22190D01*
X33118Y22206D01*
X32994Y22190D01*
X32879Y22142D01*
X32780Y22066D01*
X32704Y21967D01*
X32656Y21852D01*
X32640Y21728D01*
X32656Y21605D01*
X32704Y21489D01*
X32780Y21390D01*
X32879Y21314D01*
X32994Y21267D01*
X33118Y21250D01*
X33242Y21267D01*
X33277Y21281D01*
X33796Y20762D01*
Y19184D01*
X32716Y18104D01*
X30800D01*
X30722Y18088D01*
X30656Y18044D01*
X30087Y17475D01*
X29913D01*
X29344Y18044D01*
X29278Y18088D01*
X29200Y18104D01*
X26207D01*
X26197Y18154D01*
X26199Y18155D01*
X26282Y18218D01*
X26345Y18301D01*
X26385Y18397D01*
X26392Y18450D01*
X25608D01*
X25615Y18397D01*
X25655Y18301D01*
X25718Y18218D01*
X25801Y18155D01*
X25803Y18154D01*
X25793Y18104D01*
X25284D01*
X24744Y18644D01*
X24678Y18688D01*
X24600Y18704D01*
X24373D01*
X24313Y18782D01*
X24235Y18841D01*
Y19382D01*
X24282Y19418D01*
X24345Y19501D01*
X24385Y19597D01*
X24399Y19700D01*
X24385Y19803D01*
X24345Y19899D01*
X24282Y19982D01*
X24199Y20045D01*
X24103Y20085D01*
X24000Y20099D01*
X23897Y20085D01*
X23801Y20045D01*
X23718Y19982D01*
X23655Y19899D01*
X23615Y19803D01*
X23601Y19700D01*
X23615Y19597D01*
X23655Y19501D01*
X23718Y19418D01*
X23801Y19355D01*
X23828Y19344D01*
Y18841D01*
X23750Y18782D01*
X23690Y18704D01*
X17584D01*
X17447Y18841D01*
X17462Y18876D01*
X17478Y19000D01*
X17462Y19124D01*
X17414Y19239D01*
X17338Y19338D01*
X17239Y19414D01*
X17124Y19462D01*
X17000Y19478D01*
X16876Y19462D01*
X16761Y19414D01*
X16662Y19338D01*
X16586Y19239D01*
X16538Y19124D01*
X16522Y19000D01*
X16538Y18876D01*
X16586Y18761D01*
X16662Y18662D01*
X16761Y18586D01*
X16876Y18538D01*
X17000Y18522D01*
X17124Y18538D01*
X17159Y18553D01*
X17356Y18356D01*
X17422Y18312D01*
X17500Y18296D01*
X23690D01*
X23750Y18218D01*
X23832Y18155D01*
X23928Y18115D01*
X24032Y18102D01*
X24135Y18115D01*
X24231Y18155D01*
X24313Y18218D01*
X24373Y18296D01*
X24516D01*
X25056Y17756D01*
X25122Y17712D01*
X25200Y17696D01*
X29116D01*
X29625Y17187D01*
Y16725D01*
X30375D01*
Y17187D01*
X30884Y17696D01*
X32800D01*
X32878Y17712D01*
X32944Y17756D01*
X34144Y18956D01*
X34188Y19022D01*
X34204Y19100D01*
Y20846D01*
X34188Y20924D01*
X34144Y20991D01*
X33565Y21569D01*
X33580Y21605D01*
X33596Y21728D01*
X33580Y21852D01*
X33565Y21887D01*
X34144Y22466D01*
X34188Y22532D01*
X34204Y22610D01*
Y23700D01*
X34204Y23700D01*
X34188Y23778D01*
X34144Y23844D01*
X34144Y23844D01*
X33144Y24844D01*
X33078Y24888D01*
X33000Y24904D01*
X30000D01*
Y25100D01*
X29200D01*
Y24904D01*
X25831D01*
X25753Y24888D01*
X25687Y24844D01*
X25129Y24286D01*
X25031Y24298D01*
X24928Y24285D01*
X24832Y24245D01*
X24750Y24182D01*
X24686Y24099D01*
X24647Y24003D01*
X24633Y23900D01*
X24647Y23797D01*
X24686Y23701D01*
X24750Y23618D01*
X24828Y23559D01*
Y23056D01*
X24801Y23045D01*
X24718Y22982D01*
X24655Y22899D01*
X24615Y22803D01*
X24601Y22700D01*
X24615Y22597D01*
X24655Y22501D01*
X24718Y22418D01*
X24738Y22403D01*
X24721Y22353D01*
X24279D01*
X24262Y22403D01*
X24282Y22418D01*
X24345Y22501D01*
X24385Y22597D01*
X24392Y22650D01*
X24000D01*
Y22700D01*
X23950D01*
Y23092D01*
X23897Y23085D01*
X23801Y23045D01*
X23718Y22982D01*
X23694Y22950D01*
X23642Y22958D01*
X23639Y22961D01*
X23608Y23008D01*
X23308Y23308D01*
X23259Y23341D01*
X23200Y23353D01*
X20863D01*
X20653Y23563D01*
Y23621D01*
X20703Y23638D01*
X20718Y23618D01*
X20801Y23555D01*
X20897Y23515D01*
X21000Y23501D01*
X21103Y23515D01*
X21199Y23555D01*
X21282Y23618D01*
X21345Y23701D01*
X21385Y23797D01*
X21399Y23900D01*
X21385Y24003D01*
X21345Y24099D01*
X21282Y24182D01*
X21262Y24197D01*
X21279Y24247D01*
X21300D01*
X21359Y24259D01*
X21408Y24292D01*
X21621Y24505D01*
X22395D01*
Y25295D01*
X21605D01*
Y24921D01*
X21410Y24726D01*
X21368Y24755D01*
X21385Y24797D01*
X21399Y24900D01*
X21385Y25003D01*
X21345Y25099D01*
X21282Y25182D01*
X21199Y25245D01*
X21103Y25285D01*
X21000Y25299D01*
D02*
G37*
%LPD*%
G36*
X22738Y22997D02*
X22718Y22982D01*
X22655Y22899D01*
X22615Y22803D01*
X22601Y22700D01*
X22615Y22597D01*
X22655Y22501D01*
X22718Y22418D01*
X22801Y22355D01*
X22897Y22315D01*
X23000Y22301D01*
X23103Y22315D01*
X23199Y22355D01*
X23282Y22418D01*
X23297Y22438D01*
X23347Y22421D01*
Y22400D01*
X23359Y22341D01*
X23392Y22292D01*
X23485Y22199D01*
X23465Y22153D01*
X22363D01*
X22207Y22309D01*
X22218Y22369D01*
X22282Y22418D01*
X22345Y22501D01*
X22385Y22597D01*
X22399Y22700D01*
X22385Y22803D01*
X22345Y22899D01*
X22282Y22982D01*
X22262Y22997D01*
X22279Y23047D01*
X22721D01*
X22738Y22997D01*
D02*
G37*
D10*
X22000Y23900D02*
X22000Y23900D01*
X25031Y22731D02*
Y23900D01*
X25000Y22700D02*
X25031Y22731D01*
X24032Y18500D02*
Y19669D01*
X24000Y19700D02*
X24032Y19669D01*
X17500Y18500D02*
X24032D01*
X17000Y19000D02*
X17500Y18500D01*
X24032D02*
X24600D01*
X25200Y17900D01*
X29200D01*
X30000Y17100D01*
X30800Y17900D01*
X32800D01*
X34000Y19100D01*
Y20846D01*
X33118Y21728D02*
X34000Y20846D01*
X33118Y21728D02*
X34000Y22610D01*
Y23700D01*
X33000Y24700D02*
X34000Y23700D01*
X25831Y24700D02*
X33000D01*
X25031Y23900D02*
X25831Y24700D01*
D11*
X23200Y23200D02*
X23500Y22900D01*
X20800Y23200D02*
X23200D01*
X20500Y23500D02*
X20800Y23200D01*
X20500Y23500D02*
Y24100D01*
X20800Y24400D01*
X21300D01*
X21800Y24900D01*
X22000D01*
X28000Y22300D02*
Y22700D01*
X27900Y22200D02*
X28000Y22300D01*
X23700Y22200D02*
X27900D01*
X23500Y22400D02*
X23700Y22200D01*
X23500Y22400D02*
Y22900D01*
X20000Y19700D02*
X20700Y20400D01*
X30300D01*
X30700Y20800D01*
Y23000D01*
X31062Y23362D01*
X32000D01*
X33118Y22819D02*
Y23282D01*
X32514Y23886D02*
X33118Y23282D01*
X22000Y22300D02*
Y22700D01*
X30400Y23100D02*
X31186Y23886D01*
X32514D01*
X30400Y22300D02*
Y23100D01*
X30100Y22000D02*
X30400Y22300D01*
X22000D02*
X22300Y22000D01*
X30100D01*
D12*
X29000Y22700D02*
D03*
D13*
X28000D02*
D03*
X27000D02*
D03*
X26000D02*
D03*
X25000D02*
D03*
X24000D02*
D03*
X23000D02*
D03*
X22000D02*
D03*
X21000D02*
D03*
X20000D02*
D03*
X29000Y19700D02*
D03*
X28000D02*
D03*
X27000D02*
D03*
X26000D02*
D03*
X25000D02*
D03*
X24000D02*
D03*
X23000D02*
D03*
X22000D02*
D03*
X21000D02*
D03*
X20000D02*
D03*
D14*
X30000Y17100D02*
D03*
D15*
X29000D02*
D03*
X28000D02*
D03*
X27000D02*
D03*
X26000D02*
D03*
X25000D02*
D03*
X24000D02*
D03*
X23000D02*
D03*
X22000D02*
D03*
D16*
X33118Y22819D02*
D03*
Y21728D02*
D03*
Y20638D02*
D03*
X32000Y23362D02*
D03*
Y22272D02*
D03*
Y21181D02*
D03*
Y20091D02*
D03*
X33118Y19547D02*
D03*
X32000Y19000D02*
D03*
X15882Y19543D02*
D03*
Y20634D02*
D03*
Y21724D02*
D03*
X17000Y19000D02*
D03*
Y20091D02*
D03*
Y21181D02*
D03*
Y22272D02*
D03*
X15882Y22815D02*
D03*
X17000Y23362D02*
D03*
D17*
X32500Y26101D02*
D03*
X32551Y16261D02*
D03*
X16500Y16261D02*
D03*
X16449Y26101D02*
D03*
D18*
X24032Y18500D02*
D03*
X26000D02*
D03*
X25031Y23900D02*
D03*
X27000D02*
D03*
D19*
X20000Y23900D02*
D03*
Y24900D02*
D03*
X21000Y23900D02*
D03*
Y24900D02*
D03*
X22000Y23900D02*
D03*
D20*
Y24900D02*
D03*
D21*
X29600Y25684D02*
D03*
D22*
Y24700D02*
D03*
M02*
