G04 Layer_Color=15132400*
%FSLAX24Y24*%
%MOIN*%
G70*
G01*
G75*
%ADD11C,0.0100*%
%ADD23C,0.0079*%
%ADD24C,0.0098*%
%ADD25C,0.0236*%
%ADD26C,0.0060*%
G36*
X18659Y18621D02*
X18667Y18620D01*
X18676Y18618D01*
X18685Y18617D01*
X18695Y18614D01*
X18704Y18611D01*
X18705Y18610D01*
X18708Y18608D01*
X18712Y18606D01*
X18716Y18602D01*
X18722Y18598D01*
X18728Y18592D01*
X18733Y18585D01*
X18737Y18577D01*
X18738Y18576D01*
X18739Y18574D01*
X18740Y18569D01*
X18743Y18562D01*
X18744Y18554D01*
X18746Y18544D01*
X18747Y18533D01*
X18748Y18521D01*
Y18132D01*
Y18132D01*
Y18131D01*
Y18128D01*
Y18126D01*
X18747Y18122D01*
X18746Y18119D01*
X18745Y18110D01*
X18743Y18101D01*
X18740Y18091D01*
X18735Y18081D01*
X18729Y18073D01*
X18728Y18072D01*
X18725Y18070D01*
X18721Y18066D01*
X18716Y18062D01*
X18709Y18059D01*
X18701Y18056D01*
X18692Y18053D01*
X18681Y18052D01*
X18678D01*
X18676Y18053D01*
X18670Y18053D01*
X18663Y18055D01*
X18655Y18057D01*
X18648Y18061D01*
X18639Y18066D01*
X18632Y18073D01*
X18632Y18074D01*
X18629Y18077D01*
X18627Y18081D01*
X18623Y18088D01*
X18619Y18096D01*
X18617Y18106D01*
X18614Y18118D01*
X18614Y18132D01*
Y18453D01*
X18456D01*
Y18158D01*
Y18158D01*
Y18157D01*
Y18154D01*
Y18152D01*
X18455Y18149D01*
X18455Y18146D01*
X18453Y18137D01*
X18451Y18128D01*
X18448Y18118D01*
X18443Y18109D01*
X18437Y18101D01*
X18437Y18100D01*
X18434Y18097D01*
X18430Y18095D01*
X18425Y18091D01*
X18418Y18087D01*
X18410Y18084D01*
X18401Y18082D01*
X18390Y18081D01*
X18387D01*
X18385Y18081D01*
X18380Y18082D01*
X18373Y18083D01*
X18366Y18086D01*
X18357Y18089D01*
X18350Y18094D01*
X18342Y18101D01*
X18342Y18102D01*
X18340Y18105D01*
X18337Y18109D01*
X18334Y18115D01*
X18330Y18123D01*
X18327Y18133D01*
X18325Y18145D01*
X18324Y18158D01*
Y18453D01*
X18138D01*
Y18121D01*
Y18120D01*
Y18119D01*
Y18117D01*
X18137Y18114D01*
Y18111D01*
X18137Y18107D01*
X18135Y18098D01*
X18133Y18089D01*
X18129Y18079D01*
X18125Y18070D01*
X18118Y18061D01*
X18117Y18060D01*
X18115Y18058D01*
X18110Y18055D01*
X18105Y18051D01*
X18098Y18047D01*
X18089Y18043D01*
X18079Y18041D01*
X18068Y18040D01*
X18065D01*
X18063Y18041D01*
X18058Y18041D01*
X18051Y18043D01*
X18043Y18045D01*
X18034Y18049D01*
X18027Y18054D01*
X18019Y18061D01*
X18018Y18062D01*
X18016Y18065D01*
X18013Y18070D01*
X18009Y18076D01*
X18006Y18085D01*
X18003Y18095D01*
X18001Y18107D01*
X18000Y18121D01*
Y18521D01*
Y18521D01*
Y18523D01*
Y18526D01*
X18001Y18529D01*
Y18534D01*
X18001Y18539D01*
X18003Y18550D01*
X18006Y18562D01*
X18010Y18575D01*
X18016Y18587D01*
X18019Y18592D01*
X18024Y18597D01*
X18024D01*
X18025Y18598D01*
X18027Y18600D01*
X18028Y18601D01*
X18031Y18603D01*
X18034Y18605D01*
X18038Y18607D01*
X18043Y18609D01*
X18048Y18611D01*
X18053Y18613D01*
X18059Y18616D01*
X18067Y18617D01*
X18074Y18619D01*
X18082Y18620D01*
X18091Y18621D01*
X18100Y18621D01*
X18653D01*
X18659Y18621D01*
D02*
G37*
G36*
X30930Y22949D02*
X30935Y22949D01*
X30942Y22947D01*
X30951Y22944D01*
X30960Y22939D01*
X30969Y22934D01*
X30974Y22930D01*
X30978Y22925D01*
X30979Y22924D01*
X30982Y22921D01*
X30986Y22916D01*
X30990Y22909D01*
X30994Y22901D01*
X30998Y22891D01*
X31001Y22879D01*
X31002Y22873D01*
X31002Y22867D01*
Y22866D01*
Y22864D01*
X31002Y22860D01*
X31001Y22856D01*
X31001Y22850D01*
X30999Y22844D01*
X30997Y22838D01*
X30995Y22833D01*
X30994Y22832D01*
X30994Y22831D01*
X30992Y22828D01*
X30990Y22824D01*
X30984Y22817D01*
X30976Y22808D01*
X30976Y22808D01*
X30974Y22807D01*
X30971Y22805D01*
X30967Y22802D01*
X30962Y22799D01*
X30956Y22796D01*
X30948Y22792D01*
X30939Y22788D01*
X30939D01*
X30938Y22788D01*
X30936Y22787D01*
X30931Y22785D01*
X30926Y22783D01*
X30915Y22778D01*
X30910Y22776D01*
X30906Y22773D01*
X30816Y22740D01*
Y22459D01*
X30903Y22427D01*
X30903D01*
X30905Y22425D01*
X30908Y22424D01*
X30912Y22423D01*
X30917Y22421D01*
X30922Y22419D01*
X30934Y22414D01*
X30947Y22408D01*
X30959Y22402D01*
X30972Y22395D01*
X30977Y22393D01*
X30981Y22389D01*
X30982Y22389D01*
X30984Y22386D01*
X30988Y22382D01*
X30992Y22377D01*
X30996Y22369D01*
X30999Y22359D01*
X31001Y22348D01*
X31002Y22335D01*
Y22334D01*
Y22333D01*
Y22332D01*
X31002Y22329D01*
X31001Y22323D01*
X30999Y22316D01*
X30997Y22307D01*
X30993Y22298D01*
X30987Y22288D01*
X30979Y22278D01*
X30979D01*
X30978Y22277D01*
X30976Y22274D01*
X30971Y22271D01*
X30964Y22267D01*
X30956Y22262D01*
X30947Y22258D01*
X30937Y22256D01*
X30931Y22255D01*
X30926Y22254D01*
X30923D01*
X30920Y22255D01*
X30915D01*
X30910Y22256D01*
X30905Y22257D01*
X30893Y22259D01*
X30892D01*
X30890Y22261D01*
X30886Y22262D01*
X30881Y22263D01*
X30875Y22266D01*
X30867Y22268D01*
X30857Y22272D01*
X30847Y22276D01*
X30375Y22462D01*
X30374Y22463D01*
X30372Y22464D01*
X30367Y22465D01*
X30361Y22468D01*
X30355Y22470D01*
X30346Y22473D01*
X30337Y22477D01*
X30326Y22481D01*
X30326D01*
X30325Y22481D01*
X30323Y22482D01*
X30321Y22483D01*
X30316Y22485D01*
X30309Y22489D01*
X30301Y22492D01*
X30293Y22496D01*
X30285Y22501D01*
X30277Y22506D01*
X30276Y22506D01*
X30273Y22509D01*
X30270Y22511D01*
X30265Y22516D01*
X30260Y22521D01*
X30254Y22527D01*
X30249Y22534D01*
X30244Y22543D01*
X30243Y22544D01*
X30241Y22547D01*
X30239Y22551D01*
X30237Y22559D01*
X30235Y22566D01*
X30232Y22576D01*
X30231Y22587D01*
X30230Y22599D01*
Y22600D01*
Y22601D01*
Y22602D01*
Y22605D01*
X30231Y22611D01*
X30232Y22619D01*
X30234Y22627D01*
X30236Y22637D01*
X30239Y22646D01*
X30244Y22655D01*
X30244Y22656D01*
X30246Y22659D01*
X30249Y22663D01*
X30252Y22668D01*
X30257Y22675D01*
X30263Y22681D01*
X30269Y22686D01*
X30276Y22692D01*
X30277Y22692D01*
X30280Y22694D01*
X30283Y22697D01*
X30288Y22700D01*
X30295Y22703D01*
X30301Y22707D01*
X30308Y22710D01*
X30316Y22713D01*
X30317Y22714D01*
X30319Y22715D01*
X30323Y22717D01*
X30330Y22719D01*
X30337Y22722D01*
X30346Y22726D01*
X30357Y22730D01*
X30369Y22735D01*
X30843Y22927D01*
X30843Y22927D01*
X30845Y22928D01*
X30848Y22929D01*
X30852Y22930D01*
X30857Y22932D01*
X30862Y22934D01*
X30874Y22938D01*
X30887Y22943D01*
X30901Y22946D01*
X30913Y22949D01*
X30920Y22950D01*
X30927D01*
X30930Y22949D01*
D02*
G37*
G36*
X18668Y19652D02*
X18673D01*
X18677Y19652D01*
X18688Y19650D01*
X18700Y19647D01*
X18712Y19644D01*
X18724Y19638D01*
X18734Y19630D01*
X18735Y19630D01*
X18735Y19629D01*
X18738Y19626D01*
X18743Y19621D01*
X18747Y19614D01*
X18751Y19605D01*
X18756Y19595D01*
X18759Y19583D01*
X18760Y19576D01*
Y19570D01*
Y19569D01*
Y19568D01*
Y19566D01*
X18759Y19564D01*
Y19560D01*
X18759Y19556D01*
X18756Y19548D01*
X18754Y19538D01*
X18749Y19528D01*
X18743Y19518D01*
X18739Y19513D01*
X18734Y19509D01*
X18734Y19508D01*
X18733Y19508D01*
X18731Y19506D01*
X18729Y19505D01*
X18727Y19503D01*
X18724Y19501D01*
X18720Y19499D01*
X18715Y19496D01*
X18710Y19494D01*
X18705Y19493D01*
X18699Y19490D01*
X18693Y19489D01*
X18678Y19486D01*
X18669Y19485D01*
X18083D01*
X18079Y19485D01*
X18075D01*
X18070Y19486D01*
X18060Y19488D01*
X18048Y19490D01*
X18036Y19495D01*
X18023Y19501D01*
X18018Y19504D01*
X18013Y19509D01*
X18012Y19510D01*
X18009Y19513D01*
X18005Y19518D01*
X18001Y19525D01*
X17996Y19534D01*
X17992Y19544D01*
X17989Y19556D01*
X17988Y19563D01*
X17988Y19570D01*
Y19570D01*
Y19571D01*
Y19573D01*
X17988Y19576D01*
Y19579D01*
X17989Y19582D01*
X17991Y19591D01*
X17994Y19600D01*
X17998Y19610D01*
X18005Y19620D01*
X18009Y19625D01*
X18013Y19630D01*
X18014D01*
X18014Y19631D01*
X18016Y19632D01*
X18018Y19634D01*
X18021Y19635D01*
X18024Y19637D01*
X18028Y19639D01*
X18032Y19641D01*
X18037Y19644D01*
X18043Y19646D01*
X18049Y19647D01*
X18055Y19649D01*
X18063Y19651D01*
X18070Y19652D01*
X18088Y19653D01*
X18665D01*
X18668Y19652D01*
D02*
G37*
G36*
X18688Y19383D02*
X18693Y19382D01*
X18700Y19380D01*
X18708Y19378D01*
X18717Y19373D01*
X18726Y19368D01*
X18735Y19360D01*
X18736Y19359D01*
X18736Y19359D01*
X18739Y19355D01*
X18743Y19351D01*
X18748Y19344D01*
X18752Y19336D01*
X18756Y19326D01*
X18759Y19314D01*
X18760Y19308D01*
Y19302D01*
Y19301D01*
Y19300D01*
Y19298D01*
X18759Y19294D01*
Y19291D01*
X18759Y19287D01*
X18756Y19278D01*
X18754Y19268D01*
X18749Y19258D01*
X18743Y19248D01*
X18738Y19244D01*
X18734Y19241D01*
X18733D01*
X18733Y19240D01*
X18731Y19239D01*
X18729Y19238D01*
X18726Y19236D01*
X18723Y19234D01*
X18719Y19232D01*
X18715Y19230D01*
X18710Y19227D01*
X18704Y19225D01*
X18692Y19220D01*
X18677Y19213D01*
X18660Y19208D01*
X18176Y19052D01*
X18659Y18897D01*
X18660D01*
X18661Y18896D01*
X18663Y18895D01*
X18665Y18894D01*
X18673Y18892D01*
X18681Y18889D01*
X18690Y18886D01*
X18699Y18883D01*
X18707Y18880D01*
X18714Y18877D01*
X18715Y18877D01*
X18717Y18875D01*
X18720Y18874D01*
X18724Y18872D01*
X18729Y18868D01*
X18734Y18864D01*
X18740Y18859D01*
X18745Y18853D01*
X18746Y18852D01*
X18748Y18849D01*
X18750Y18845D01*
X18753Y18840D01*
X18755Y18833D01*
X18758Y18825D01*
X18759Y18816D01*
X18760Y18806D01*
Y18804D01*
Y18802D01*
X18759Y18798D01*
X18759Y18792D01*
X18757Y18786D01*
X18755Y18779D01*
X18753Y18772D01*
X18749Y18765D01*
X18748Y18764D01*
X18746Y18762D01*
X18744Y18758D01*
X18741Y18754D01*
X18737Y18749D01*
X18732Y18744D01*
X18726Y18740D01*
X18720Y18736D01*
X18719Y18735D01*
X18717Y18734D01*
X18713Y18732D01*
X18709Y18730D01*
X18703Y18728D01*
X18697Y18727D01*
X18690Y18726D01*
X18684Y18725D01*
X18679D01*
X18676Y18726D01*
X18672D01*
X18668Y18726D01*
X18658Y18728D01*
X18657D01*
X18655Y18729D01*
X18653Y18729D01*
X18649Y18731D01*
X18644Y18732D01*
X18640Y18733D01*
X18629Y18737D01*
X18628D01*
X18626Y18738D01*
X18623Y18739D01*
X18620Y18741D01*
X18615Y18742D01*
X18611Y18744D01*
X18602Y18747D01*
X18127Y18923D01*
X18126Y18924D01*
X18123Y18924D01*
X18119Y18926D01*
X18113Y18928D01*
X18106Y18930D01*
X18098Y18934D01*
X18089Y18936D01*
X18079Y18940D01*
X18078Y18941D01*
X18075Y18942D01*
X18070Y18944D01*
X18064Y18947D01*
X18057Y18950D01*
X18049Y18954D01*
X18034Y18964D01*
X18033Y18964D01*
X18031Y18966D01*
X18027Y18969D01*
X18022Y18973D01*
X18017Y18978D01*
X18012Y18985D01*
X18006Y18991D01*
X18001Y19000D01*
X18000Y19001D01*
X17998Y19004D01*
X17997Y19009D01*
X17994Y19015D01*
X17992Y19023D01*
X17990Y19032D01*
X17988Y19044D01*
X17988Y19055D01*
Y19056D01*
Y19057D01*
Y19059D01*
Y19061D01*
X17988Y19067D01*
X17989Y19075D01*
X17991Y19083D01*
X17993Y19092D01*
X17996Y19102D01*
X18001Y19111D01*
X18001Y19112D01*
X18003Y19115D01*
X18006Y19119D01*
X18009Y19124D01*
X18014Y19130D01*
X18020Y19136D01*
X18027Y19142D01*
X18034Y19147D01*
X18035Y19148D01*
X18038Y19150D01*
X18042Y19152D01*
X18047Y19155D01*
X18054Y19159D01*
X18062Y19163D01*
X18070Y19167D01*
X18079Y19171D01*
X18079D01*
X18080Y19171D01*
X18083Y19172D01*
X18088Y19174D01*
X18094Y19176D01*
X18102Y19179D01*
X18109Y19182D01*
X18127Y19188D01*
X18597Y19361D01*
X18598Y19361D01*
X18601Y19362D01*
X18604Y19363D01*
X18608Y19364D01*
X18613Y19367D01*
X18619Y19368D01*
X18624Y19370D01*
X18629Y19372D01*
X18629D01*
X18631Y19373D01*
X18633Y19374D01*
X18637Y19375D01*
X18641Y19376D01*
X18645Y19377D01*
X18656Y19380D01*
X18657D01*
X18659Y19380D01*
X18662Y19381D01*
X18665Y19382D01*
X18674Y19383D01*
X18683Y19383D01*
X18685D01*
X18688Y19383D01*
D02*
G37*
G36*
X30916Y21013D02*
X30920D01*
X30924Y21012D01*
X30935Y21011D01*
X30946Y21008D01*
X30957Y21005D01*
X30968Y20999D01*
X30978Y20992D01*
X30979Y20991D01*
X30982Y20988D01*
X30986Y20983D01*
X30990Y20976D01*
X30994Y20969D01*
X30998Y20959D01*
X31001Y20947D01*
X31002Y20941D01*
X31002Y20934D01*
Y20934D01*
Y20932D01*
Y20931D01*
X31002Y20929D01*
X31001Y20922D01*
X30999Y20915D01*
X30996Y20906D01*
X30992Y20896D01*
X30986Y20887D01*
X30983Y20883D01*
X30978Y20879D01*
X30978D01*
X30977Y20878D01*
X30974Y20875D01*
X30968Y20872D01*
X30961Y20868D01*
X30951Y20864D01*
X30939Y20860D01*
X30924Y20858D01*
X30908Y20857D01*
X30417D01*
X30873Y20761D01*
X30873D01*
X30875Y20760D01*
X30877Y20760D01*
X30880Y20759D01*
X30884Y20758D01*
X30888Y20757D01*
X30898Y20754D01*
X30909Y20752D01*
X30920Y20748D01*
X30931Y20745D01*
X30941Y20742D01*
X30942Y20741D01*
X30944Y20740D01*
X30949Y20738D01*
X30954Y20735D01*
X30961Y20731D01*
X30968Y20725D01*
X30976Y20719D01*
X30983Y20712D01*
X30983Y20710D01*
X30986Y20708D01*
X30989Y20703D01*
X30992Y20696D01*
X30996Y20688D01*
X30999Y20677D01*
X31001Y20666D01*
X31002Y20652D01*
Y20652D01*
Y20651D01*
Y20649D01*
Y20647D01*
X31002Y20642D01*
X31001Y20635D01*
X30999Y20627D01*
X30997Y20619D01*
X30994Y20611D01*
X30990Y20602D01*
X30989Y20601D01*
X30988Y20599D01*
X30985Y20596D01*
X30981Y20591D01*
X30977Y20586D01*
X30971Y20581D01*
X30965Y20576D01*
X30958Y20571D01*
X30957Y20571D01*
X30955Y20569D01*
X30951Y20567D01*
X30946Y20565D01*
X30940Y20562D01*
X30933Y20559D01*
X30925Y20557D01*
X30917Y20554D01*
X30916D01*
X30913Y20553D01*
X30908Y20552D01*
X30902Y20551D01*
X30893Y20549D01*
X30884Y20547D01*
X30872Y20545D01*
X30860Y20543D01*
X30417Y20447D01*
X30913D01*
X30916Y20447D01*
X30920D01*
X30924Y20446D01*
X30935Y20445D01*
X30946Y20442D01*
X30957Y20438D01*
X30968Y20433D01*
X30978Y20426D01*
X30979Y20425D01*
X30982Y20422D01*
X30986Y20417D01*
X30990Y20411D01*
X30994Y20402D01*
X30998Y20392D01*
X31001Y20381D01*
X31002Y20375D01*
X31002Y20369D01*
Y20368D01*
Y20367D01*
Y20365D01*
X31002Y20363D01*
X31001Y20356D01*
X30999Y20349D01*
X30997Y20340D01*
X30992Y20330D01*
X30987Y20321D01*
X30979Y20313D01*
X30978D01*
X30978Y20311D01*
X30976Y20310D01*
X30974Y20309D01*
X30969Y20306D01*
X30961Y20302D01*
X30951Y20298D01*
X30939Y20294D01*
X30925Y20292D01*
X30908Y20291D01*
X30328D01*
X30325Y20291D01*
X30321Y20292D01*
X30316Y20293D01*
X30305Y20294D01*
X30293Y20298D01*
X30281Y20303D01*
X30275Y20306D01*
X30270Y20310D01*
X30266Y20314D01*
X30262Y20319D01*
Y20320D01*
X30261Y20320D01*
X30260Y20322D01*
X30259Y20324D01*
X30257Y20327D01*
X30256Y20330D01*
X30254Y20335D01*
X30252Y20339D01*
X30249Y20350D01*
X30245Y20362D01*
X30243Y20377D01*
X30242Y20393D01*
Y20438D01*
Y20439D01*
Y20440D01*
Y20442D01*
Y20446D01*
Y20449D01*
X30243Y20453D01*
X30244Y20463D01*
X30245Y20473D01*
X30246Y20484D01*
X30249Y20495D01*
X30251Y20503D01*
X30252Y20505D01*
X30253Y20507D01*
X30255Y20511D01*
X30259Y20516D01*
X30262Y20521D01*
X30268Y20526D01*
X30274Y20531D01*
X30282Y20535D01*
X30283Y20535D01*
X30286Y20536D01*
X30291Y20538D01*
X30298Y20541D01*
X30307Y20544D01*
X30318Y20548D01*
X30332Y20552D01*
X30347Y20556D01*
X30737Y20652D01*
X30347Y20748D01*
X30347D01*
X30345Y20748D01*
X30343Y20749D01*
X30340Y20750D01*
X30336Y20750D01*
X30332Y20752D01*
X30322Y20755D01*
X30312Y20758D01*
X30301Y20762D01*
X30291Y20765D01*
X30282Y20769D01*
X30281Y20769D01*
X30278Y20770D01*
X30275Y20773D01*
X30270Y20776D01*
X30265Y20781D01*
X30260Y20786D01*
X30255Y20793D01*
X30251Y20800D01*
X30251Y20801D01*
X30250Y20804D01*
X30249Y20809D01*
X30247Y20816D01*
X30245Y20826D01*
X30244Y20837D01*
X30243Y20850D01*
X30242Y20865D01*
Y20911D01*
Y20911D01*
Y20913D01*
Y20915D01*
X30243Y20919D01*
Y20922D01*
X30244Y20927D01*
X30245Y20937D01*
X30247Y20949D01*
X30251Y20961D01*
X30255Y20974D01*
X30262Y20985D01*
Y20985D01*
X30263Y20986D01*
X30266Y20989D01*
X30268Y20991D01*
X30271Y20993D01*
X30274Y20996D01*
X30278Y20999D01*
X30282Y21002D01*
X30287Y21005D01*
X30293Y21007D01*
X30300Y21009D01*
X30307Y21011D01*
X30315Y21012D01*
X30324Y21013D01*
X30333Y21013D01*
X30913D01*
X30916Y21013D01*
D02*
G37*
G36*
X30930Y20195D02*
X30935Y20194D01*
X30942Y20193D01*
X30951Y20189D01*
X30960Y20185D01*
X30969Y20179D01*
X30974Y20175D01*
X30978Y20171D01*
X30979Y20170D01*
X30982Y20167D01*
X30986Y20162D01*
X30990Y20155D01*
X30994Y20147D01*
X30998Y20137D01*
X31001Y20125D01*
X31002Y20119D01*
X31002Y20113D01*
Y20112D01*
Y20109D01*
X31002Y20106D01*
X31001Y20101D01*
X31001Y20096D01*
X30999Y20090D01*
X30997Y20084D01*
X30995Y20078D01*
X30994Y20078D01*
X30994Y20076D01*
X30992Y20073D01*
X30990Y20070D01*
X30984Y20062D01*
X30976Y20054D01*
X30976Y20053D01*
X30974Y20052D01*
X30971Y20051D01*
X30967Y20048D01*
X30962Y20045D01*
X30956Y20042D01*
X30948Y20038D01*
X30939Y20034D01*
X30939D01*
X30938Y20033D01*
X30936Y20032D01*
X30931Y20031D01*
X30926Y20028D01*
X30915Y20023D01*
X30910Y20021D01*
X30906Y20019D01*
X30816Y19986D01*
Y19704D01*
X30903Y19672D01*
X30903D01*
X30905Y19671D01*
X30908Y19670D01*
X30912Y19669D01*
X30917Y19666D01*
X30922Y19664D01*
X30934Y19659D01*
X30947Y19654D01*
X30959Y19648D01*
X30972Y19641D01*
X30977Y19638D01*
X30981Y19635D01*
X30982Y19634D01*
X30984Y19632D01*
X30988Y19628D01*
X30992Y19622D01*
X30996Y19614D01*
X30999Y19605D01*
X31001Y19594D01*
X31002Y19580D01*
Y19580D01*
Y19579D01*
Y19577D01*
X31002Y19575D01*
X31001Y19569D01*
X30999Y19562D01*
X30997Y19553D01*
X30993Y19543D01*
X30987Y19533D01*
X30979Y19524D01*
X30979D01*
X30978Y19523D01*
X30976Y19520D01*
X30971Y19516D01*
X30964Y19512D01*
X30956Y19508D01*
X30947Y19504D01*
X30937Y19501D01*
X30931Y19501D01*
X30926Y19500D01*
X30923D01*
X30920Y19501D01*
X30915D01*
X30910Y19501D01*
X30905Y19502D01*
X30893Y19505D01*
X30892D01*
X30890Y19506D01*
X30886Y19507D01*
X30881Y19509D01*
X30875Y19511D01*
X30867Y19514D01*
X30857Y19518D01*
X30847Y19522D01*
X30375Y19708D01*
X30374Y19708D01*
X30372Y19709D01*
X30367Y19711D01*
X30361Y19713D01*
X30355Y19715D01*
X30346Y19719D01*
X30337Y19723D01*
X30326Y19726D01*
X30326D01*
X30325Y19727D01*
X30323Y19728D01*
X30321Y19729D01*
X30316Y19731D01*
X30309Y19734D01*
X30301Y19738D01*
X30293Y19742D01*
X30285Y19746D01*
X30277Y19751D01*
X30276Y19752D01*
X30273Y19754D01*
X30270Y19757D01*
X30265Y19761D01*
X30260Y19766D01*
X30254Y19772D01*
X30249Y19780D01*
X30244Y19788D01*
X30243Y19789D01*
X30241Y19792D01*
X30239Y19797D01*
X30237Y19804D01*
X30235Y19812D01*
X30232Y19822D01*
X30231Y19832D01*
X30230Y19845D01*
Y19845D01*
Y19846D01*
Y19848D01*
Y19850D01*
X30231Y19856D01*
X30232Y19864D01*
X30234Y19873D01*
X30236Y19882D01*
X30239Y19892D01*
X30244Y19901D01*
X30244Y19902D01*
X30246Y19905D01*
X30249Y19909D01*
X30252Y19914D01*
X30257Y19920D01*
X30263Y19926D01*
X30269Y19932D01*
X30276Y19937D01*
X30277Y19938D01*
X30280Y19940D01*
X30283Y19942D01*
X30288Y19945D01*
X30295Y19949D01*
X30301Y19952D01*
X30308Y19956D01*
X30316Y19959D01*
X30317Y19960D01*
X30319Y19961D01*
X30323Y19962D01*
X30330Y19965D01*
X30337Y19968D01*
X30346Y19971D01*
X30357Y19976D01*
X30369Y19980D01*
X30843Y20172D01*
X30843Y20173D01*
X30845Y20173D01*
X30848Y20174D01*
X30852Y20176D01*
X30857Y20178D01*
X30862Y20179D01*
X30874Y20184D01*
X30887Y20188D01*
X30901Y20192D01*
X30913Y20194D01*
X30920Y20195D01*
X30927D01*
X30930Y20195D01*
D02*
G37*
G36*
X30833Y22170D02*
X30840D01*
X30848Y22169D01*
X30856Y22168D01*
X30864Y22166D01*
X30872Y22164D01*
X30872D01*
X30875Y22163D01*
X30878Y22161D01*
X30883Y22159D01*
X30888Y22156D01*
X30894Y22152D01*
X30900Y22147D01*
X30905Y22142D01*
X30906Y22141D01*
X30907Y22139D01*
X30910Y22136D01*
X30914Y22131D01*
X30918Y22125D01*
X30923Y22118D01*
X30928Y22110D01*
X30933Y22102D01*
X30933Y22101D01*
X30935Y22099D01*
X30936Y22095D01*
X30939Y22091D01*
X30942Y22085D01*
X30945Y22077D01*
X30949Y22070D01*
X30953Y22061D01*
X30957Y22051D01*
X30962Y22041D01*
X30970Y22019D01*
X30978Y21996D01*
X30986Y21973D01*
Y21972D01*
X30986Y21970D01*
X30987Y21966D01*
X30988Y21961D01*
X30989Y21956D01*
X30991Y21949D01*
X30992Y21941D01*
X30994Y21933D01*
X30996Y21923D01*
X30997Y21912D01*
X30998Y21901D01*
X30999Y21889D01*
X31001Y21877D01*
X31002Y21864D01*
X31002Y21837D01*
Y21836D01*
Y21833D01*
Y21829D01*
X31002Y21823D01*
Y21815D01*
X31001Y21806D01*
X31000Y21796D01*
X30999Y21785D01*
X30998Y21773D01*
X30996Y21761D01*
X30991Y21734D01*
X30984Y21707D01*
X30981Y21693D01*
X30976Y21680D01*
X30976Y21679D01*
X30975Y21677D01*
X30973Y21673D01*
X30971Y21668D01*
X30968Y21662D01*
X30965Y21655D01*
X30961Y21647D01*
X30957Y21638D01*
X30951Y21629D01*
X30946Y21620D01*
X30939Y21609D01*
X30932Y21599D01*
X30925Y21589D01*
X30917Y21578D01*
X30908Y21568D01*
X30899Y21559D01*
X30898Y21558D01*
X30897Y21557D01*
X30894Y21554D01*
X30890Y21551D01*
X30885Y21547D01*
X30879Y21542D01*
X30872Y21536D01*
X30865Y21531D01*
X30856Y21525D01*
X30847Y21519D01*
X30837Y21512D01*
X30826Y21506D01*
X30815Y21500D01*
X30802Y21494D01*
X30790Y21487D01*
X30777Y21482D01*
X30776Y21482D01*
X30774Y21481D01*
X30770Y21480D01*
X30764Y21479D01*
X30757Y21476D01*
X30749Y21474D01*
X30740Y21472D01*
X30730Y21469D01*
X30718Y21467D01*
X30706Y21464D01*
X30693Y21462D01*
X30679Y21460D01*
X30664Y21458D01*
X30648Y21457D01*
X30633Y21456D01*
X30616Y21456D01*
X30608D01*
X30601Y21456D01*
X30594D01*
X30585Y21457D01*
X30575Y21458D01*
X30564Y21459D01*
X30552Y21460D01*
X30539Y21462D01*
X30513Y21466D01*
X30485Y21473D01*
X30471Y21477D01*
X30458Y21481D01*
X30457Y21482D01*
X30454Y21482D01*
X30451Y21484D01*
X30446Y21486D01*
X30439Y21489D01*
X30432Y21492D01*
X30424Y21496D01*
X30416Y21501D01*
X30406Y21506D01*
X30396Y21511D01*
X30386Y21518D01*
X30376Y21525D01*
X30365Y21532D01*
X30355Y21540D01*
X30345Y21549D01*
X30335Y21558D01*
X30335Y21558D01*
X30333Y21560D01*
X30330Y21563D01*
X30327Y21567D01*
X30322Y21572D01*
X30317Y21578D01*
X30312Y21585D01*
X30306Y21592D01*
X30300Y21601D01*
X30293Y21611D01*
X30287Y21621D01*
X30281Y21632D01*
X30275Y21643D01*
X30268Y21655D01*
X30262Y21668D01*
X30257Y21681D01*
X30257Y21682D01*
X30256Y21684D01*
X30255Y21688D01*
X30253Y21694D01*
X30251Y21701D01*
X30249Y21709D01*
X30246Y21718D01*
X30244Y21729D01*
X30241Y21741D01*
X30239Y21753D01*
X30236Y21766D01*
X30235Y21780D01*
X30232Y21796D01*
X30231Y21812D01*
X30231Y21828D01*
X30230Y21845D01*
Y21846D01*
Y21848D01*
Y21852D01*
X30231Y21858D01*
Y21864D01*
X30231Y21872D01*
X30232Y21880D01*
X30233Y21890D01*
X30234Y21900D01*
X30235Y21910D01*
X30239Y21933D01*
X30244Y21956D01*
X30251Y21978D01*
Y21979D01*
X30252Y21981D01*
X30253Y21984D01*
X30254Y21988D01*
X30256Y21993D01*
X30259Y21999D01*
X30261Y22005D01*
X30265Y22012D01*
X30272Y22027D01*
X30281Y22043D01*
X30291Y22059D01*
X30302Y22074D01*
X30302Y22074D01*
X30303Y22075D01*
X30305Y22077D01*
X30307Y22080D01*
X30310Y22082D01*
X30313Y22086D01*
X30322Y22094D01*
X30332Y22103D01*
X30343Y22112D01*
X30355Y22121D01*
X30368Y22129D01*
X30369D01*
X30370Y22130D01*
X30372Y22131D01*
X30375Y22132D01*
X30377Y22133D01*
X30381Y22135D01*
X30389Y22138D01*
X30399Y22142D01*
X30409Y22145D01*
X30421Y22147D01*
X30431Y22148D01*
X30434D01*
X30437Y22147D01*
X30443Y22147D01*
X30451Y22145D01*
X30459Y22142D01*
X30468Y22138D01*
X30478Y22132D01*
X30482Y22128D01*
X30487Y22124D01*
X30488Y22123D01*
X30490Y22120D01*
X30494Y22115D01*
X30498Y22108D01*
X30502Y22100D01*
X30505Y22090D01*
X30508Y22080D01*
X30509Y22067D01*
Y22067D01*
Y22064D01*
X30508Y22061D01*
X30508Y22056D01*
X30507Y22051D01*
X30505Y22045D01*
X30503Y22039D01*
X30500Y22032D01*
X30500Y22031D01*
X30499Y22029D01*
X30497Y22026D01*
X30494Y22022D01*
X30491Y22018D01*
X30487Y22014D01*
X30482Y22009D01*
X30477Y22005D01*
X30477Y22004D01*
X30476Y22004D01*
X30473Y22002D01*
X30470Y22000D01*
X30467Y21997D01*
X30462Y21995D01*
X30453Y21989D01*
X30443Y21981D01*
X30432Y21974D01*
X30422Y21966D01*
X30413Y21959D01*
X30412Y21959D01*
X30410Y21956D01*
X30406Y21952D01*
X30401Y21946D01*
X30396Y21940D01*
X30389Y21931D01*
X30384Y21922D01*
X30378Y21911D01*
Y21910D01*
X30378Y21910D01*
X30377Y21908D01*
X30376Y21905D01*
X30375Y21903D01*
X30374Y21899D01*
X30372Y21895D01*
X30371Y21890D01*
X30368Y21879D01*
X30366Y21866D01*
X30365Y21851D01*
X30364Y21834D01*
Y21834D01*
Y21832D01*
Y21829D01*
Y21826D01*
X30365Y21822D01*
X30365Y21817D01*
X30366Y21811D01*
X30366Y21805D01*
X30368Y21792D01*
X30371Y21777D01*
X30376Y21762D01*
X30381Y21747D01*
Y21747D01*
X30382Y21746D01*
X30383Y21743D01*
X30384Y21741D01*
X30386Y21738D01*
X30388Y21734D01*
X30393Y21724D01*
X30400Y21714D01*
X30408Y21703D01*
X30418Y21692D01*
X30429Y21682D01*
X30430Y21681D01*
X30431Y21681D01*
X30433Y21679D01*
X30435Y21677D01*
X30438Y21675D01*
X30442Y21672D01*
X30446Y21669D01*
X30451Y21667D01*
X30463Y21660D01*
X30476Y21653D01*
X30491Y21647D01*
X30508Y21641D01*
X30509D01*
X30510Y21640D01*
X30513Y21640D01*
X30517Y21638D01*
X30521Y21637D01*
X30526Y21636D01*
X30532Y21635D01*
X30539Y21633D01*
X30546Y21632D01*
X30554Y21631D01*
X30563Y21630D01*
X30572Y21628D01*
X30591Y21627D01*
X30612Y21626D01*
X30620D01*
X30624Y21627D01*
X30633Y21627D01*
X30643Y21628D01*
X30655Y21629D01*
X30668Y21631D01*
X30683Y21633D01*
X30698Y21636D01*
X30713Y21640D01*
X30729Y21645D01*
X30745Y21650D01*
X30760Y21656D01*
X30775Y21663D01*
X30789Y21672D01*
X30802Y21682D01*
X30802Y21682D01*
X30805Y21684D01*
X30808Y21688D01*
X30812Y21692D01*
X30817Y21698D01*
X30822Y21705D01*
X30828Y21713D01*
X30835Y21722D01*
X30841Y21733D01*
X30847Y21744D01*
X30852Y21757D01*
X30857Y21772D01*
X30861Y21787D01*
X30865Y21803D01*
X30867Y21820D01*
X30867Y21838D01*
Y21839D01*
Y21840D01*
Y21843D01*
Y21847D01*
X30867Y21851D01*
Y21856D01*
X30866Y21862D01*
X30866Y21868D01*
X30864Y21883D01*
X30862Y21898D01*
X30859Y21914D01*
X30855Y21931D01*
Y21931D01*
X30854Y21933D01*
X30853Y21935D01*
X30852Y21939D01*
X30851Y21943D01*
X30850Y21947D01*
X30847Y21952D01*
X30846Y21958D01*
X30841Y21971D01*
X30835Y21985D01*
X30828Y22000D01*
X30820Y22015D01*
X30719D01*
Y21911D01*
Y21910D01*
Y21909D01*
Y21906D01*
Y21904D01*
X30718Y21900D01*
Y21895D01*
X30717Y21885D01*
X30715Y21874D01*
X30712Y21863D01*
X30709Y21852D01*
X30704Y21842D01*
X30704Y21840D01*
X30701Y21838D01*
X30698Y21834D01*
X30693Y21829D01*
X30685Y21825D01*
X30677Y21821D01*
X30666Y21818D01*
X30660Y21818D01*
X30654Y21817D01*
X30653D01*
X30649Y21818D01*
X30644Y21818D01*
X30637Y21820D01*
X30630Y21822D01*
X30622Y21826D01*
X30614Y21831D01*
X30606Y21838D01*
X30606Y21839D01*
X30604Y21842D01*
X30600Y21846D01*
X30597Y21853D01*
X30594Y21860D01*
X30590Y21870D01*
X30588Y21881D01*
X30588Y21893D01*
Y22060D01*
Y22061D01*
Y22062D01*
Y22064D01*
Y22066D01*
X30588Y22072D01*
Y22079D01*
X30589Y22088D01*
X30590Y22097D01*
X30592Y22107D01*
X30594Y22116D01*
Y22117D01*
X30595Y22117D01*
X30595Y22120D01*
X30598Y22125D01*
X30600Y22130D01*
X30604Y22136D01*
X30609Y22143D01*
X30615Y22149D01*
X30622Y22155D01*
X30623Y22156D01*
X30626Y22157D01*
X30631Y22160D01*
X30638Y22163D01*
X30646Y22166D01*
X30658Y22168D01*
X30670Y22170D01*
X30684Y22171D01*
X30828D01*
X30833Y22170D01*
D02*
G37*
G36*
X30911Y21335D02*
X30915D01*
X30920Y21334D01*
X30930Y21333D01*
X30942Y21330D01*
X30954Y21325D01*
X30967Y21319D01*
X30972Y21316D01*
X30977Y21312D01*
X30978Y21310D01*
X30981Y21307D01*
X30985Y21302D01*
X30989Y21295D01*
X30994Y21287D01*
X30998Y21276D01*
X31001Y21264D01*
X31002Y21257D01*
X31002Y21250D01*
Y21250D01*
Y21249D01*
Y21247D01*
X31002Y21244D01*
Y21241D01*
X31001Y21238D01*
X30999Y21229D01*
X30996Y21220D01*
X30992Y21210D01*
X30985Y21200D01*
X30981Y21195D01*
X30977Y21191D01*
X30976D01*
X30976Y21189D01*
X30974Y21188D01*
X30972Y21187D01*
X30969Y21185D01*
X30966Y21183D01*
X30962Y21181D01*
X30958Y21179D01*
X30953Y21177D01*
X30947Y21174D01*
X30941Y21173D01*
X30935Y21171D01*
X30927Y21169D01*
X30920Y21168D01*
X30902Y21167D01*
X30325D01*
X30322Y21168D01*
X30317D01*
X30313Y21168D01*
X30302Y21170D01*
X30290Y21173D01*
X30278Y21177D01*
X30266Y21182D01*
X30256Y21190D01*
X30255Y21191D01*
X30255Y21191D01*
X30252Y21194D01*
X30247Y21199D01*
X30243Y21206D01*
X30239Y21215D01*
X30234Y21225D01*
X30231Y21237D01*
X30230Y21244D01*
Y21250D01*
Y21251D01*
Y21252D01*
Y21254D01*
X30231Y21257D01*
Y21260D01*
X30231Y21264D01*
X30234Y21272D01*
X30236Y21282D01*
X30241Y21292D01*
X30247Y21302D01*
X30251Y21307D01*
X30256Y21312D01*
X30256Y21312D01*
X30257Y21313D01*
X30259Y21314D01*
X30261Y21315D01*
X30263Y21317D01*
X30266Y21319D01*
X30270Y21322D01*
X30275Y21324D01*
X30280Y21326D01*
X30285Y21328D01*
X30291Y21330D01*
X30297Y21331D01*
X30312Y21334D01*
X30321Y21335D01*
X30907D01*
X30911Y21335D01*
D02*
G37*
G36*
X18655Y20405D02*
X18660D01*
X18665Y20404D01*
X18676Y20403D01*
X18688Y20399D01*
X18701Y20396D01*
X18713Y20389D01*
X18718Y20386D01*
X18723Y20382D01*
X18724Y20381D01*
X18724Y20381D01*
X18725Y20379D01*
X18727Y20377D01*
X18729Y20374D01*
X18731Y20371D01*
X18733Y20367D01*
X18735Y20363D01*
X18738Y20358D01*
X18740Y20352D01*
X18742Y20346D01*
X18744Y20339D01*
X18745Y20332D01*
X18746Y20323D01*
X18748Y20315D01*
Y20305D01*
Y20065D01*
Y20065D01*
Y20063D01*
Y20060D01*
Y20057D01*
Y20053D01*
Y20048D01*
X18747Y20042D01*
Y20036D01*
X18746Y20023D01*
X18746Y20008D01*
X18745Y19994D01*
X18743Y19979D01*
Y19979D01*
Y19978D01*
X18743Y19975D01*
X18742Y19973D01*
X18741Y19970D01*
X18741Y19966D01*
X18739Y19957D01*
X18737Y19947D01*
X18734Y19935D01*
X18730Y19924D01*
X18725Y19913D01*
Y19913D01*
X18725Y19912D01*
X18724Y19910D01*
X18723Y19907D01*
X18721Y19904D01*
X18719Y19901D01*
X18714Y19892D01*
X18708Y19882D01*
X18700Y19871D01*
X18692Y19860D01*
X18682Y19849D01*
X18681Y19849D01*
X18680Y19848D01*
X18679Y19847D01*
X18677Y19845D01*
X18670Y19839D01*
X18663Y19833D01*
X18653Y19827D01*
X18642Y19819D01*
X18629Y19813D01*
X18615Y19807D01*
X18615D01*
X18614Y19806D01*
X18612Y19806D01*
X18609Y19804D01*
X18606Y19803D01*
X18602Y19802D01*
X18597Y19801D01*
X18592Y19799D01*
X18580Y19797D01*
X18567Y19794D01*
X18552Y19793D01*
X18537Y19792D01*
X18533D01*
X18529Y19793D01*
X18523D01*
X18516Y19794D01*
X18507Y19795D01*
X18498Y19796D01*
X18488Y19798D01*
X18477Y19801D01*
X18466Y19804D01*
X18455Y19808D01*
X18443Y19813D01*
X18432Y19818D01*
X18421Y19825D01*
X18410Y19832D01*
X18400Y19841D01*
X18400Y19842D01*
X18398Y19843D01*
X18395Y19846D01*
X18392Y19850D01*
X18388Y19855D01*
X18383Y19861D01*
X18378Y19868D01*
X18373Y19876D01*
X18367Y19886D01*
X18362Y19896D01*
X18356Y19907D01*
X18351Y19919D01*
X18346Y19932D01*
X18341Y19947D01*
X18337Y19962D01*
X18334Y19978D01*
Y19977D01*
X18334Y19976D01*
X18333Y19974D01*
X18332Y19972D01*
X18331Y19968D01*
X18329Y19964D01*
X18325Y19955D01*
X18321Y19950D01*
X18318Y19944D01*
X18314Y19939D01*
X18309Y19933D01*
X18304Y19926D01*
X18297Y19919D01*
X18291Y19913D01*
X18284Y19906D01*
X18283Y19906D01*
X18282Y19904D01*
X18280Y19903D01*
X18276Y19900D01*
X18273Y19897D01*
X18268Y19893D01*
X18263Y19889D01*
X18258Y19884D01*
X18244Y19874D01*
X18229Y19863D01*
X18213Y19852D01*
X18196Y19841D01*
X18195Y19841D01*
X18194Y19840D01*
X18191Y19838D01*
X18188Y19836D01*
X18184Y19834D01*
X18179Y19831D01*
X18174Y19828D01*
X18168Y19824D01*
X18155Y19817D01*
X18140Y19810D01*
X18125Y19803D01*
X18110Y19796D01*
X18110D01*
X18109Y19796D01*
X18107Y19794D01*
X18104Y19793D01*
X18098Y19791D01*
X18089Y19788D01*
X18080Y19785D01*
X18072Y19782D01*
X18064Y19780D01*
X18057Y19780D01*
X18054D01*
X18051Y19780D01*
X18046Y19781D01*
X18041Y19782D01*
X18035Y19784D01*
X18029Y19787D01*
X18023Y19791D01*
X18022Y19791D01*
X18020Y19792D01*
X18017Y19795D01*
X18013Y19798D01*
X18009Y19802D01*
X18005Y19807D01*
X18001Y19813D01*
X17997Y19819D01*
X17997Y19820D01*
X17996Y19823D01*
X17994Y19827D01*
X17993Y19832D01*
X17991Y19838D01*
X17989Y19845D01*
X17988Y19853D01*
X17988Y19861D01*
Y19862D01*
Y19862D01*
Y19866D01*
X17988Y19871D01*
X17989Y19878D01*
X17991Y19885D01*
X17993Y19893D01*
X17996Y19901D01*
X18001Y19908D01*
X18001Y19909D01*
X18003Y19912D01*
X18006Y19915D01*
X18009Y19919D01*
X18014Y19924D01*
X18019Y19929D01*
X18025Y19935D01*
X18032Y19940D01*
X18033Y19940D01*
X18035Y19942D01*
X18039Y19945D01*
X18046Y19949D01*
X18053Y19954D01*
X18062Y19959D01*
X18073Y19966D01*
X18086Y19974D01*
X18196Y20034D01*
X18197Y20035D01*
X18198Y20035D01*
X18200Y20037D01*
X18204Y20039D01*
X18207Y20042D01*
X18211Y20045D01*
X18221Y20053D01*
X18231Y20061D01*
X18243Y20070D01*
X18254Y20079D01*
X18265Y20089D01*
X18265D01*
X18266Y20090D01*
X18269Y20093D01*
X18274Y20098D01*
X18279Y20103D01*
X18285Y20110D01*
X18291Y20119D01*
X18296Y20127D01*
X18301Y20136D01*
X18301Y20137D01*
X18302Y20140D01*
X18304Y20145D01*
X18306Y20152D01*
X18307Y20161D01*
X18309Y20171D01*
X18310Y20183D01*
X18311Y20196D01*
Y20237D01*
X18083D01*
X18079Y20238D01*
X18075D01*
X18070Y20239D01*
X18059Y20240D01*
X18048Y20243D01*
X18035Y20247D01*
X18023Y20253D01*
X18018Y20257D01*
X18013Y20261D01*
X18012Y20262D01*
X18009Y20266D01*
X18005Y20271D01*
X18001Y20277D01*
X17996Y20286D01*
X17992Y20297D01*
X17989Y20308D01*
X17988Y20315D01*
X17988Y20322D01*
Y20322D01*
Y20323D01*
Y20326D01*
X17988Y20328D01*
Y20332D01*
X17989Y20336D01*
X17991Y20345D01*
X17994Y20354D01*
X17998Y20365D01*
X18005Y20375D01*
X18009Y20379D01*
X18013Y20384D01*
X18014D01*
X18014Y20385D01*
X18016Y20386D01*
X18018Y20387D01*
X18021Y20389D01*
X18024Y20391D01*
X18028Y20393D01*
X18032Y20394D01*
X18037Y20397D01*
X18043Y20399D01*
X18055Y20402D01*
X18070Y20404D01*
X18088Y20406D01*
X18652D01*
X18655Y20405D01*
D02*
G37*
G36*
X18389Y22768D02*
X18396D01*
X18405Y22767D01*
X18415Y22766D01*
X18426Y22765D01*
X18438Y22764D01*
X18451Y22762D01*
X18477Y22758D01*
X18505Y22751D01*
X18519Y22747D01*
X18532Y22743D01*
X18533Y22742D01*
X18536Y22742D01*
X18539Y22740D01*
X18544Y22738D01*
X18551Y22735D01*
X18558Y22732D01*
X18566Y22728D01*
X18574Y22723D01*
X18584Y22718D01*
X18594Y22713D01*
X18604Y22706D01*
X18614Y22699D01*
X18625Y22692D01*
X18635Y22684D01*
X18645Y22676D01*
X18655Y22666D01*
X18655Y22666D01*
X18657Y22664D01*
X18660Y22661D01*
X18663Y22657D01*
X18668Y22652D01*
X18673Y22646D01*
X18678Y22639D01*
X18684Y22632D01*
X18690Y22623D01*
X18697Y22613D01*
X18703Y22603D01*
X18709Y22592D01*
X18715Y22581D01*
X18721Y22569D01*
X18728Y22556D01*
X18733Y22543D01*
X18733Y22542D01*
X18734Y22540D01*
X18735Y22536D01*
X18737Y22530D01*
X18739Y22523D01*
X18741Y22515D01*
X18744Y22506D01*
X18746Y22495D01*
X18749Y22483D01*
X18751Y22471D01*
X18754Y22458D01*
X18755Y22444D01*
X18758Y22428D01*
X18759Y22412D01*
X18759Y22396D01*
X18760Y22379D01*
Y22378D01*
Y22376D01*
Y22372D01*
X18759Y22366D01*
Y22360D01*
X18759Y22352D01*
X18758Y22344D01*
X18757Y22334D01*
X18756Y22324D01*
X18755Y22314D01*
X18751Y22291D01*
X18746Y22268D01*
X18739Y22246D01*
Y22245D01*
X18738Y22243D01*
X18737Y22240D01*
X18736Y22236D01*
X18734Y22231D01*
X18731Y22225D01*
X18729Y22219D01*
X18725Y22212D01*
X18718Y22197D01*
X18709Y22181D01*
X18699Y22165D01*
X18688Y22150D01*
X18688Y22150D01*
X18687Y22149D01*
X18685Y22147D01*
X18683Y22144D01*
X18680Y22142D01*
X18677Y22138D01*
X18668Y22130D01*
X18658Y22121D01*
X18647Y22112D01*
X18635Y22103D01*
X18622Y22095D01*
X18621D01*
X18620Y22094D01*
X18618Y22093D01*
X18615Y22092D01*
X18613Y22091D01*
X18609Y22089D01*
X18601Y22086D01*
X18591Y22082D01*
X18581Y22079D01*
X18569Y22077D01*
X18559Y22076D01*
X18556D01*
X18553Y22077D01*
X18547Y22077D01*
X18539Y22079D01*
X18531Y22082D01*
X18522Y22086D01*
X18512Y22092D01*
X18508Y22096D01*
X18503Y22100D01*
X18502Y22101D01*
X18500Y22104D01*
X18496Y22109D01*
X18492Y22116D01*
X18488Y22124D01*
X18485Y22134D01*
X18482Y22144D01*
X18481Y22157D01*
Y22157D01*
Y22160D01*
X18482Y22163D01*
X18482Y22168D01*
X18483Y22173D01*
X18485Y22179D01*
X18487Y22185D01*
X18490Y22192D01*
X18490Y22193D01*
X18491Y22195D01*
X18493Y22198D01*
X18496Y22202D01*
X18499Y22206D01*
X18503Y22210D01*
X18508Y22215D01*
X18513Y22219D01*
X18513Y22220D01*
X18514Y22220D01*
X18517Y22222D01*
X18520Y22224D01*
X18523Y22227D01*
X18528Y22229D01*
X18537Y22235D01*
X18547Y22243D01*
X18558Y22250D01*
X18568Y22258D01*
X18577Y22265D01*
X18578Y22265D01*
X18580Y22268D01*
X18584Y22272D01*
X18589Y22278D01*
X18594Y22284D01*
X18601Y22293D01*
X18606Y22302D01*
X18612Y22313D01*
Y22314D01*
X18612Y22314D01*
X18613Y22316D01*
X18614Y22319D01*
X18615Y22321D01*
X18616Y22325D01*
X18618Y22329D01*
X18619Y22334D01*
X18622Y22345D01*
X18624Y22358D01*
X18625Y22373D01*
X18626Y22390D01*
Y22390D01*
Y22392D01*
Y22395D01*
Y22398D01*
X18625Y22402D01*
X18625Y22407D01*
X18624Y22413D01*
X18624Y22419D01*
X18622Y22432D01*
X18619Y22447D01*
X18614Y22462D01*
X18609Y22477D01*
Y22477D01*
X18608Y22478D01*
X18607Y22481D01*
X18606Y22483D01*
X18604Y22486D01*
X18602Y22490D01*
X18597Y22500D01*
X18590Y22510D01*
X18582Y22521D01*
X18572Y22532D01*
X18561Y22542D01*
X18560Y22543D01*
X18559Y22543D01*
X18557Y22545D01*
X18555Y22547D01*
X18552Y22549D01*
X18548Y22552D01*
X18544Y22555D01*
X18539Y22557D01*
X18527Y22564D01*
X18514Y22571D01*
X18499Y22577D01*
X18482Y22583D01*
X18481D01*
X18480Y22584D01*
X18477Y22584D01*
X18473Y22586D01*
X18469Y22587D01*
X18464Y22588D01*
X18458Y22589D01*
X18451Y22591D01*
X18444Y22592D01*
X18436Y22593D01*
X18427Y22594D01*
X18418Y22596D01*
X18399Y22597D01*
X18378Y22598D01*
X18370D01*
X18366Y22597D01*
X18357Y22597D01*
X18347Y22596D01*
X18335Y22595D01*
X18322Y22593D01*
X18307Y22591D01*
X18292Y22588D01*
X18277Y22584D01*
X18261Y22580D01*
X18245Y22575D01*
X18230Y22568D01*
X18215Y22561D01*
X18201Y22552D01*
X18188Y22542D01*
X18188Y22542D01*
X18185Y22540D01*
X18182Y22536D01*
X18178Y22532D01*
X18173Y22526D01*
X18168Y22519D01*
X18161Y22511D01*
X18155Y22502D01*
X18149Y22491D01*
X18143Y22480D01*
X18138Y22467D01*
X18133Y22452D01*
X18129Y22437D01*
X18125Y22421D01*
X18123Y22404D01*
X18123Y22386D01*
Y22385D01*
Y22384D01*
Y22381D01*
Y22377D01*
X18123Y22373D01*
Y22368D01*
X18124Y22362D01*
X18124Y22356D01*
X18126Y22341D01*
X18128Y22326D01*
X18131Y22310D01*
X18135Y22293D01*
Y22293D01*
X18136Y22291D01*
X18137Y22289D01*
X18138Y22285D01*
X18139Y22281D01*
X18140Y22277D01*
X18143Y22272D01*
X18144Y22266D01*
X18149Y22253D01*
X18155Y22239D01*
X18162Y22224D01*
X18170Y22209D01*
X18271D01*
Y22313D01*
Y22314D01*
Y22315D01*
Y22318D01*
Y22320D01*
X18272Y22324D01*
Y22329D01*
X18273Y22339D01*
X18275Y22350D01*
X18277Y22361D01*
X18281Y22372D01*
X18286Y22382D01*
X18286Y22384D01*
X18289Y22386D01*
X18292Y22390D01*
X18297Y22395D01*
X18305Y22399D01*
X18313Y22403D01*
X18324Y22406D01*
X18330Y22406D01*
X18336Y22407D01*
X18337D01*
X18341Y22406D01*
X18346Y22406D01*
X18353Y22404D01*
X18360Y22402D01*
X18368Y22398D01*
X18376Y22393D01*
X18384Y22386D01*
X18384Y22385D01*
X18386Y22382D01*
X18390Y22378D01*
X18393Y22371D01*
X18396Y22364D01*
X18400Y22354D01*
X18402Y22343D01*
X18402Y22331D01*
Y22164D01*
Y22163D01*
Y22162D01*
Y22160D01*
Y22158D01*
X18402Y22152D01*
Y22145D01*
X18401Y22136D01*
X18400Y22127D01*
X18398Y22117D01*
X18396Y22108D01*
Y22107D01*
X18395Y22107D01*
X18395Y22104D01*
X18392Y22099D01*
X18390Y22094D01*
X18386Y22088D01*
X18381Y22081D01*
X18375Y22075D01*
X18368Y22069D01*
X18367Y22068D01*
X18364Y22067D01*
X18359Y22064D01*
X18352Y22061D01*
X18344Y22058D01*
X18332Y22056D01*
X18320Y22054D01*
X18306Y22053D01*
X18161D01*
X18156Y22054D01*
X18150D01*
X18142Y22055D01*
X18134Y22056D01*
X18126Y22058D01*
X18118Y22060D01*
X18118D01*
X18115Y22061D01*
X18112Y22063D01*
X18107Y22065D01*
X18102Y22068D01*
X18096Y22072D01*
X18090Y22077D01*
X18085Y22082D01*
X18084Y22083D01*
X18083Y22085D01*
X18080Y22088D01*
X18076Y22093D01*
X18072Y22099D01*
X18067Y22106D01*
X18062Y22114D01*
X18057Y22122D01*
X18057Y22123D01*
X18055Y22125D01*
X18054Y22129D01*
X18051Y22133D01*
X18048Y22139D01*
X18045Y22147D01*
X18041Y22154D01*
X18037Y22163D01*
X18033Y22173D01*
X18028Y22183D01*
X18020Y22205D01*
X18012Y22228D01*
X18004Y22251D01*
Y22252D01*
X18004Y22254D01*
X18003Y22258D01*
X18002Y22263D01*
X18001Y22268D01*
X17999Y22275D01*
X17998Y22283D01*
X17996Y22291D01*
X17994Y22301D01*
X17993Y22312D01*
X17992Y22323D01*
X17991Y22335D01*
X17989Y22347D01*
X17988Y22360D01*
X17988Y22387D01*
Y22388D01*
Y22391D01*
Y22395D01*
X17988Y22401D01*
Y22409D01*
X17989Y22418D01*
X17990Y22428D01*
X17991Y22439D01*
X17992Y22451D01*
X17994Y22463D01*
X17999Y22490D01*
X18006Y22517D01*
X18009Y22531D01*
X18014Y22544D01*
X18014Y22545D01*
X18015Y22547D01*
X18017Y22551D01*
X18019Y22556D01*
X18022Y22562D01*
X18025Y22569D01*
X18029Y22577D01*
X18033Y22586D01*
X18039Y22595D01*
X18044Y22604D01*
X18051Y22615D01*
X18058Y22625D01*
X18065Y22635D01*
X18073Y22646D01*
X18082Y22656D01*
X18091Y22665D01*
X18092Y22666D01*
X18093Y22667D01*
X18096Y22670D01*
X18100Y22673D01*
X18105Y22677D01*
X18111Y22682D01*
X18118Y22688D01*
X18125Y22693D01*
X18134Y22699D01*
X18143Y22705D01*
X18153Y22712D01*
X18164Y22718D01*
X18175Y22724D01*
X18188Y22730D01*
X18200Y22737D01*
X18213Y22742D01*
X18214Y22742D01*
X18216Y22743D01*
X18220Y22744D01*
X18226Y22745D01*
X18233Y22748D01*
X18241Y22750D01*
X18250Y22752D01*
X18260Y22755D01*
X18272Y22757D01*
X18284Y22760D01*
X18297Y22762D01*
X18311Y22764D01*
X18326Y22766D01*
X18342Y22767D01*
X18357Y22768D01*
X18374Y22768D01*
X18382D01*
X18389Y22768D01*
D02*
G37*
G36*
X18070Y21969D02*
X18075D01*
X18080Y21968D01*
X18085Y21967D01*
X18097Y21965D01*
X18098D01*
X18100Y21963D01*
X18104Y21962D01*
X18109Y21961D01*
X18115Y21958D01*
X18123Y21956D01*
X18133Y21952D01*
X18143Y21948D01*
X18615Y21762D01*
X18616Y21761D01*
X18618Y21760D01*
X18623Y21759D01*
X18629Y21756D01*
X18635Y21754D01*
X18644Y21751D01*
X18653Y21747D01*
X18664Y21743D01*
X18664D01*
X18665Y21743D01*
X18667Y21742D01*
X18669Y21741D01*
X18674Y21739D01*
X18681Y21735D01*
X18689Y21732D01*
X18697Y21728D01*
X18705Y21723D01*
X18713Y21718D01*
X18714Y21718D01*
X18716Y21715D01*
X18720Y21713D01*
X18725Y21708D01*
X18730Y21703D01*
X18736Y21697D01*
X18741Y21690D01*
X18746Y21682D01*
X18747Y21680D01*
X18749Y21677D01*
X18751Y21673D01*
X18753Y21665D01*
X18755Y21658D01*
X18758Y21648D01*
X18759Y21637D01*
X18760Y21625D01*
Y21624D01*
Y21623D01*
Y21622D01*
Y21619D01*
X18759Y21613D01*
X18758Y21605D01*
X18756Y21597D01*
X18754Y21587D01*
X18751Y21578D01*
X18746Y21569D01*
X18746Y21568D01*
X18744Y21565D01*
X18741Y21561D01*
X18738Y21556D01*
X18733Y21549D01*
X18727Y21543D01*
X18721Y21538D01*
X18714Y21532D01*
X18713Y21532D01*
X18710Y21530D01*
X18707Y21527D01*
X18702Y21524D01*
X18695Y21521D01*
X18689Y21517D01*
X18682Y21514D01*
X18674Y21511D01*
X18673Y21510D01*
X18671Y21509D01*
X18667Y21507D01*
X18660Y21505D01*
X18653Y21502D01*
X18644Y21498D01*
X18633Y21494D01*
X18621Y21489D01*
X18147Y21297D01*
X18147Y21297D01*
X18145Y21296D01*
X18142Y21295D01*
X18138Y21294D01*
X18133Y21292D01*
X18128Y21290D01*
X18116Y21286D01*
X18103Y21281D01*
X18089Y21278D01*
X18077Y21275D01*
X18070Y21274D01*
X18063D01*
X18060Y21275D01*
X18055Y21275D01*
X18048Y21277D01*
X18039Y21280D01*
X18030Y21285D01*
X18021Y21290D01*
X18016Y21294D01*
X18012Y21299D01*
X18011Y21300D01*
X18008Y21303D01*
X18004Y21308D01*
X18000Y21315D01*
X17996Y21323D01*
X17992Y21333D01*
X17989Y21345D01*
X17988Y21351D01*
X17988Y21357D01*
Y21358D01*
Y21360D01*
X17988Y21364D01*
X17989Y21368D01*
X17989Y21374D01*
X17991Y21380D01*
X17993Y21386D01*
X17995Y21391D01*
X17996Y21392D01*
X17996Y21393D01*
X17998Y21396D01*
X18000Y21400D01*
X18006Y21407D01*
X18014Y21416D01*
X18014Y21416D01*
X18016Y21417D01*
X18019Y21419D01*
X18023Y21422D01*
X18028Y21425D01*
X18034Y21428D01*
X18042Y21432D01*
X18051Y21436D01*
X18051D01*
X18052Y21436D01*
X18054Y21437D01*
X18059Y21439D01*
X18064Y21441D01*
X18075Y21446D01*
X18080Y21448D01*
X18084Y21451D01*
X18174Y21484D01*
Y21765D01*
X18087Y21797D01*
X18087D01*
X18085Y21799D01*
X18082Y21800D01*
X18078Y21801D01*
X18073Y21803D01*
X18068Y21805D01*
X18056Y21810D01*
X18043Y21816D01*
X18031Y21822D01*
X18018Y21829D01*
X18013Y21831D01*
X18009Y21835D01*
X18008Y21835D01*
X18006Y21838D01*
X18002Y21842D01*
X17998Y21847D01*
X17994Y21855D01*
X17991Y21865D01*
X17989Y21876D01*
X17988Y21889D01*
Y21890D01*
Y21891D01*
Y21892D01*
X17988Y21895D01*
X17989Y21901D01*
X17991Y21908D01*
X17993Y21917D01*
X17997Y21926D01*
X18003Y21936D01*
X18011Y21946D01*
X18011D01*
X18012Y21947D01*
X18014Y21950D01*
X18019Y21953D01*
X18026Y21957D01*
X18034Y21962D01*
X18043Y21966D01*
X18053Y21968D01*
X18059Y21969D01*
X18064Y21970D01*
X18067D01*
X18070Y21969D01*
D02*
G37*
G36*
X18665Y24299D02*
X18669Y24299D01*
X18674Y24298D01*
X18685Y24297D01*
X18697Y24293D01*
X18709Y24288D01*
X18715Y24285D01*
X18720Y24281D01*
X18724Y24277D01*
X18728Y24272D01*
Y24271D01*
X18729Y24271D01*
X18730Y24269D01*
X18731Y24267D01*
X18733Y24264D01*
X18734Y24261D01*
X18736Y24256D01*
X18738Y24252D01*
X18741Y24241D01*
X18745Y24228D01*
X18747Y24214D01*
X18748Y24198D01*
Y24152D01*
Y24152D01*
Y24151D01*
Y24148D01*
Y24145D01*
Y24142D01*
X18747Y24137D01*
X18746Y24128D01*
X18745Y24117D01*
X18744Y24107D01*
X18741Y24096D01*
X18739Y24087D01*
X18738Y24086D01*
X18737Y24084D01*
X18735Y24080D01*
X18731Y24075D01*
X18728Y24070D01*
X18722Y24065D01*
X18716Y24060D01*
X18708Y24056D01*
X18707Y24056D01*
X18704Y24055D01*
X18699Y24052D01*
X18692Y24050D01*
X18683Y24047D01*
X18672Y24043D01*
X18658Y24039D01*
X18643Y24035D01*
X18253Y23939D01*
X18643Y23843D01*
X18643D01*
X18645Y23843D01*
X18647Y23842D01*
X18650Y23841D01*
X18654Y23840D01*
X18658Y23839D01*
X18668Y23836D01*
X18678Y23833D01*
X18689Y23829D01*
X18699Y23825D01*
X18708Y23822D01*
X18709Y23822D01*
X18712Y23820D01*
X18715Y23818D01*
X18720Y23814D01*
X18725Y23810D01*
X18730Y23804D01*
X18735Y23798D01*
X18739Y23791D01*
X18739Y23789D01*
X18740Y23787D01*
X18741Y23782D01*
X18743Y23774D01*
X18745Y23765D01*
X18746Y23754D01*
X18747Y23741D01*
X18748Y23726D01*
Y23680D01*
Y23679D01*
Y23678D01*
Y23676D01*
X18747Y23672D01*
Y23668D01*
X18746Y23664D01*
X18745Y23654D01*
X18743Y23642D01*
X18739Y23630D01*
X18735Y23617D01*
X18728Y23606D01*
Y23606D01*
X18727Y23605D01*
X18724Y23602D01*
X18722Y23600D01*
X18719Y23597D01*
X18716Y23595D01*
X18712Y23592D01*
X18708Y23589D01*
X18703Y23586D01*
X18697Y23584D01*
X18690Y23582D01*
X18683Y23580D01*
X18675Y23578D01*
X18666Y23578D01*
X18657Y23577D01*
X18077D01*
X18074Y23578D01*
X18070D01*
X18066Y23578D01*
X18055Y23580D01*
X18044Y23582D01*
X18033Y23586D01*
X18022Y23592D01*
X18012Y23599D01*
X18011Y23600D01*
X18008Y23603D01*
X18004Y23608D01*
X18000Y23615D01*
X17996Y23622D01*
X17992Y23632D01*
X17989Y23644D01*
X17988Y23650D01*
X17988Y23657D01*
Y23657D01*
Y23658D01*
Y23660D01*
X17988Y23662D01*
X17989Y23668D01*
X17991Y23676D01*
X17994Y23685D01*
X17998Y23694D01*
X18004Y23703D01*
X18007Y23708D01*
X18012Y23712D01*
X18012D01*
X18013Y23713D01*
X18016Y23716D01*
X18022Y23719D01*
X18029Y23723D01*
X18039Y23727D01*
X18051Y23731D01*
X18065Y23733D01*
X18082Y23734D01*
X18573D01*
X18117Y23830D01*
X18117D01*
X18115Y23830D01*
X18113Y23831D01*
X18110Y23832D01*
X18106Y23833D01*
X18102Y23834D01*
X18092Y23837D01*
X18081Y23839D01*
X18070Y23843D01*
X18059Y23846D01*
X18049Y23849D01*
X18048Y23850D01*
X18046Y23851D01*
X18041Y23853D01*
X18036Y23856D01*
X18029Y23860D01*
X18022Y23865D01*
X18014Y23872D01*
X18007Y23879D01*
X18007Y23880D01*
X18004Y23883D01*
X18001Y23888D01*
X17998Y23895D01*
X17994Y23903D01*
X17991Y23914D01*
X17989Y23925D01*
X17988Y23939D01*
Y23939D01*
Y23940D01*
Y23941D01*
Y23944D01*
X17988Y23949D01*
X17989Y23956D01*
X17991Y23964D01*
X17993Y23972D01*
X17996Y23980D01*
X18000Y23989D01*
X18001Y23990D01*
X18002Y23992D01*
X18005Y23995D01*
X18009Y24000D01*
X18013Y24005D01*
X18019Y24010D01*
X18025Y24015D01*
X18032Y24020D01*
X18033Y24020D01*
X18035Y24021D01*
X18039Y24024D01*
X18044Y24026D01*
X18050Y24029D01*
X18057Y24031D01*
X18065Y24034D01*
X18073Y24036D01*
X18074D01*
X18077Y24037D01*
X18082Y24039D01*
X18088Y24040D01*
X18097Y24041D01*
X18106Y24044D01*
X18118Y24046D01*
X18130Y24048D01*
X18573Y24143D01*
X18077D01*
X18074Y24144D01*
X18070D01*
X18066Y24145D01*
X18055Y24146D01*
X18044Y24148D01*
X18033Y24152D01*
X18022Y24158D01*
X18012Y24165D01*
X18011Y24166D01*
X18008Y24169D01*
X18004Y24174D01*
X18000Y24180D01*
X17996Y24188D01*
X17992Y24198D01*
X17989Y24210D01*
X17988Y24216D01*
X17988Y24222D01*
Y24223D01*
Y24224D01*
Y24226D01*
X17988Y24228D01*
X17989Y24234D01*
X17991Y24242D01*
X17993Y24251D01*
X17998Y24261D01*
X18003Y24269D01*
X18011Y24278D01*
X18012D01*
X18012Y24279D01*
X18014Y24281D01*
X18016Y24282D01*
X18021Y24285D01*
X18029Y24289D01*
X18039Y24293D01*
X18051Y24297D01*
X18065Y24299D01*
X18082Y24300D01*
X18662D01*
X18665Y24299D01*
D02*
G37*
G36*
X18659Y23429D02*
X18667Y23429D01*
X18676Y23427D01*
X18685Y23425D01*
X18695Y23423D01*
X18704Y23419D01*
X18705Y23419D01*
X18708Y23417D01*
X18712Y23415D01*
X18716Y23411D01*
X18722Y23406D01*
X18728Y23401D01*
X18733Y23394D01*
X18737Y23386D01*
X18738Y23385D01*
X18739Y23382D01*
X18740Y23377D01*
X18743Y23370D01*
X18744Y23362D01*
X18746Y23353D01*
X18747Y23342D01*
X18748Y23329D01*
Y22941D01*
Y22940D01*
Y22939D01*
Y22937D01*
Y22934D01*
X18747Y22931D01*
X18746Y22927D01*
X18745Y22919D01*
X18743Y22909D01*
X18740Y22899D01*
X18735Y22890D01*
X18729Y22881D01*
X18728Y22880D01*
X18725Y22878D01*
X18721Y22875D01*
X18716Y22871D01*
X18709Y22868D01*
X18701Y22864D01*
X18692Y22862D01*
X18681Y22861D01*
X18678D01*
X18676Y22861D01*
X18670Y22862D01*
X18663Y22864D01*
X18655Y22866D01*
X18648Y22870D01*
X18639Y22875D01*
X18632Y22881D01*
X18632Y22883D01*
X18629Y22885D01*
X18627Y22890D01*
X18623Y22896D01*
X18619Y22905D01*
X18617Y22915D01*
X18614Y22927D01*
X18614Y22941D01*
Y23262D01*
X18456D01*
Y22967D01*
Y22966D01*
Y22965D01*
Y22963D01*
Y22961D01*
X18455Y22957D01*
X18455Y22954D01*
X18453Y22945D01*
X18451Y22936D01*
X18448Y22926D01*
X18443Y22917D01*
X18437Y22909D01*
X18437Y22908D01*
X18434Y22906D01*
X18430Y22903D01*
X18425Y22899D01*
X18418Y22895D01*
X18410Y22893D01*
X18401Y22890D01*
X18390Y22889D01*
X18387D01*
X18385Y22890D01*
X18380Y22890D01*
X18373Y22891D01*
X18366Y22894D01*
X18357Y22898D01*
X18350Y22903D01*
X18342Y22909D01*
X18342Y22910D01*
X18340Y22913D01*
X18337Y22917D01*
X18334Y22924D01*
X18330Y22932D01*
X18327Y22942D01*
X18325Y22954D01*
X18324Y22967D01*
Y23262D01*
X18138D01*
Y22929D01*
Y22929D01*
Y22927D01*
Y22925D01*
X18137Y22922D01*
Y22920D01*
X18137Y22916D01*
X18135Y22907D01*
X18133Y22898D01*
X18129Y22888D01*
X18125Y22878D01*
X18118Y22870D01*
X18117Y22869D01*
X18115Y22866D01*
X18110Y22863D01*
X18105Y22859D01*
X18098Y22855D01*
X18089Y22852D01*
X18079Y22850D01*
X18068Y22849D01*
X18065D01*
X18063Y22849D01*
X18058Y22850D01*
X18051Y22851D01*
X18043Y22854D01*
X18034Y22858D01*
X18027Y22863D01*
X18019Y22870D01*
X18018Y22871D01*
X18016Y22874D01*
X18013Y22878D01*
X18009Y22885D01*
X18006Y22893D01*
X18003Y22904D01*
X18001Y22915D01*
X18000Y22929D01*
Y23329D01*
Y23330D01*
Y23332D01*
Y23334D01*
X18001Y23338D01*
Y23342D01*
X18001Y23347D01*
X18003Y23359D01*
X18006Y23371D01*
X18010Y23384D01*
X18016Y23396D01*
X18019Y23401D01*
X18024Y23406D01*
X18024D01*
X18025Y23407D01*
X18027Y23408D01*
X18028Y23410D01*
X18031Y23411D01*
X18034Y23414D01*
X18038Y23415D01*
X18043Y23418D01*
X18048Y23420D01*
X18053Y23422D01*
X18059Y23424D01*
X18067Y23426D01*
X18074Y23428D01*
X18082Y23429D01*
X18091Y23429D01*
X18100Y23430D01*
X18653D01*
X18659Y23429D01*
D02*
G37*
G36*
X18655Y21170D02*
X18660D01*
X18665Y21170D01*
X18676Y21168D01*
X18688Y21165D01*
X18701Y21161D01*
X18713Y21155D01*
X18718Y21151D01*
X18723Y21147D01*
X18724Y21146D01*
X18724Y21146D01*
X18725Y21144D01*
X18727Y21143D01*
X18729Y21140D01*
X18731Y21136D01*
X18733Y21133D01*
X18735Y21128D01*
X18738Y21123D01*
X18740Y21118D01*
X18742Y21112D01*
X18744Y21104D01*
X18745Y21097D01*
X18746Y21089D01*
X18748Y21080D01*
Y21070D01*
Y20878D01*
Y20877D01*
Y20875D01*
Y20871D01*
Y20866D01*
X18747Y20859D01*
Y20852D01*
X18746Y20843D01*
X18746Y20833D01*
X18745Y20823D01*
X18744Y20813D01*
X18741Y20791D01*
X18738Y20769D01*
X18733Y20747D01*
Y20747D01*
X18732Y20745D01*
X18731Y20742D01*
X18730Y20738D01*
X18728Y20733D01*
X18725Y20727D01*
X18723Y20721D01*
X18720Y20713D01*
X18716Y20705D01*
X18712Y20697D01*
X18707Y20689D01*
X18702Y20680D01*
X18695Y20670D01*
X18688Y20661D01*
X18681Y20652D01*
X18673Y20643D01*
Y20642D01*
X18672Y20641D01*
X18670Y20640D01*
X18668Y20638D01*
X18665Y20635D01*
X18663Y20632D01*
X18659Y20629D01*
X18655Y20625D01*
X18650Y20620D01*
X18644Y20616D01*
X18639Y20611D01*
X18632Y20606D01*
X18625Y20601D01*
X18617Y20596D01*
X18609Y20591D01*
X18600Y20585D01*
X18591Y20580D01*
X18581Y20575D01*
X18570Y20570D01*
X18559Y20565D01*
X18547Y20560D01*
X18534Y20555D01*
X18521Y20550D01*
X18508Y20547D01*
X18493Y20543D01*
X18478Y20539D01*
X18463Y20536D01*
X18447Y20534D01*
X18430Y20532D01*
X18412Y20530D01*
X18395Y20529D01*
X18376Y20529D01*
X18365D01*
X18359Y20529D01*
X18352D01*
X18344Y20530D01*
X18336Y20530D01*
X18326Y20531D01*
X18317Y20532D01*
X18296Y20534D01*
X18275Y20537D01*
X18254Y20541D01*
X18253D01*
X18251Y20542D01*
X18248Y20542D01*
X18244Y20543D01*
X18239Y20544D01*
X18234Y20546D01*
X18228Y20548D01*
X18220Y20550D01*
X18205Y20555D01*
X18188Y20561D01*
X18170Y20569D01*
X18153Y20577D01*
X18153D01*
X18151Y20578D01*
X18149Y20579D01*
X18146Y20581D01*
X18142Y20584D01*
X18138Y20586D01*
X18128Y20594D01*
X18116Y20602D01*
X18104Y20613D01*
X18092Y20624D01*
X18080Y20636D01*
X18079Y20637D01*
X18078Y20638D01*
X18077Y20640D01*
X18074Y20643D01*
X18072Y20645D01*
X18068Y20649D01*
X18060Y20658D01*
X18052Y20669D01*
X18044Y20681D01*
X18036Y20694D01*
X18029Y20707D01*
Y20707D01*
X18028Y20709D01*
X18027Y20710D01*
X18026Y20713D01*
X18025Y20716D01*
X18023Y20720D01*
X18022Y20725D01*
X18020Y20730D01*
X18016Y20741D01*
X18013Y20755D01*
X18009Y20769D01*
X18006Y20784D01*
Y20784D01*
Y20785D01*
X18006Y20787D01*
X18005Y20791D01*
X18004Y20795D01*
Y20799D01*
X18004Y20804D01*
X18003Y20810D01*
X18003Y20817D01*
X18002Y20824D01*
X18001Y20840D01*
X18001Y20857D01*
X18000Y20876D01*
Y21068D01*
Y21068D01*
Y21069D01*
Y21072D01*
Y21075D01*
X18001Y21078D01*
Y21083D01*
X18002Y21092D01*
X18003Y21103D01*
X18006Y21114D01*
X18009Y21124D01*
X18014Y21134D01*
X18014Y21135D01*
X18017Y21138D01*
X18019Y21142D01*
X18024Y21146D01*
X18029Y21152D01*
X18036Y21156D01*
X18043Y21161D01*
X18052Y21164D01*
X18053D01*
X18057Y21165D01*
X18062Y21166D01*
X18069Y21168D01*
X18078Y21169D01*
X18089Y21170D01*
X18100Y21170D01*
X18114Y21171D01*
X18652D01*
X18655Y21170D01*
D02*
G37*
%LPC*%
G36*
X30685Y19942D02*
X30406Y19844D01*
X30685Y19746D01*
Y19942D01*
D02*
G37*
G36*
X18617Y20237D02*
X18437D01*
Y20116D01*
Y20116D01*
Y20114D01*
Y20111D01*
Y20108D01*
Y20103D01*
X18437Y20098D01*
Y20093D01*
X18438Y20086D01*
X18439Y20073D01*
X18440Y20058D01*
X18442Y20044D01*
X18445Y20030D01*
Y20030D01*
X18446Y20029D01*
X18446Y20027D01*
X18447Y20025D01*
X18449Y20019D01*
X18452Y20012D01*
X18456Y20003D01*
X18461Y19995D01*
X18467Y19987D01*
X18473Y19980D01*
X18475Y19979D01*
X18477Y19977D01*
X18481Y19974D01*
X18487Y19971D01*
X18495Y19968D01*
X18504Y19965D01*
X18516Y19963D01*
X18528Y19963D01*
X18532D01*
X18537Y19963D01*
X18544Y19964D01*
X18552Y19966D01*
X18559Y19969D01*
X18568Y19972D01*
X18576Y19977D01*
X18577Y19977D01*
X18579Y19979D01*
X18583Y19982D01*
X18587Y19987D01*
X18592Y19992D01*
X18597Y19999D01*
X18602Y20006D01*
X18606Y20015D01*
X18607Y20016D01*
X18607Y20018D01*
X18608Y20020D01*
X18608Y20023D01*
X18609Y20026D01*
X18611Y20031D01*
X18612Y20036D01*
X18612Y20042D01*
X18613Y20049D01*
X18614Y20057D01*
X18615Y20066D01*
X18615Y20076D01*
X18616Y20087D01*
X18617Y20099D01*
Y20112D01*
Y20237D01*
D02*
G37*
G36*
X30685Y22697D02*
X30406Y22598D01*
X30685Y22501D01*
Y22697D01*
D02*
G37*
G36*
X18305Y21723D02*
Y21527D01*
X18584Y21626D01*
X18305Y21723D01*
D02*
G37*
G36*
X18611Y21003D02*
X18138D01*
Y20902D01*
Y20902D01*
Y20901D01*
Y20899D01*
Y20896D01*
Y20890D01*
Y20881D01*
X18138Y20872D01*
Y20863D01*
X18139Y20853D01*
X18139Y20846D01*
Y20845D01*
X18140Y20842D01*
X18140Y20838D01*
X18141Y20833D01*
X18142Y20827D01*
X18144Y20821D01*
X18148Y20806D01*
X18149Y20805D01*
X18149Y20802D01*
X18151Y20798D01*
X18153Y20794D01*
X18159Y20784D01*
X18162Y20778D01*
X18165Y20774D01*
X18166Y20772D01*
X18168Y20770D01*
X18172Y20767D01*
X18178Y20762D01*
X18185Y20756D01*
X18193Y20750D01*
X18204Y20743D01*
X18215Y20736D01*
X18229Y20729D01*
X18245Y20722D01*
X18262Y20716D01*
X18281Y20711D01*
X18302Y20706D01*
X18325Y20702D01*
X18350Y20700D01*
X18377Y20699D01*
X18387D01*
X18394Y20700D01*
X18402Y20700D01*
X18412Y20701D01*
X18423Y20702D01*
X18435Y20703D01*
X18448Y20705D01*
X18461Y20707D01*
X18486Y20712D01*
X18498Y20716D01*
X18511Y20720D01*
X18522Y20725D01*
X18532Y20730D01*
X18532Y20731D01*
X18534Y20731D01*
X18537Y20734D01*
X18540Y20736D01*
X18544Y20739D01*
X18548Y20742D01*
X18554Y20746D01*
X18559Y20751D01*
X18570Y20762D01*
X18581Y20775D01*
X18586Y20782D01*
X18590Y20790D01*
X18594Y20798D01*
X18597Y20806D01*
Y20807D01*
X18597Y20808D01*
X18598Y20811D01*
X18599Y20814D01*
X18600Y20818D01*
X18601Y20824D01*
X18602Y20830D01*
X18604Y20837D01*
X18605Y20845D01*
X18606Y20853D01*
X18607Y20862D01*
X18608Y20872D01*
X18609Y20882D01*
X18610Y20893D01*
X18611Y20916D01*
Y21003D01*
D02*
G37*
%LPD*%
D11*
X22750Y24900D02*
G03*
X22750Y24900I-50J0D01*
G01*
X30781Y25192D02*
G03*
X30781Y25192I-1181J0D01*
G01*
X21500Y16600D02*
X30500D01*
X21500D02*
Y17600D01*
X30500D01*
Y16600D02*
Y17600D01*
X29500Y16600D02*
X30500D01*
X29500D02*
Y17600D01*
X31259Y15116D02*
Y27246D01*
Y15116D02*
X36106D01*
X31259Y27246D02*
X36106D01*
Y15116D02*
Y27246D01*
X17741Y15116D02*
Y27246D01*
X12894D02*
X17741D01*
X12894Y15116D02*
X17741Y15116D01*
X12894Y15116D02*
Y27246D01*
X23500Y17870D02*
X26500D01*
X23500D02*
Y19130D01*
X26500D01*
Y17870D02*
Y19130D01*
X24500Y23270D02*
X27500D01*
X24500D02*
Y24530D01*
X27500D01*
Y23270D02*
Y24530D01*
X29600Y23200D02*
Y23700D01*
X29350Y23450D02*
X29850D01*
X19950Y26330D02*
X20150D01*
X20050D01*
Y25730D01*
X19950D01*
X20150D01*
X20850Y26230D02*
X20750Y26330D01*
X20550D01*
X20450Y26230D01*
Y25830D01*
X20550Y25730D01*
X20750D01*
X20850Y25830D01*
X21450Y26230D02*
X21350Y26330D01*
X21150D01*
X21050Y26230D01*
Y26130D01*
X21150Y26030D01*
X21350D01*
X21450Y25930D01*
Y25830D01*
X21350Y25730D01*
X21150D01*
X21050Y25830D01*
X21649Y25730D02*
Y26330D01*
X21949D01*
X22049Y26230D01*
Y26030D01*
X21949Y25930D01*
X21649D01*
X21550Y15650D02*
Y16250D01*
X21850D01*
X21950Y16150D01*
Y15950D01*
X21850Y15850D01*
X21550D01*
X21750D02*
X21950Y15650D01*
X22150D02*
Y16250D01*
X22550Y15650D01*
Y16250D01*
X22750Y15650D02*
X22950D01*
X22850D01*
Y16250D01*
X22750Y16150D01*
X20550Y21000D02*
Y21400D01*
X20750Y21600D01*
X20950Y21400D01*
Y21000D01*
Y21300D01*
X20550D01*
X21150Y21600D02*
X21550D01*
X21350D01*
Y21000D01*
X21850Y21500D02*
Y21400D01*
X21750D01*
X21950D01*
X21850D01*
Y21100D01*
X21950Y21000D01*
X22249D02*
X22449D01*
X22349D01*
Y21400D01*
X22249D01*
X22749Y21000D02*
Y21400D01*
X23049D01*
X23149Y21300D01*
Y21000D01*
X23349Y21400D02*
Y21100D01*
X23449Y21000D01*
X23749D01*
Y20900D01*
X23649Y20800D01*
X23549D01*
X23749Y21000D02*
Y21400D01*
X23949Y21500D02*
X24049Y21600D01*
X24249D01*
X24349Y21500D01*
Y21400D01*
X24249Y21300D01*
X24349Y21200D01*
Y21100D01*
X24249Y21000D01*
X24049D01*
X23949Y21100D01*
Y21200D01*
X24049Y21300D01*
X23949Y21400D01*
Y21500D01*
X24049Y21300D02*
X24249D01*
X24949Y21600D02*
X24749Y21500D01*
X24549Y21300D01*
Y21100D01*
X24649Y21000D01*
X24849D01*
X24949Y21100D01*
Y21200D01*
X24849Y21300D01*
X24549D01*
X25149Y21000D02*
X25348D01*
X25248D01*
Y21600D01*
X25149Y21500D01*
X25648Y21300D02*
X26048D01*
X26648Y21000D02*
X26248D01*
X26648Y21400D01*
Y21500D01*
X26548Y21600D01*
X26348D01*
X26248Y21500D01*
X26848D02*
X26948Y21600D01*
X27148D01*
X27248Y21500D01*
Y21100D01*
X27148Y21000D01*
X26948D01*
X26848Y21100D01*
Y21500D01*
X27448Y21000D02*
Y21600D01*
X27748D01*
X27848Y21500D01*
Y21300D01*
X27748Y21200D01*
X27448D01*
X28048Y21600D02*
Y21100D01*
X28148Y21000D01*
X28347D01*
X28447Y21100D01*
Y21600D01*
X19440Y19060D02*
Y18560D01*
X19540Y18460D01*
X19740D01*
X19840Y18560D01*
Y19060D01*
X20040Y18460D02*
X20240D01*
X20140D01*
Y19060D01*
X20040Y18960D01*
X28250Y24100D02*
X28150Y24200D01*
X27950D01*
X27850Y24100D01*
Y23700D01*
X27950Y23600D01*
X28150D01*
X28250Y23700D01*
X28450Y23600D02*
X28650D01*
X28550D01*
Y24200D01*
X28450Y24100D01*
X22550Y18700D02*
X22450Y18800D01*
X22250D01*
X22150Y18700D01*
Y18300D01*
X22250Y18200D01*
X22450D01*
X22550Y18300D01*
X23150Y18200D02*
X22750D01*
X23150Y18600D01*
Y18700D01*
X23050Y18800D01*
X22850D01*
X22750Y18700D01*
X27500Y25400D02*
X27400Y25500D01*
X27200D01*
X27100Y25400D01*
Y25000D01*
X27200Y24900D01*
X27400D01*
X27500Y25000D01*
X27700Y25400D02*
X27800Y25500D01*
X28000D01*
X28100Y25400D01*
Y25300D01*
X28000Y25200D01*
X27900D01*
X28000D01*
X28100Y25100D01*
Y25000D01*
X28000Y24900D01*
X27800D01*
X27700Y25000D01*
D23*
X29618Y21450D02*
G03*
X29618Y20950I0J-250D01*
G01*
X19382Y22243D02*
X29618D01*
X19382Y20157D02*
X29618D01*
Y21450D02*
Y22243D01*
Y20157D02*
Y20950D01*
X19382Y20157D02*
Y22243D01*
D24*
X29561Y22700D02*
G03*
X29561Y22700I-49J0D01*
G01*
D25*
X29343Y21850D02*
G03*
X29343Y21850I-118J0D01*
G01*
D26*
X19750Y25400D02*
X20250D01*
X19500Y23650D02*
Y25150D01*
Y23650D02*
X19750Y23400D01*
X20250D01*
X20500Y23650D01*
X19500Y25150D02*
X19750Y25400D01*
X20250D02*
X20500Y25150D01*
X21750Y25400D02*
X22250D01*
X20750D02*
X21250D01*
X20500Y23650D02*
Y25150D01*
X21500Y23650D02*
Y25150D01*
X20500Y23650D02*
X20750Y23400D01*
X21250D01*
X21500Y23650D01*
X21750Y23400D01*
X22250D01*
X22500Y23650D01*
Y25150D01*
X20500D02*
X20750Y25400D01*
X21250D02*
X21500Y25150D01*
X21750Y25400D01*
X22250D02*
X22500Y25150D01*
M02*
