M48
;Layer_Color=6321
;FILE_FORMAT=2:5
INCH,LZ
;TYPE=PLATED
T1F00S00C0.02500
T2F00S00C0.03000
T3F00S00C0.03500
T4F00S00C0.03543
T5F00S00C0.03937
T6F00S00C0.12992
%
T01
X022Y0171
X023
X024
X025
X026
X027
X028
X029
X03
T02
X0296Y0247
Y0256842
T03
X0240315Y0185
X026
X0250315Y0239
X027
T04
X02Y0197
X021
X022
X023
X024
X025
X026
X027
X028
X029
Y0227
X028
X027
X026
X025
X024
X023
X022
X021
X02
X02Y0239
Y0249
X021
Y0239
X022
Y0249
T05
X032Y019
Y0200905
Y0211811
Y0222716
Y0233622
X0331181Y0228189
Y0217284
Y0206378
Y0195472
X017Y0200905
Y019
X0158819Y0195433
Y0206339
Y0217244
Y022815
X017Y0222716
Y0211811
Y0233622
T06
X0325512Y0162611
X0325Y0261011
X0164488Y0261011
X0165Y0162611
M30
